####
#
# OBJ File Generated by Meshlab
#
####
# Object rock-1.obj
#
# Vertices: 156
# Faces: 308
#
####
vn -3.8758287 -0.8384778 4.7019911
v -0.1024326 0.0515892 0.1315353
vn -4.4457612 0.4758864 4.0319867
v -0.1110138 0.0668774 0.1254004
vn -5.3317771 0.1913127 2.7657948
v -0.1207937 0.0598460 0.1112611
vn -4.1076880 -1.5376968 -1.1144079
v -0.1389850 -0.1037093 -0.0907126
vn -3.8233624 -4.1484137 -1.0473617
v -0.1246579 -0.1155143 -0.1041115
vn -2.4731386 -5.6298485 0.2162471
v -0.1068803 -0.1247053 -0.0929923
vn 4.4919853 -1.4102974 -2.7348597
v 0.3000203 0.0217875 -0.1004769
vn 5.5670753 -0.0311104 -0.9137697
v 0.3104066 0.0497324 -0.0865502
vn 5.1434531 0.3432792 1.6860324
v 0.3070501 0.0395945 -0.0554262
vn 0.6617345 0.9407247 6.0655789
v 0.1377693 -0.1490802 0.1388930
vn -0.9418188 2.4871466 5.6704946
v 0.1154393 -0.0183234 0.0870607
vn 0.8229763 2.9995091 5.3846664
v 0.1053329 -0.0152786 0.0852298
vn 0.3522122 -5.5400581 -0.1858633
v 0.1051624 -0.2066894 0.0259712
vn 0.2187922 -5.1511049 0.7235873
v 0.0461309 -0.2119866 0.1207057
vn -2.8838286 -5.1386600 0.0633675
v 0.0379726 -0.2091308 0.1213183
vn 2.5262675 3.2633138 4.7077880
v 0.0976074 -0.0178814 0.0899487
vn 1.2540022 4.2535710 2.2983315
v 0.1162042 0.1227462 0.0355933
vn 0.5339500 4.0892587 -3.9334435
v 0.0819273 0.0909089 -0.1222959
vn 0.4113727 5.3942685 -0.3266029
v 0.0237371 0.1484947 -0.0313954
vn -0.2351635 2.8519733 -5.5069127
v 0.0926066 -0.0127947 -0.1776834
vn -0.8901763 1.2083219 -5.8057408
v 0.0837563 -0.0373575 -0.1883099
vn -2.1327984 -0.0309410 -5.0596843
v 0.0562533 -0.0370687 -0.1821386
vn 3.0055308 -2.8726876 3.7518682
v 0.2312336 -0.1046175 0.1434369
vn 2.9538801 -0.2466273 4.9716458
v 0.2350078 -0.0905195 0.1453334
vn 0.2063098 0.5366216 5.6661625
v 0.2216136 -0.0941502 0.1493074
vn 0.3208820 3.0369916 -4.5759897
v -0.0470455 0.1111891 -0.1223946
vn -0.7685812 4.5763311 -3.4205072
v -0.0675069 0.1185197 -0.1146874
vn -0.5688491 5.7153044 -1.3914320
v -0.0567347 0.1267556 -0.0960344
vn -4.0598283 0.7698818 -4.1978583
v -0.1241826 -0.1017180 -0.1143056
vn -4.1233540 -0.3057852 -3.5665081
v -0.1259757 -0.1040030 -0.1130273
vn -2.4495554 -3.1606748 -4.7566347
v 0.0815341 -0.0884081 -0.1694896
vn -1.1448451 -2.4679441 -5.4117322
v 0.0986436 -0.0757283 -0.1850371
vn 0.5324156 -2.4510915 -5.1598463
v 0.1181544 -0.0924614 -0.1791580
vn 1.7719163 0.9772658 -5.4843054
v 0.1354177 -0.0322461 -0.1826948
vn 0.4690754 1.6498013 -5.8378386
v 0.1069429 -0.0359449 -0.1884728
vn -2.0888181 -1.7585993 -5.3700409
v 0.0805132 -0.0595041 -0.1859100
vn -3.8455846 -0.9545289 4.7033916
v -0.0719506 -0.0708733 0.1334076
vn -2.7277606 -1.6427901 5.3135061
v -0.0372897 -0.0972091 0.1486821
vn -0.0298722 1.3989105 4.9404120
v 0.0085479 -0.0566097 0.1776631
vn 2.1821420 0.0567619 4.8725390
v 0.0662665 -0.1086017 0.1736178
vn 0.4658300 -0.9855304 5.8004208
v 0.0443697 -0.1040957 0.1784396
vn -0.8455352 -2.5829589 5.4231815
v 0.0366016 -0.1238889 0.1700190
vn -0.8901035 5.8903956 1.7011262
v -0.0907274 0.0922171 0.1074764
vn -0.7432696 4.6295748 3.4569240
v -0.0959436 0.0869694 0.1205558
vn 0.9404823 3.7542832 4.0236568
v -0.0810459 0.0878164 0.1187794
vn -3.2706237 4.9442925 0.8198281
v -0.1083866 0.0885933 0.0996430
vn -2.3395023 5.0880241 2.1543765
v -0.1039516 0.0871969 0.1149508
vn 0.0486394 0.2502502 5.6994610
v 0.2176052 -0.0998150 0.1497334
vn -1.7054133 2.2323620 5.5969057
v 0.2091038 -0.0742384 0.1383997
vn -5.3721504 2.6973290 1.0580329
v -0.1198534 0.0742691 0.1017145
vn -3.2341497 4.9515285 0.4364706
v -0.1023173 0.1088278 -0.0074948
vn -3.3908093 -2.5872588 4.3748250
v -0.0501767 -0.1065571 0.1378288
vn -3.5593486 -3.3690009 2.8811502
v -0.0429134 -0.1236126 0.1325741
vn -4.9342890 1.9003494 2.6797664
v -0.1161163 0.0735202 0.1166661
vn -1.5685558 -0.5859811 -5.6631584
v -0.1123230 -0.1076975 -0.1211645
vn -3.5244873 -2.8776250 -3.5972626
v -0.1201181 -0.1138541 -0.1141309
vn 5.2555981 0.2878635 1.6710576
v 0.2782612 -0.0420250 0.0398844
vn 4.1627536 -3.5107124 0.9677621
v 0.2443630 -0.1536348 0.0200987
vn 4.3244429 -1.6970543 -2.8253925
v 0.2529406 -0.1067157 -0.1046134
vn -0.6655200 -3.3428864 -3.3486073
v -0.0927939 -0.1263012 -0.1174797
vn -1.4128209 0.2092740 -6.0049105
v -0.0529345 0.0153631 -0.1314035
vn -1.9525540 -4.4594584 -3.0829337
v 0.0472870 -0.1628020 -0.1012732
vn -0.3318115 -5.5386686 0.8968946
v 0.1179678 -0.2075921 0.0064552
vn -2.2469070 -5.8279085 -0.6033874
v 0.1075451 -0.2029304 0.0062473
vn 4.3726015 -3.4640059 1.7762047
v 0.2419491 -0.1099760 0.1183563
vn 3.7448883 3.5913875 3.3606424
v 0.2874658 0.0658589 -0.0514334
vn 3.5913620 4.3589129 1.2458057
v 0.2965054 0.0766732 -0.0756077
vn 1.8664035 5.2686281 0.8532324
v 0.2721431 0.0875046 -0.0671096
vn -3.2803102 5.0550923 -0.0584868
v -0.0943174 0.1145183 -0.0797498
vn -3.8781111 3.8013954 -1.9530374
v -0.0975917 0.1096250 -0.1020207
vn -4.4589167 1.6978561 -2.4074221
v -0.1121792 0.0930583 -0.0954323
vn -1.7692152 -5.8876839 -1.2213104
v 0.1027893 -0.2025075 0.0144925
vn -2.8796515 -5.4677701 0.0175368
v -0.0317901 -0.1519766 0.0126962
vn 4.9386430 2.3975883 1.5638828
v 0.3067294 0.0626406 -0.0721857
vn 2.9217117 -1.1758703 -5.4303398
v 0.1362987 -0.0679942 -0.1760770
vn 1.7702849 -0.3266733 -5.8186030
v 0.1197401 -0.0521125 -0.1880023
vn -2.2885909 -4.7409554 -2.1801198
v -0.1111288 -0.1221313 -0.1119514
vn 0.4907881 2.2310073 5.5650244
v 0.1045419 -0.0017555 0.0773985
vn 1.5462103 3.0461450 4.2781649
v 0.1952694 0.0353638 0.0820321
vn -3.9618163 -3.1800244 2.6769757
v -0.0845069 -0.0938149 0.1111878
vn -4.0893669 -1.3645502 0.3097090
v -0.1767679 -0.0603126 0.0069802
vn 2.4120600 2.6881471 4.9879718
v -0.0815106 0.0700691 0.1242973
vn 0.5927565 3.2675018 5.0069427
v -0.0958772 0.0720550 0.1313941
vn -0.2007487 1.6051520 4.8868589
v -0.0900358 0.0590435 0.1389627
vn 1.5752307 2.8457665 4.2494335
v 0.2289163 -0.0592433 0.1363474
vn 5.1437316 0.5955109 2.0714600
v 0.2526009 -0.0773583 0.1198353
vn 0.5149720 1.9721490 5.4784641
v 0.2281297 -0.0777401 0.1450462
vn 2.1869779 -4.8871727 2.9409621
v 0.1523798 -0.1534788 0.1346428
vn 2.4678407 -3.1560810 4.0498629
v 0.2236949 -0.1078869 0.1457260
vn 4.9152150 -1.5028105 2.6940567
v 0.2446869 -0.0935132 0.1343394
vn 3.8362932 1.5262502 3.9255416
v 0.2408696 -0.0786539 0.1396089
vn -1.5617952 -1.7714975 5.6547713
v 0.0245494 -0.0992489 0.1768734
vn -1.1278564 -0.2885980 5.8041239
v 0.0163326 -0.0795433 0.1791123
vn -2.6265888 -1.6273634 5.3685155
v -0.0014042 -0.0920540 0.1682707
vn 2.5691519 1.8955382 5.1293707
v 0.0493379 -0.0871309 0.1749521
vn 1.8818396 2.3257735 5.1898050
v 0.0324326 -0.0719028 0.1761369
vn 3.2204587 3.1303797 4.3160796
v 0.0535643 -0.0659674 0.1581118
vn 1.8460149 -5.1942091 2.9267783
v 0.1293718 -0.1606992 0.1347958
vn 1.9973103 2.8513069 5.0257959
v 0.0946181 -0.0073170 0.0827297
vn 0.7607162 -5.8673544 0.6296729
v 0.1130905 -0.2050799 0.0180649
vn 2.2382107 -5.4743934 2.0670097
v 0.1222261 -0.2020914 0.0150329
vn 1.5465093 -5.1243286 2.8839071
v 0.1378811 -0.1594864 0.1340362
vn -0.1021682 -4.5809665 2.8392234
v 0.0430086 -0.2098491 0.1266411
vn -2.7990625 -3.8449366 2.7654457
v 0.0364051 -0.2065952 0.1277961
vn 1.8027898 -3.1873348 4.7538996
v 0.1287858 -0.1565399 0.1407971
vn 1.1408737 -2.6387920 5.0356240
v 0.1385391 -0.1551682 0.1386898
vn 0.8058269 -2.4546378 5.1176467
v 0.1489459 -0.1508017 0.1390931
vn -0.9370842 0.8092238 6.0633192
v 0.1464763 -0.1454045 0.1391777
vn 0.9136370 -1.9370543 5.2584796
v 0.2148588 -0.1085813 0.1490413
vn -0.4670267 -3.1516719 4.9527683
v 0.0414262 -0.2041544 0.1314129
vn -4.2838268 -4.0161171 1.8986788
v -0.0559250 -0.1111274 0.1253234
vn -3.3643575 -1.4554776 4.9826612
v -0.0586816 -0.0911101 0.1380729
vn -4.1495490 -2.1549768 3.9450350
v -0.0725111 -0.0901161 0.1270911
vn -3.7985141 -4.3710489 2.1540034
v -0.0681074 -0.1023999 0.1190595
vn -3.9003921 -4.7749462 0.8996904
v -0.0569154 -0.1128130 0.1059861
vn 0.7698883 3.1157627 5.1625218
v -0.0932441 0.0804824 0.1254824
vn -4.1481915 3.8043261 1.9055175
v -0.1124822 0.0819401 0.1132632
vn -2.4693856 1.2884276 4.9102993
v -0.1020051 0.0666423 0.1335139
vn 2.2411253 4.9967465 -1.5970501
v 0.2890598 0.0808546 -0.0911392
vn 2.3345199 3.0549419 -4.2014132
v 0.2893778 0.0695799 -0.1066402
vn 0.7091592 4.5440784 -3.3917079
v 0.2620446 0.0801351 -0.1044614
vn 3.9569638 0.5020010 -4.0292678
v 0.3005006 0.0524903 -0.1054733
vn 1.9439671 1.0761456 -5.4100013
v 0.2732289 0.0490105 -0.1200334
vn 1.3209760 -1.3687505 -5.7417755
v 0.1146838 -0.0697492 -0.1869664
vn -1.7626837 -1.4375055 -5.0214028
v -0.1124467 -0.1106199 -0.1208672
vn -1.3150309 1.7720609 -5.3926411
v -0.0738814 0.1037606 -0.1232712
vn -3.3678601 0.1961526 -5.0431719
v -0.0897202 0.0935038 -0.1176064
vn -2.6622419 3.5703254 -3.8391738
v -0.0841862 0.1117129 -0.1139157
vn -1.3024253 0.6349782 -5.9624228
v -0.0748722 0.0978827 -0.1237153
vn -3.2664104 1.1562738 -4.5296574
v -0.0929587 0.0984502 -0.1153741
vn -2.2159986 5.4105005 -1.2967721
v -0.0813524 0.1194948 -0.1021970
vn -4.1951857 0.4057226 -4.5477896
v -0.0683819 0.0127370 -0.1227116
vn -2.8163059 0.5970125 -5.3016176
v -0.1154059 -0.0967115 -0.1200951
vn -2.9282849 0.3069279 -5.5101390
v -0.0612411 0.0143879 -0.1281347
vn -2.4470153 0.0735563 -5.6647644
v -0.0807233 0.0876873 -0.1225996
vn -4.5903091 1.0598828 -1.3711265
v -0.1643492 0.0357278 -0.0330808
vn 1.9075615 -0.5005834 5.3312168
v 0.1249356 -0.1511247 0.1443388
vn -0.8808545 2.6163702 5.5931902
v 0.1126418 -0.0067064 0.0807391
vn 0.4914950 0.2878190 6.0359707
v 0.0336191 -0.0880602 0.1794608
vn -4.0004449 -3.0530427 3.6245370
v -0.0618174 -0.1004483 0.1304436
vn -2.6099472 3.1909146 4.0895920
v -0.1056691 0.0786151 0.1250941
vn 4.4598017 2.8239875 -1.6722709
v 0.3041040 0.0681619 -0.0918774
vn -0.2264343 -0.4950876 -6.0677872
v 0.0997713 -0.0550321 -0.1903846
vn 0.6704952 -2.6853075 -5.0067339
v 0.1755372 -0.1940067 -0.1222596
vn 2.3672447 -3.2300253 -3.7695253
v 0.1947316 -0.2066460 -0.1088479
vn 1.6312603 -4.8355064 -2.0211179
v 0.1894844 -0.2188823 -0.0966312
vn 0.3712274 -4.0060530 -3.5097938
v 0.1775011 -0.2130112 -0.1085589
vn 4.1253481 -2.2413259 -3.0022917
v 0.2137266 -0.1887709 -0.1035829
vn 3.6524186 -3.7455049 -1.6437521
v 0.2045574 -0.2103941 -0.0928714
vn 3.7601829 -4.1290607 0.7561229
v 0.2090846 -0.2068036 -0.0677122
vn 2.1314111 -5.1519160 0.1980773
v 0.1924416 -0.2195776 -0.0820053
vn 2.1039939 -5.4154873 2.3761067
v 0.1723607 -0.2201252 -0.0664839
vn 0.2381477 -1.0142909 -0.1278404
v 0.1810057 -0.2239000 -0.0820064
vn -0.2014471 -5.5597739 0.7902349
v 0.1700400 -0.2215612 -0.0677160
vn -0.5285453 -5.3475256 -1.6007757
v 0.1758911 -0.2210818 -0.0925834
vn -1.9377466 -4.7335052 -2.7555909
v 0.1548982 -0.2105033 -0.1025960
# 156 vertices, 0 vertices normals

f 1//1 2//2 3//3
f 4//4 5//5 6//6
f 7//7 8//8 9//9
f 10//10 11//11 12//12
f 13//13 14//14 15//15
f 16//16 10//10 12//12
f 17//17 18//18 19//19
f 20//20 21//21 22//22
f 23//23 24//24 25//25
f 26//26 27//27 28//28
f 29//29 30//30 4//4
f 31//31 32//32 33//33
f 34//34 35//35 20//20
f 22//22 36//36 31//31
f 37//37 38//38 39//39
f 40//40 41//41 42//42
f 43//43 44//44 45//45
f 46//46 47//47 43//43
f 48//48 25//25 49//49
f 50//50 46//46 51//51
f 38//38 52//52 53//53
f 3//3 54//54 50//50
f 29//29 55//55 56//56
f 57//57 58//58 59//59
f 60//60 55//55 61//61
f 62//62 63//63 64//64
f 65//65 58//58 57//57
f 66//66 67//67 68//68
f 69//69 70//70 71//71
f 62//62 72//72 73//73
f 9//9 74//74 66//66
f 75//75 76//76 34//34
f 28//28 69//69 51//51
f 6//6 77//77 60//60
f 78//78 79//79 17//17
f 80//80 81//81 73//73
f 82//82 83//83 84//84
f 85//85 86//86 57//57
f 25//25 87//87 49//49
f 88//88 65//65 89//89
f 90//90 23//23 65//65
f 91//91 90//90 86//86
f 87//87 91//91 85//85
f 92//92 93//93 94//94
f 41//41 92//92 42//42
f 95//95 41//41 40//40
f 96//96 95//95 97//97
f 93//93 96//96 39//39
f 13//13 98//98 14//14
f 78//78 99//99 12//12
f 64//64 63//63 100//100
f 97//97 95//95 40//40
f 101//101 58//58 88//88
f 13//13 102//102 98//98
f 102//102 101//101 88//88
f 49//49 87//87 85//85
f 103//103 104//104 15//15
f 10//10 105//105 106//106
f 106//106 98//98 102//102
f 10//10 107//107 108//108
f 106//106 88//88 107//107
f 88//88 109//109 107//107
f 109//109 108//108 107//107
f 98//98 103//103 14//14
f 105//105 110//110 103//103
f 52//52 111//111 53//53
f 112//112 52//52 38//38
f 113//113 112//112 37//37
f 114//114 113//113 80//80
f 111//111 114//114 115//115
f 53//53 111//111 115//115
f 44//44 116//116 45//45
f 47//47 44//44 43//43
f 117//117 47//47 46//46
f 54//54 117//117 50//50
f 2//2 54//54 3//3
f 118//118 2//2 1//1
f 83//83 118//118 84//84
f 116//116 83//83 82//82
f 45//45 116//116 82//82
f 119//119 120//120 121//121
f 67//67 119//119 68//68
f 74//74 67//67 66//66
f 8//8 74//74 9//9
f 122//122 8//8 7//7
f 120//120 122//122 123//123
f 68//68 121//121 18//18
f 124//124 76//76 75//75
f 32//32 124//124 33//33
f 36//36 32//32 31//31
f 21//21 36//36 22//22
f 35//35 21//21 20//20
f 76//76 35//35 34//34
f 33//33 75//75 59//59
f 77//77 125//125 60//60
f 5//5 77//77 6//6
f 30//30 5//5 4//4
f 126//126 127//127 128//128
f 129//129 126//126 26//26
f 126//126 27//27 26//26
f 70//70 130//130 71//71
f 131//131 70//70 69//69
f 27//27 131//131 28//28
f 71//71 127//127 132//132
f 61//61 133//133 134//134
f 133//133 132//132 134//134
f 132//132 135//135 134//134
f 135//135 61//61 134//134
f 132//132 81//81 136//136
f 81//81 80//80 3//3
f 80//80 113//113 37//37
f 3//3 80//80 37//37
f 37//37 1//1 3//3
f 6//6 73//73 81//81
f 81//81 4//4 6//6
f 9//9 57//57 7//7
f 57//57 59//59 7//7
f 10//10 108//108 11//11
f 15//15 73//73 13//13
f 73//73 72//72 13//13
f 16//16 137//137 10//10
f 22//22 61//61 18//18
f 18//18 20//20 22//22
f 25//25 48//48 89//89
f 48//48 109//109 89//89
f 89//89 23//23 25//25
f 28//28 19//19 26//26
f 19//19 18//18 26//26
f 81//81 132//132 4//4
f 132//132 29//29 4//4
f 62//62 31//31 33//33
f 18//18 121//121 34//34
f 121//121 120//120 123//123
f 18//18 34//34 20//20
f 123//123 34//34 121//121
f 31//31 62//62 22//22
f 62//62 61//61 22//22
f 38//38 94//94 39//39
f 94//94 93//93 39//39
f 39//39 84//84 37//37
f 84//84 118//118 1//1
f 1//1 37//37 84//84
f 37//37 112//112 38//38
f 42//42 110//110 137//137
f 137//137 40//40 42//42
f 17//17 19//19 45//45
f 19//19 43//43 45//45
f 43//43 19//19 51//51
f 51//51 46//46 43//43
f 11//11 108//108 49//49
f 108//108 48//48 49//49
f 51//51 136//136 50//50
f 50//50 117//117 46//46
f 53//53 104//104 42//42
f 104//104 110//110 42//42
f 42//42 92//92 94//94
f 53//53 42//42 94//94
f 94//94 38//38 53//53
f 50//50 136//136 3//3
f 136//136 81//81 3//3
f 30//30 29//29 56//56
f 29//29 133//133 55//55
f 56//56 55//55 125//125
f 61//61 62//62 60//60
f 60//60 125//125 55//55
f 57//57 86//86 65//65
f 86//86 90//90 65//65
f 17//17 79//79 68//68
f 79//79 66//66 68//68
f 71//71 136//136 51//51
f 51//51 69//69 71//71
f 62//62 64//64 72//72
f 66//66 79//79 57//57
f 57//57 9//9 66//66
f 34//34 123//123 59//59
f 123//123 122//122 7//7
f 59//59 123//123 7//7
f 59//59 75//75 34//34
f 51//51 19//19 28//28
f 28//28 131//131 69//69
f 62//62 73//73 60//60
f 73//73 6//6 60//60
f 78//78 138//138 79//79
f 73//73 115//115 80//80
f 115//115 114//114 80//80
f 84//84 39//39 82//82
f 39//39 96//96 97//97
f 99//99 97//97 16//16
f 39//39 97//97 99//99
f 99//99 82//82 39//39
f 57//57 79//79 85//85
f 85//85 91//91 86//86
f 25//25 24//24 87//87
f 58//58 65//65 88//88
f 65//65 23//23 89//89
f 90//90 24//24 23//23
f 91//91 24//24 90//90
f 87//87 24//24 91//91
f 92//92 139//139 93//93
f 41//41 139//139 92//92
f 95//95 139//139 41//41
f 96//96 139//139 95//95
f 93//93 139//139 96//96
f 99//99 16//16 12//12
f 12//12 11//11 138//138
f 138//138 78//78 12//12
f 63//63 101//101 100//100
f 100//100 13//13 72//72
f 72//72 64//64 100//100
f 40//40 137//137 97//97
f 137//137 16//16 97//97
f 13//13 100//100 102//102
f 102//102 100//100 101//101
f 85//85 79//79 49//49
f 79//79 138//138 11//11
f 49//49 79//79 11//11
f 15//15 14//14 103//103
f 103//103 110//110 104//104
f 10//10 137//137 105//105
f 106//106 105//105 98//98
f 10//10 106//106 107//107
f 106//106 102//102 88//88
f 88//88 89//89 109//109
f 109//109 48//48 108//108
f 98//98 105//105 103//103
f 105//105 137//137 110//110
f 52//52 140//140 111//111
f 112//112 140//140 52//52
f 113//113 140//140 112//112
f 114//114 140//140 113//113
f 111//111 140//140 114//114
f 115//115 73//73 53//53
f 73//73 15//15 53//53
f 15//15 104//104 53//53
f 44//44 141//141 116//116
f 47//47 141//141 44//44
f 117//117 141//141 47//47
f 54//54 141//141 117//117
f 2//2 141//141 54//54
f 118//118 141//141 2//2
f 83//83 141//141 118//118
f 116//116 141//141 83//83
f 82//82 99//99 45//45
f 99//99 78//78 17//17
f 45//45 99//99 17//17
f 119//119 142//142 120//120
f 67//67 142//142 119//119
f 74//74 142//142 67//67
f 8//8 142//142 74//74
f 122//122 142//142 8//8
f 120//120 142//142 122//122
f 18//18 17//17 68//68
f 68//68 119//119 121//121
f 124//124 143//143 76//76
f 32//32 143//143 124//124
f 36//36 143//143 32//32
f 21//21 143//143 36//36
f 35//35 143//143 21//21
f 76//76 143//143 35//35
f 33//33 124//124 75//75
f 77//77 56//56 125//125
f 5//5 56//56 77//77
f 30//30 56//56 5//5
f 126//126 129//129 127//127
f 129//129 135//135 127//127
f 127//127 130//130 128//128
f 18//18 61//61 26//26
f 61//61 129//129 26//26
f 126//126 128//128 27//27
f 70//70 128//128 130//130
f 131//131 128//128 70//70
f 27//27 128//128 131//131
f 132//132 136//136 71//71
f 71//71 130//130 127//127
f 61//61 55//55 133//133
f 133//133 29//29 132//132
f 132//132 127//127 135//135
f 135//135 129//129 61//61
f 144//144 145//145 146//146
f 144//144 146//146 147//147
f 148//148 149//149 146//146
f 148//148 146//146 145//145
f 150//150 151//151 146//146
f 150//150 146//146 149//149
f 152//152 153//153 146//146
f 152//152 146//146 151//151
f 154//154 155//155 146//146
f 154//154 146//146 153//153
f 156//156 147//147 146//146
f 156//156 146//146 155//155
f 152//152 58//58 101//101
f 58//58 152//152 151//151
f 58//58 151//151 150//150
f 58//58 148//148 59//59
f 148//148 58//58 149//149
f 149//149 58//58 150//150
f 59//59 144//144 33//33
f 144//144 59//59 148//148
f 144//144 148//148 145//145
f 144//144 62//62 33//33
f 62//62 144//144 156//156
f 156//156 144//144 147//147
f 154//154 101//101 63//63
f 101//101 154//154 152//152
f 152//152 154//154 153//153
f 156//156 63//63 62//62
f 63//63 156//156 154//154
f 154//154 156//156 155//155
# 308 faces, 0 coords texture

# End of File
