####
#
# OBJ File Generated by Meshlab
#
####
# Object rock-2.obj
#
# Vertices: 217
# Faces: 430
#
####
vn -0.4088152 4.3380418 -4.1885839
v 0.0156233 0.1867646 -0.0375444
vn -2.1544955 3.0436873 -4.3037968
v -0.0726590 0.1193228 -0.0795518
vn -2.4515152 4.7879534 -2.8312988
v -0.1112457 0.1476684 -0.0146576
vn -4.0384908 -0.1739424 3.9833117
v -0.2711271 0.0392546 -0.0160469
vn -4.9145904 -1.0880426 -1.1937501
v -0.2640607 -0.0121300 -0.0134004
vn -3.6594093 -0.1819083 4.1622248
v -0.2632503 -0.0117011 -0.0111460
vn 1.6116458 -0.9324602 5.9661574
v 0.0819895 -0.0226894 0.1464808
vn 1.3079996 -3.4602575 3.8218763
v 0.0979760 -0.1711046 0.1196038
vn 2.7744648 1.1285270 4.4482384
v 0.1838180 -0.0858975 0.1195951
vn 5.4779553 0.7299527 1.8786049
v 0.2244892 0.0653556 -0.0424328
vn 5.2886949 2.0436954 2.0611513
v 0.2208819 0.0851150 -0.0481970
vn 4.6741595 2.1474504 3.6006033
v 0.2072701 0.0955445 -0.0362548
vn -1.0441291 3.6281223 4.4311571
v 0.0759208 0.1982102 0.0318294
vn -0.5477160 5.0888138 2.2740710
v 0.0842167 0.2117041 0.0192327
vn -0.5896315 4.5253263 -0.4821304
v 0.0700238 0.2132777 0.0048915
vn -1.5199432 4.1833043 4.3894401
v -0.0618227 0.1203981 0.0470581
vn -1.7752640 4.3757815 4.0398679
v -0.0437765 0.1100041 0.0683068
vn -2.0543065 4.8199196 3.2546582
v -0.0182943 0.1226510 0.0595937
vn -2.8230057 1.2264560 4.7558484
v -0.2550290 0.0570960 -0.0061516
vn -2.4886737 5.3595181 0.1972758
v -0.1166689 0.1499255 0.0008481
vn -2.9012358 3.3349397 0.0421757
v -0.2630383 0.0704245 -0.0232785
vn -0.1310186 -5.6580362 1.0194925
v 0.0371143 -0.2294382 0.0131966
vn -1.9377896 -3.2970903 2.6301022
v -0.0170200 -0.2046912 0.0860590
vn -1.3476025 -2.5044746 -3.7822247
v -0.0074503 -0.1862915 -0.1062259
vn 0.6173898 -5.6972408 -0.2289426
v 0.0584334 -0.2295628 -0.0127703
vn -2.6506042 -5.1442323 -1.4910561
v -0.0793106 -0.1913937 -0.0158074
vn -3.3443012 -3.8313460 2.7572584
v -0.0906618 -0.1829842 0.0090287
vn -5.1313090 -0.2970331 2.1506383
v -0.0077136 -0.1029098 0.1102786
vn 4.3451643 2.6329653 3.5352445
v 0.1074545 -0.0006669 0.1316140
vn 5.4831848 1.4815224 1.7410219
v 0.2095506 -0.0649630 0.0555088
vn 2.6439078 2.8269389 4.4281144
v 0.1169082 0.0756807 0.0892359
vn 0.7078426 -5.6694274 -0.3724630
v 0.1088335 -0.2204189 -0.0899638
vn 2.4570925 -5.2747235 -0.8613852
v 0.1297337 -0.2129764 -0.1044006
vn 3.9277811 -4.1031089 -0.6565155
v 0.1503699 -0.2004192 -0.0935798
vn -3.2837658 2.7855098 -4.3670192
v -0.1085417 0.0315574 -0.0995694
vn -2.2055111 3.5000658 -4.2249641
v -0.2505605 0.0703318 -0.0331016
vn -3.6854374 -4.3822474 -2.5868649
v -0.1616603 -0.0916154 -0.0675135
vn -3.5152707 -4.4143662 -2.7524536
v -0.1128172 -0.1323674 -0.0680638
vn -0.3806872 3.5649569 4.9693589
v -0.0031124 0.0740849 0.1029970
vn -2.0591030 2.2700737 5.1038704
v -0.0292957 0.0751990 0.0986569
vn -3.8394513 0.6242225 3.4306216
v -0.0275639 0.0501321 0.1072762
vn -2.3940518 1.1623859 5.2972202
v -0.0914533 0.0853869 0.0610716
vn -2.1082513 4.1534705 3.2133284
v -0.1163612 0.1455306 0.0157458
vn 1.0466923 -0.7228935 -6.1481376
v 0.0561558 0.0255051 -0.0892309
vn 0.8317508 -0.4548834 -6.2063942
v 0.0425693 -0.0042445 -0.0875862
vn 1.1826113 0.6148456 -5.9791675
v 0.0102691 -0.0080920 -0.0913591
vn -3.7881188 -4.5327616 -2.0689754
v -0.2310998 -0.0677236 -0.0090587
vn -2.9075458 -5.0482936 0.3307418
v -0.0869994 -0.1892405 -0.0030419
vn -1.0792432 -3.5796895 -3.8744018
v 0.0923133 -0.2082977 -0.1178709
vn 0.7967722 -2.0960953 5.5322084
v 0.0236659 -0.1049955 0.1572541
vn -1.7053715 -1.8607774 5.1439395
v 0.0009995 -0.0962340 0.1610341
vn -3.3410220 -1.3246090 2.5578685
v -0.0100328 -0.1139497 0.1480240
vn 0.0678424 1.4867435 -6.0996728
v 0.1014654 -0.0381682 -0.0871596
vn 0.3932321 1.0038007 -6.1613879
v 0.0809090 -0.0193436 -0.0831823
vn 0.6882305 0.3222803 -6.1195941
v 0.0958597 0.0040295 -0.0783947
vn -3.4728515 -1.5350891 -4.9660540
v -0.2606278 -0.0122915 -0.0163202
vn -4.2448997 -2.0644577 -3.5910678
v -0.2605345 -0.0261351 -0.0119623
vn 3.8725657 -2.7401040 0.8600540
v 0.2171318 -0.1508486 0.0178730
vn 0.2695760 -5.4724030 0.1870108
v 0.0474957 -0.2313660 0.0000226
vn 3.6924536 -3.9198024 1.7614561
v 0.2059116 -0.1549247 0.0308196
vn -0.8588060 4.8491616 -2.6651623
v 0.0177411 0.1972322 -0.0263490
vn -0.6457219 4.5920963 -0.6255759
v 0.0328666 0.2048136 -0.0143380
vn -3.0899484 -1.4357071 5.1936626
v -0.1645272 -0.0352809 0.0183512
vn -1.6370463 -0.6200597 6.0220308
v -0.1907343 -0.0326263 0.0078464
vn -1.4114431 -0.2268823 6.0894217
v -0.2247988 -0.0393138 -0.0001125
vn -2.3808987 -0.9788421 5.7055860
v -0.1692810 -0.0194302 0.0192886
vn -3.1531925 -0.4660595 5.3123512
v -0.0719436 0.0555651 0.0631030
vn 4.7378502 -2.0127685 -0.1118154
v 0.2211068 -0.1444726 0.0056290
vn 5.6423211 1.3890389 1.9038179
v 0.2099794 -0.0498592 0.0397027
vn 5.6128397 1.0646024 1.8209805
v 0.2113006 -0.0349095 0.0271247
vn 4.2174921 2.2243967 4.0060468
v 0.1220488 0.0916664 0.0759595
vn 1.2433178 4.3797102 -4.3302093
v 0.0488251 0.1442812 -0.0709804
vn 0.3309116 4.0989709 -4.6427336
v 0.0400772 0.1435611 -0.0742204
vn -2.6350725 -2.7390609 3.6651108
v -0.2312312 -0.0677506 -0.0051636
vn -2.4046831 -1.5819249 5.3530550
v -0.1694069 -0.0433096 0.0108876
vn 4.5439868 -2.5048695 1.2917635
v 0.2084049 -0.1296342 0.0777948
vn 3.0294905 0.0010385 -3.1186147
v 0.2112384 -0.0756896 -0.0953433
vn 1.3881955 4.3226089 -4.3407044
v 0.0678391 0.1410351 -0.0688041
vn 0.5344023 2.9281833 5.4883108
v 0.0015496 0.0989455 0.0799927
vn 0.4826289 3.9437389 4.8033490
v 0.0024387 0.0902481 0.0856311
vn -6.2342610 -0.1036737 0.0531486
v -0.0075453 -0.0941268 0.1319362
vn 2.7579584 2.5322008 4.4975686
v 0.1215855 0.1114181 0.0650728
vn 1.0535465 5.2746272 -2.0208552
v 0.0886589 0.2116429 0.0085886
vn 1.3919246 4.3323636 -4.3297405
v 0.0910869 0.1980014 -0.0045116
vn 0.3900438 -0.2185932 -6.1581006
v 0.0114449 -0.0417000 -0.0863028
vn -0.5615525 1.0291132 -6.1449952
v 0.0385097 -0.0673218 -0.0898984
vn 1.2446277 0.3372264 -5.9260464
v 0.0095315 -0.0116903 -0.0927701
vn 0.5190616 -0.7237981 -6.1979418
v 0.0292577 -0.0249823 -0.0871418
vn 0.1996357 0.7769375 5.6608529
v 0.0217866 -0.0447926 0.1663964
vn 0.2991074 -0.7392868 5.9004979
v 0.0103191 -0.0759783 0.1664153
vn 3.2360792 -0.8445665 -4.1514373
v 0.1490348 -0.1834725 -0.1159334
vn -0.2414057 0.6272901 -5.6156693
v -0.0940216 0.0126361 -0.1129452
vn 2.9404523 3.4080133 -0.3260902
v 0.1223779 0.1977724 0.0063305
vn 3.0981045 3.9623134 2.3997707
v 0.1084581 0.2043680 0.0201073
vn 2.5213754 2.5221512 4.5914097
v 0.1063317 0.1886686 0.0333763
vn 0.8077965 -0.7111472 -6.1903276
v 0.0417950 0.0746175 -0.0967469
vn 1.0468587 -0.7041376 -6.1504159
v 0.0564985 0.0720479 -0.0945330
vn -2.7003098 -0.9620642 5.4620471
v -0.0748468 0.0584246 0.0618349
vn -2.7238786 -0.0646388 5.3544183
v -0.0690190 0.0809381 0.0730677
vn -3.2036505 -0.7908740 -5.2814322
v -0.2309097 -0.0343631 -0.0262816
vn -3.4377995 -0.7268972 -5.0384712
v -0.2651119 0.0443989 -0.0306155
vn -3.9341967 -4.6945767 -0.1603221
v -0.2314056 -0.0681132 -0.0071145
vn 2.0399508 -2.9197869 4.3063960
v 0.1767903 -0.1293806 0.1136235
vn -2.5297456 -0.2731010 -5.6362114
v -0.1221685 -0.0604285 -0.0998003
vn -3.1369517 -0.6406423 -5.3497014
v -0.1277721 -0.0776084 -0.0958889
vn -3.5247893 -0.0345169 -5.2012582
v -0.1306349 -0.0594332 -0.0940694
vn 5.2993546 1.5547868 1.4327828
v 0.2098482 -0.0873434 0.0821197
vn -3.3322625 -1.7781451 -4.9902940
v -0.2508247 -0.0326470 -0.0157351
vn -3.9360259 -1.2782695 -4.6047845
v -0.2421416 -0.0459692 -0.0185929
vn -4.3444395 -3.1509743 -2.8243313
v -0.2421973 -0.0557403 -0.0135484
vn -3.6720641 -2.1718020 -3.8393848
v -0.2309816 -0.0577766 -0.0260774
vn -4.4295073 -3.9077566 -1.1490554
v -0.2423215 -0.0587678 -0.0079943
vn -3.2493525 -2.4020760 2.5542562
v -0.2423599 -0.0587757 -0.0068535
vn -2.0775080 -0.7058576 5.8112574
v -0.2404248 -0.0503406 -0.0048026
vn -2.1651111 -0.5007133 5.7626405
v -0.2498030 -0.0339241 -0.0065548
vn -3.5203881 -1.1442589 1.5660471
v -0.2613026 -0.0259621 -0.0104468
vn -2.5026050 0.2644774 -5.5704799
v -0.1109009 0.0025925 -0.1078544
vn -2.7009850 1.3515805 -5.4718552
v -0.1152980 0.0187324 -0.1020304
vn -2.4510818 -1.3392450 5.6074042
v -0.1787432 -0.0276408 0.0125312
vn -4.4101748 -0.0553884 -0.7856019
v -0.2743709 0.0449593 -0.0227807
vn -3.6974368 0.9333873 4.3749895
v -0.2675090 0.0515756 -0.0138310
vn -3.4933722 1.5781800 -0.4350193
v -0.2723672 0.0597018 -0.0241233
vn -3.0225959 1.4040993 -4.8866415
v -0.2614131 0.0591126 -0.0331386
vn -3.1621892 -0.1280074 -5.4128909
v -0.1320687 0.0075020 -0.0935419
vn -2.5513234 1.8061914 -4.9208627
v -0.1033331 0.0315753 -0.1056222
vn -0.6235580 1.0956838 -6.1475334
v 0.0555606 -0.0485193 -0.0890777
vn -0.4225666 1.4496696 -6.0563765
v 0.0722702 -0.0664289 -0.0957839
vn 0.4994718 -0.1717191 -6.1508088
v -0.0901126 -0.0855221 -0.0921355
vn -0.3232382 -0.8929095 -6.0793953
v -0.1170829 -0.0618332 -0.1009678
vn -0.6849056 1.3301260 -5.9334393
v -0.0949646 0.0253460 -0.1089329
vn -3.1897559 -0.8292654 -5.2773948
v -0.1398244 -0.0856050 -0.0876681
vn -3.5797257 -2.2154462 -3.9103034
v -0.1633179 -0.0877306 -0.0717330
vn -3.7946444 -1.7890788 0.5966489
v -0.2510221 -0.0439561 -0.0098535
vn -1.6281656 4.1165204 4.1998119
v -0.0283099 0.1102564 0.0755286
vn -2.5772715 3.2267885 4.4387131
v -0.0652043 0.0990897 0.0687397
vn -3.0916779 -1.1223022 5.3238921
v -0.0633047 0.0722035 0.0736627
vn -3.7646201 -0.5069011 4.9239917
v -0.0498181 0.0685991 0.0821657
vn -4.3106642 -0.1987977 4.1827860
v -0.0368196 0.0670078 0.0951038
vn -4.5238786 -0.9427545 2.8507853
v -0.0288007 0.0461184 0.0908661
vn -0.4278560 3.9530292 4.7261534
v -0.0205081 0.0869487 0.0923171
vn 0.0442301 3.4459171 5.1932688
v -0.0191426 0.0942302 0.0855794
vn -0.4182794 2.8688331 5.4278355
v -0.0224977 0.1033132 0.0815033
vn -1.0737783 3.6895432 4.3176785
v -0.0090161 0.1212593 0.0717146
vn 3.1549222 3.2048848 -0.4614969
v 0.2071831 0.1125801 -0.0475254
vn 3.2211831 3.0383799 -3.4770150
v 0.2127267 0.0990154 -0.0589158
vn 1.5260822 1.7656081 -5.1857085
v 0.1967327 0.0957789 -0.0677584
vn -5.2513475 -0.4736790 2.3137596
v -0.0081421 -0.0930506 0.1536187
vn -5.5213046 -0.4229886 2.2216341
v -0.0091370 -0.0709757 0.1550438
vn -2.3515809 0.6219362 5.1452670
v -0.0005459 -0.0565261 0.1651369
vn -3.8912485 0.7277120 3.0093684
v -0.0134297 -0.0385813 0.1528897
vn 2.7649360 -1.0102156 5.0309687
v 0.1926759 -0.1093246 0.1143234
vn 4.5704527 1.4883348 3.3337226
v 0.2023583 -0.0970122 0.1050961
vn 3.7398698 -3.1582022 3.1599872
v 0.1998773 -0.1221348 0.1020803
vn 5.5818892 -0.5508940 1.6376910
v 0.2095596 -0.1098224 0.0928531
vn 2.0117486 -1.7016138 -5.3138599
v 0.1312353 -0.1964792 -0.1218570
vn 0.1659720 -2.6074300 -5.2617655
v 0.1146220 -0.2037503 -0.1224244
vn 0.4719604 0.4599161 -5.6743093
v 0.1152956 -0.1810405 -0.1272099
vn 3.6058853 -3.3931909 -2.8933401
v 0.1415084 -0.2021551 -0.1120070
vn 0.1733297 -5.1293602 -2.6126451
v 0.1127293 -0.2152840 -0.1115153
vn 0.0264496 1.4469731 -6.1092577
v 0.0739999 -0.0399805 -0.0882755
vn -0.1829611 0.4298345 -6.2285480
v 0.0377453 -0.0412764 -0.0863007
vn 0.8123636 -0.5242632 -6.2026920
v 0.0289134 -0.0151388 -0.0886227
vn 1.0220068 -0.2371901 -6.1762347
v 0.0676382 -0.0006942 -0.0837889
vn 3.1022320 0.4579554 -2.9118073
v 0.2248158 0.0602663 -0.0672217
vn 5.2153945 1.2188447 -1.0194844
v 0.2260208 0.0747823 -0.0572670
vn 2.0154910 0.9876320 -5.6670666
v 0.2109860 0.0877093 -0.0638268
vn 4.8835282 2.6793337 0.9361928
v 0.2158130 0.0989467 -0.0496886
vn 2.3513529 1.5266848 -5.1214137
v 0.2192114 0.0773079 -0.0636696
vn 0.5811943 0.2521817 -6.1346059
v 0.2012399 0.0739786 -0.0642925
vn 0.1195469 3.3225689 -5.2364073
v 0.0396906 0.1231625 -0.0900986
vn -0.6555675 2.9399500 -5.4144373
v 0.0150974 0.1157170 -0.0929463
vn 2.0639448 4.9776258 -2.0475042
v 0.1039929 0.2071016 0.0090101
vn 0.9661788 3.7630787 4.3967404
v 0.0948511 0.2044962 0.0275757
vn -1.6553035 2.5609183 5.4936404
v 0.0421807 -0.0039271 0.1534915
vn 1.9922291 -0.2149859 5.9195876
v 0.0739786 -0.0050101 0.1520162
vn 2.2241609 -0.8143218 5.8196568
v 0.0608585 -0.0200693 0.1549233
vn 0.3078710 0.8994529 5.6492496
v 0.0502098 -0.0127393 0.1600186
vn 0.9924349 -0.1753245 -6.1676874
v 0.0607908 0.0902424 -0.0957305
vn 1.2858766 -0.7054721 -6.1096034
v 0.0707165 0.0748341 -0.0918623
vn 1.2671057 1.7966439 -5.2407961
v 0.0976722 0.1086808 -0.0900972
vn 0.8431740 2.0047247 -5.7898765
v 0.0544349 0.1113510 -0.0942363
vn 0.1618338 1.9905772 -5.7884789
v 0.0339272 0.1082760 -0.0981238
vn -3.1481140 -3.1634295 -4.0245042
v -0.1143572 -0.1184465 -0.0876988
vn -1.7995028 -1.7006881 -4.5278015
v -0.0941850 -0.1269242 -0.0978431
vn -3.3161049 -2.7409937 -3.9897716
v -0.1489115 -0.0950310 -0.0798901
vn 2.6108811 1.2969700 4.5177317
v 0.1066396 -0.0103097 0.1445008
vn -0.8233309 2.6378901 5.5782990
v 0.0564554 0.0149514 0.1489922
vn -1.6379400 2.5967414 5.4818568
v 0.0408391 0.0293211 0.1375882
vn -2.4023416 2.3531728 5.0537362
v -0.0433840 0.0898265 0.0839591
vn 0.0524184 0.6933698 -6.0319138
v 0.0203993 0.0927355 -0.1016203
vn 0.9541322 0.2806631 -6.1132593
v 0.0417467 0.0962382 -0.0992370
vn -3.1957955 -0.5796590 4.8606477
v -0.0026071 -0.0783235 0.1630387
vn 4.6565404 -0.9109852 3.6904488
v 0.2027768 -0.1099647 0.1049629
vn -0.5629415 3.5714233 4.9066067
v 0.0471438 0.0392465 0.1346797
vn 1.8609632 -4.1376057 -3.7876410
v 0.1268371 -0.2084349 -0.1161640
vn 0.3283439 0.3065742 -6.2441626
v 0.0531564 -0.0237753 -0.0858784
vn 4.5187540 2.2524846 -2.3314769
v 0.2201943 0.0882877 -0.0578750
vn 1.5733569 5.3713822 1.2924851
v 0.0969353 0.2105665 0.0176881
vn -0.4721818 2.9768684 5.3483286
v 0.0579091 0.0275966 0.1434824
vn 0.9822749 3.4534833 4.9342241
v 0.0737287 0.0317198 0.1399418
vn -0.2025004 2.1960275 5.6662416
v 0.0592000 0.0026322 0.1555620
vn 1.6992544 0.5575927 5.8143435
v 0.0646706 -0.0020958 0.1559813
vn 1.5735365 0.3626147 5.9309669
v 0.0873876 -0.0021516 0.1489635
vn 3.1113694 2.1836467 4.7101531
v 0.0948462 0.0042986 0.1446091
vn 3.1370339 2.3210657 4.7526183
v 0.0913933 0.0200294 0.1390439
vn 2.3001161 3.0920784 4.3458452
v 0.0948506 0.0433986 0.1254999
vn 1.3618639 2.1250117 5.5849481
v 0.0745931 0.0126241 0.1495203
vn 0.8299763 3.7190411 -4.8714018
v 0.0495692 0.1315287 -0.0836649
vn 1.1540278 3.9006326 -4.7378588
v 0.0577005 0.1307889 -0.0820785
vn 0.9982745 3.3105512 -5.0658326
v 0.0720076 0.1203618 -0.0876777
vn 0.8615306 0.5634688 -6.0424848
v 0.0728503 0.1009720 -0.0944313
vn 1.0556213 -0.1024420 -6.1540785
v 0.0523199 0.0901790 -0.0971612
vn -1.0392588 -0.5240042 -5.9986935
v -0.1077072 -0.1047258 -0.0947492
vn -3.4045842 -3.8416691 -3.4558532
v -0.1341202 -0.1081048 -0.0788154
vn -1.3623731 -1.1719638 -5.6800847
v -0.1238028 -0.0783114 -0.0979094
vn 0.1363950 -1.1384624 -6.1384935
v -0.1144138 -0.0856611 -0.0956644
vn -2.3135891 -2.0018616 -5.3218122
v -0.1273352 -0.0966318 -0.0911280
# 217 vertices, 0 vertices normals

f 1//1 2//2 3//3
f 4//4 5//5 6//6
f 7//7 8//8 9//9
f 10//10 11//11 12//12
f 13//13 14//14 15//15
f 16//16 17//17 18//18
f 19//19 20//20 21//21
f 22//22 8//8 23//23
f 24//24 25//25 26//26
f 27//27 23//23 28//28
f 29//29 30//30 31//31
f 32//32 33//33 34//34
f 2//2 35//35 3//3
f 3//3 35//35 36//36
f 26//26 37//37 38//38
f 39//39 40//40 41//41
f 42//42 16//16 43//43
f 44//44 45//45 46//46
f 47//47 26//26 48//48
f 49//49 32//32 25//25
f 50//50 51//51 52//52
f 53//53 54//54 55//55
f 56//56 57//57 5//5
f 20//20 3//3 36//36
f 25//25 58//58 59//59
f 59//59 60//60 22//22
f 3//3 61//61 1//1
f 61//61 43//43 62//62
f 26//26 59//59 48//48
f 48//48 22//22 27//27
f 63//63 27//27 28//28
f 64//64 6//6 65//65
f 66//66 63//63 67//67
f 68//68 69//69 58//58
f 58//58 30//30 60//60
f 70//70 71//71 69//69
f 69//69 31//31 30//30
f 1//1 72//72 73//73
f 64//64 74//74 75//75
f 76//76 60//60 30//30
f 70//70 68//68 77//77
f 62//62 78//78 72//72
f 1//1 61//61 62//62
f 31//31 79//79 80//80
f 52//52 81//81 28//28
f 82//82 31//31 71//71
f 15//15 83//83 84//84
f 22//22 60//60 8//8
f 24//24 85//85 86//86
f 27//27 22//22 23//23
f 87//87 88//88 85//85
f 89//89 90//90 50//50
f 34//34 91//91 77//77
f 46//46 87//87 92//92
f 93//93 94//94 95//95
f 44//44 96//96 97//97
f 98//98 99//99 42//42
f 100//100 56//56 101//101
f 102//102 48//48 27//27
f 103//103 8//8 60//60
f 25//25 68//68 58//58
f 59//59 58//58 60//60
f 3//3 20//20 61//61
f 61//61 20//20 43//43
f 26//26 25//25 59//59
f 48//48 59//59 22//22
f 19//19 43//43 20//20
f 104//104 105//105 106//106
f 68//68 70//70 69//69
f 58//58 69//69 30//30
f 70//70 82//82 71//71
f 69//69 71//71 31//31
f 9//9 107//107 30//30
f 108//108 57//57 56//56
f 109//109 108//108 100//100
f 110//110 109//109 111//111
f 112//112 110//110 47//47
f 113//113 112//112 102//102
f 114//114 113//113 74//74
f 115//115 114//114 65//65
f 116//116 115//115 6//6
f 57//57 116//116 5//5
f 20//20 36//36 21//21
f 92//92 117//117 118//118
f 119//119 75//75 63//63
f 120//120 121//121 122//122
f 121//121 21//21 122//122
f 101//101 122//122 123//123
f 123//123 21//21 36//36
f 19//19 119//119 66//66
f 121//121 64//64 119//119
f 36//36 118//118 123//123
f 123//123 124//124 101//101
f 111//111 109//109 100//100
f 120//120 5//5 4//4
f 5//5 116//116 6//6
f 2//2 125//125 35//35
f 86//86 126//126 127//127
f 48//48 102//102 47//47
f 102//102 112//112 47//47
f 120//120 101//101 5//5
f 101//101 56//56 5//5
f 63//63 75//75 27//27
f 4//4 6//6 64//64
f 6//6 115//115 65//65
f 64//64 65//65 74//74
f 65//65 114//114 74//74
f 74//74 27//27 75//75
f 67//67 63//63 28//28
f 128//128 129//129 92//92
f 130//130 125//125 2//2
f 101//101 124//124 100//100
f 100//100 108//108 56//56
f 27//27 74//74 102//102
f 74//74 113//113 102//102
f 106//106 131//131 132//132
f 47//47 110//110 111//111
f 108//108 133//133 57//57
f 109//109 133//133 108//108
f 110//110 133//133 109//109
f 112//112 133//133 110//110
f 113//113 133//133 112//112
f 114//114 133//133 113//113
f 115//115 133//133 114//114
f 116//116 133//133 115//115
f 57//57 133//133 116//116
f 117//117 124//124 118//118
f 118//118 35//35 125//125
f 125//125 130//130 118//118
f 130//130 92//92 118//118
f 63//63 66//66 119//119
f 119//119 64//64 75//75
f 120//120 4//4 121//121
f 121//121 19//19 21//21
f 101//101 120//120 122//122
f 123//123 122//122 21//21
f 19//19 121//121 119//119
f 121//121 4//4 64//64
f 36//36 35//35 118//118
f 123//123 118//118 124//124
f 100//100 124//124 111//111
f 47//47 37//37 26//26
f 117//117 129//129 104//104
f 17//17 134//134 18//18
f 135//135 17//17 16//16
f 99//99 135//135 42//42
f 136//136 99//99 98//98
f 137//137 136//136 67//67
f 138//138 137//137 139//139
f 40//40 138//138 41//41
f 140//140 40//40 39//39
f 141//141 140//140 80//80
f 142//142 141//141 79//79
f 134//134 142//142 143//143
f 144//144 145//145 146//146
f 147//147 148//148 81//81
f 51//51 147//147 52//52
f 90//90 51//51 50//50
f 149//149 90//90 89//89
f 148//148 149//149 150//150
f 139//139 28//28 150//150
f 151//151 152//152 9//9
f 153//153 151//151 103//103
f 154//154 153//153 76//76
f 152//152 154//154 107//107
f 103//103 151//151 9//9
f 155//155 156//156 157//157
f 158//158 155//155 91//91
f 33//33 158//158 34//34
f 159//159 33//33 32//32
f 156//156 159//159 49//49
f 127//127 160//160 53//53
f 126//126 160//160 127//127
f 161//161 126//126 86//86
f 88//88 161//161 85//85
f 162//162 88//88 87//87
f 45//45 162//162 46//46
f 163//163 45//45 44//44
f 54//54 163//163 55//55
f 160//160 54//54 53//53
f 164//164 165//165 10//10
f 145//145 166//166 146//146
f 167//167 145//145 144//144
f 11//11 167//167 12//12
f 165//165 11//11 10//10
f 168//168 165//165 164//164
f 166//166 168//168 169//169
f 73//73 170//170 171//171
f 172//172 94//94 93//93
f 83//83 172//172 84//84
f 14//14 83//83 15//15
f 173//173 14//14 13//13
f 94//94 173//173 95//95
f 143//143 142//142 79//79
f 12//12 82//82 70//70
f 70//70 10//10 12//12
f 15//15 62//62 13//13
f 62//62 18//18 13//13
f 18//18 134//134 143//143
f 143//143 13//13 18//18
f 18//18 62//62 16//16
f 62//62 43//43 16//16
f 31//31 80//80 39//39
f 80//80 140//140 39//39
f 34//34 68//68 25//25
f 25//25 32//32 34//34
f 174//174 150//150 89//89
f 150//150 149//149 89//89
f 7//7 175//175 176//176
f 89//89 176//176 177//177
f 43//43 19//19 42//42
f 42//42 135//135 16//16
f 97//97 178//178 179//179
f 180//180 146//146 55//55
f 25//25 24//24 49//49
f 49//49 159//159 32//32
f 52//52 23//23 8//8
f 8//8 50//50 52//52
f 55//55 169//169 164//164
f 169//169 168//168 164//164
f 164//164 77//77 55//55
f 77//77 53//53 55//55
f 67//67 136//136 98//98
f 98//98 66//66 67//67
f 30//30 107//107 76//76
f 107//107 154//154 76//76
f 82//82 79//79 31//31
f 79//79 141//141 80//80
f 28//28 23//23 52//52
f 52//52 147//147 81//81
f 170//170 181//181 182//182
f 62//62 15//15 84//84
f 38//38 183//183 184//184
f 85//85 161//161 86//86
f 132//132 185//185 37//37
f 92//92 87//87 85//85
f 29//29 186//186 9//9
f 77//77 68//68 34//34
f 34//34 158//158 91//91
f 92//92 130//130 46//46
f 46//46 162//162 87//87
f 95//95 82//82 93//93
f 82//82 12//12 93//93
f 12//12 167//167 144//144
f 144//144 93//93 12//12
f 42//42 19//19 66//66
f 66//66 98//98 42//42
f 60//60 76//76 103//103
f 76//76 153//153 103//103
f 174//174 187//187 188//188
f 9//9 152//152 107//107
f 127//127 157//157 86//86
f 157//157 156//156 49//49
f 24//24 157//157 49//49
f 24//24 86//86 157//157
f 28//28 139//139 67//67
f 139//139 137//137 67//67
f 17//17 189//189 134//134
f 135//135 189//189 17//17
f 99//99 189//189 135//135
f 136//136 189//189 99//99
f 137//137 189//189 136//136
f 138//138 189//189 137//137
f 40//40 189//189 138//138
f 140//140 189//189 40//40
f 141//141 189//189 140//140
f 142//142 189//189 141//141
f 134//134 189//189 142//142
f 190//190 191//191 96//96
f 84//84 172//172 93//93
f 146//146 84//84 93//93
f 93//93 144//144 146//146
f 147//147 192//192 148//148
f 51//51 192//192 147//147
f 90//90 192//192 51//51
f 149//149 192//192 90//90
f 148//148 192//192 149//149
f 28//28 81//81 150//150
f 81//81 148//148 150//150
f 150//150 41//41 139//139
f 41//41 138//138 139//139
f 151//151 193//193 152//152
f 153//153 193//193 151//151
f 154//154 193//193 153//153
f 152//152 193//193 154//154
f 39//39 188//188 194//194
f 8//8 103//103 9//9
f 155//155 195//195 156//156
f 158//158 195//195 155//155
f 33//33 195//195 158//158
f 159//159 195//195 33//33
f 156//156 195//195 159//159
f 77//77 91//91 127//127
f 91//91 155//155 157//157
f 77//77 127//127 53//53
f 157//157 127//127 91//91
f 126//126 196//196 160//160
f 161//161 196//196 126//126
f 88//88 196//196 161//161
f 162//162 196//196 88//88
f 45//45 196//196 162//162
f 163//163 196//196 45//45
f 54//54 196//196 163//163
f 160//160 196//196 54//54
f 10//10 70//70 164//164
f 70//70 77//77 164//164
f 145//145 197//197 166//166
f 167//167 197//197 145//145
f 11//11 197//197 167//167
f 165//165 197//197 11//11
f 168//168 197//197 165//165
f 166//166 197//197 168//168
f 84//84 180//180 78//78
f 146//146 166//166 169//169
f 55//55 146//146 169//169
f 55//55 163//163 44//44
f 172//172 198//198 94//94
f 83//83 198//198 172//172
f 14//14 198//198 83//83
f 173//173 198//198 14//14
f 94//94 198//198 173//173
f 82//82 95//95 13//13
f 95//95 173//173 13//13
f 82//82 13//13 143//143
f 82//82 143//143 79//79
f 199//199 200//200 194//194
f 187//187 199//199 188//188
f 201//201 187//187 174//174
f 202//202 201//201 177//177
f 175//175 202//202 176//176
f 203//203 175//175 7//7
f 204//204 203//203 186//186
f 205//205 204//204 29//29
f 200//200 205//205 206//206
f 194//194 206//206 31//31
f 9//9 186//186 7//7
f 186//186 203//203 7//7
f 31//31 206//206 29//29
f 206//206 205//205 29//29
f 89//89 177//177 174//174
f 177//177 201//201 174//174
f 176//176 50//50 7//7
f 50//50 8//8 7//7
f 50//50 176//176 89//89
f 176//176 202//202 177//177
f 9//9 30//30 29//29
f 29//29 204//204 186//186
f 188//188 41//41 150//150
f 150//150 174//174 188//188
f 41//41 188//188 39//39
f 188//188 199//199 194//194
f 199//199 207//207 200//200
f 187//187 207//207 199//199
f 201//201 207//207 187//187
f 202//202 207//207 201//201
f 175//175 207//207 202//202
f 203//203 207//207 175//175
f 204//204 207//207 203//203
f 205//205 207//207 204//204
f 200//200 207//207 205//205
f 31//31 39//39 194//194
f 194//194 200//200 206//206
f 170//170 182//182 171//171
f 208//208 170//170 73//73
f 209//209 208//208 72//72
f 210//210 209//209 78//78
f 211//211 210//210 180//180
f 178//178 211//211 179//179
f 212//212 178//178 97//97
f 191//191 212//212 96//96
f 182//182 191//191 190//190
f 171//171 182//182 190//190
f 208//208 181//181 170//170
f 209//209 181//181 208//208
f 210//210 181//181 209//209
f 211//211 181//181 210//210
f 178//178 181//181 211//211
f 212//212 181//181 178//178
f 191//191 181//181 212//212
f 182//182 181//181 191//191
f 183//183 213//213 184//184
f 214//214 183//183 38//38
f 185//185 214//214 37//37
f 131//131 185//185 132//132
f 105//105 131//131 106//106
f 215//215 105//105 104//104
f 216//216 215//215 129//129
f 213//213 216//216 128//128
f 128//128 85//85 24//24
f 37//37 214//214 38//38
f 62//62 72//72 1//1
f 72//72 208//208 73//73
f 84//84 78//78 62//62
f 78//78 209//209 72//72
f 46//46 96//96 44//44
f 96//96 212//212 97//97
f 106//106 124//124 117//117
f 117//117 104//104 106//106
f 92//92 85//85 128//128
f 128//128 216//216 129//129
f 132//132 111//111 124//124
f 124//124 106//106 132//132
f 92//92 129//129 117//117
f 129//129 215//215 104//104
f 2//2 1//1 171//171
f 1//1 73//73 171//171
f 55//55 44//44 179//179
f 44//44 97//97 179//179
f 55//55 179//179 180//180
f 179//179 211//211 180//180
f 24//24 26//26 184//184
f 26//26 38//38 184//184
f 37//37 47//47 111//111
f 111//111 132//132 37//37
f 96//96 46//46 190//190
f 46//46 130//130 190//190
f 146//146 180//180 84//84
f 180//180 210//210 78//78
f 190//190 130//130 2//2
f 2//2 171//171 190//190
f 183//183 217//217 213//213
f 214//214 217//217 183//183
f 185//185 217//217 214//214
f 131//131 217//217 185//185
f 105//105 217//217 131//131
f 215//215 217//217 105//105
f 216//216 217//217 215//215
f 213//213 217//217 216//216
f 24//24 184//184 128//128
f 184//184 213//213 128//128
# 430 faces, 0 coords texture

# End of File
