####
#
# OBJ File Generated by Meshlab
#
####
# Object rock-4.obj
#
# Vertices: 106
# Faces: 208
#
####
vn -1.8964751 -0.0115512 3.3635185
v -0.2250337 0.0124118 0.0838125
vn -3.8978174 -0.2606843 3.2867236
v -0.2361556 0.0339812 0.0723824
vn -5.9879675 -1.3331088 0.4402104
v -0.2389581 0.0295695 0.0496939
vn -3.4076467 -4.4856563 -2.1330612
v -0.1291876 -0.0947988 -0.0513616
vn -2.7748735 -2.1501255 -4.2111406
v -0.1501845 -0.0418265 -0.1023710
vn -2.1671131 -3.2647774 -4.8566980
v -0.0513691 -0.0920269 -0.1036341
vn 2.6620464 0.6699082 -4.6377554
v 0.1819758 0.0434126 -0.1320368
vn 2.0762451 -1.8327149 -5.4434023
v 0.0699199 -0.0488700 -0.1374441
vn 1.0193028 1.4051607 -5.8154302
v 0.0705671 0.0288649 -0.1479665
vn -1.1236202 2.9269698 4.2508364
v -0.2046486 0.0692805 0.0629655
vn -0.2825912 5.4027429 1.8650455
v 0.0552279 0.1909578 -0.0317215
vn -0.9658749 3.7589316 -2.2191544
v -0.0703196 0.1603223 -0.0945190
vn -3.6005652 -4.6862011 1.3267084
v -0.0845764 -0.1381076 0.0615530
vn -2.5375154 -1.8424205 2.5619926
v -0.1943389 -0.0596857 0.0950917
vn 3.9528980 -0.5338883 4.4837308
v 0.0457839 -0.0219611 0.1622274
vn 1.7510364 -0.5556073 5.5205007
v 0.0268609 -0.0142292 0.1764015
vn 0.5110689 -1.8457241 5.4082608
v 0.0182132 -0.0372319 0.1725464
vn 3.1828113 2.1684506 4.6659489
v 0.1838971 0.1059516 -0.0113013
vn 3.0747936 3.6565433 3.1400242
v 0.1911353 0.1276506 -0.0287016
vn 0.5364251 4.7044735 3.4959505
v 0.0601322 0.1856257 -0.0228525
vn -2.0712593 1.3228751 -4.5951343
v -0.1319329 0.0974357 -0.1135555
vn -3.0864666 3.3503158 -1.4039695
v -0.1946938 0.1057214 -0.0516524
vn 1.7357178 -4.1919327 -2.0042102
v 0.1193844 -0.1828162 -0.0607484
vn -0.3035448 -3.5425653 -4.6790004
v 0.0410753 -0.1465249 -0.1048969
vn 2.0779710 -2.1669240 -4.8782215
v 0.1411958 -0.0820237 -0.1228178
vn -1.7415477 -4.4610491 -1.7026119
v -0.0247053 -0.1872246 -0.0455458
vn -0.6651013 2.4629593 -5.7252688
v -0.0077716 0.0670251 -0.1293821
vn -1.5905727 2.4985864 -5.3921404
v -0.0261573 0.0160905 -0.1548972
vn -2.4345744 0.6745913 -5.3380446
v -0.0805711 0.0105139 -0.1378230
vn -2.5492980 0.4344254 -5.6246967
v -0.1342340 0.0302793 -0.1095427
vn -4.2041521 0.8331973 -3.1602244
v -0.2189203 0.0443300 -0.0606133
vn -2.4387391 -1.9800777 -5.3653002
v -0.0795519 -0.0277647 -0.1291096
vn -2.1324506 -2.9674406 -5.0214739
v -0.0403376 -0.0743236 -0.1158318
vn -0.1414776 -3.3377221 -4.9696140
v 0.0226327 -0.0887717 -0.1361001
vn 0.7042720 -2.5640538 -4.4780903
v 0.0273976 -0.0491053 -0.1721519
vn -4.5019016 -1.9832375 -1.3748341
v -0.2327361 -0.0164558 -0.0249403
vn -2.6591516 -1.0621806 5.1179328
v -0.0999927 -0.0683382 0.1196955
vn -3.7977593 3.9568567 0.3935806
v -0.2332578 0.0667631 0.0465299
vn -2.0600982 3.7499702 3.3089986
v -0.2314191 0.0616331 0.0650134
vn -1.5605243 5.5619516 2.3250039
v -0.2145628 0.0696279 0.0573293
vn 0.9490469 2.8167892 5.4919086
v -0.2112876 0.0262250 0.0748676
vn 4.9814205 -1.9918212 -1.9286088
v 0.2140097 -0.0768843 -0.0478132
vn 4.5272012 -3.4192863 -2.1427510
v 0.2133003 -0.0660364 -0.0596044
vn -0.2470789 0.9642357 5.3456349
v -0.2020292 0.0454943 0.0601397
vn 2.0225804 2.2395465 5.3521132
v -0.2213131 0.0426912 0.0669669
vn 4.4049554 -1.0423167 -1.8735107
v 0.2304921 -0.0332293 -0.0782939
vn -2.8820026 1.3502806 4.8537383
v -0.0242967 0.0150275 0.1297774
vn 0.9556364 3.3545403 3.7713380
v 0.0261142 0.0375817 0.1533506
vn 5.5314865 1.3661783 -2.4708099
v 0.2197545 0.0648775 -0.0616667
vn 5.0266018 1.5058215 -3.2855313
v 0.2009146 0.0491878 -0.1045488
vn -5.5335183 0.2305290 1.6026644
v -0.2404668 0.0450321 0.0631050
vn -5.9270167 1.1303358 -0.6718864
v -0.2397536 0.0501421 0.0432409
vn 4.4262309 0.8764964 3.2879446
v 0.2161306 0.0868780 -0.0300324
vn 4.2389984 2.5451093 3.5738459
v 0.2041531 0.1105335 -0.0295746
vn -0.0280686 2.5620818 -5.6450238
v -0.0106534 0.1044258 -0.1156013
vn -2.3507695 -3.5800662 -4.5631084
v -0.0053861 -0.0547005 -0.1526291
vn 3.0475504 4.5938997 -2.4495571
v 0.1749539 0.1400780 -0.0593246
vn 1.7588760 3.8939416 -4.1638021
v 0.1523706 0.1270134 -0.0941192
vn 1.4192802 4.7793298 -2.6009896
v 0.1031540 0.1760594 -0.0556831
vn 0.7881592 -6.1825218 0.2822308
v 0.0595774 -0.1864662 0.0391657
vn -0.3639650 -5.9934373 1.0594037
v 0.0209614 -0.1881291 0.0680042
vn -1.4799469 -5.8203363 0.3703982
v -0.0071265 -0.1881686 0.0288035
vn -1.5838716 0.5304352 5.2964091
v 0.0075959 -0.0129522 0.1768187
vn -2.5423472 1.2312270 4.6005635
v -0.0199908 -0.0176015 0.1661861
vn -4.6460547 2.2153664 1.7866942
v -0.2387973 0.0559259 0.0621803
vn 1.4785385 3.0808721 -0.4749559
v 0.0612049 0.1940196 -0.0446939
vn -3.3940237 -4.9178348 1.6189973
v -0.0578311 -0.1520591 0.0764294
vn -2.1908467 -4.7143807 2.9716923
v -0.0247177 -0.1599042 0.1114800
vn -2.1609955 -2.5173557 4.1303620
v -0.0456762 -0.1262097 0.1399758
vn 0.0661422 -3.4170735 4.8540955
v -0.0030596 -0.1461777 0.1322441
vn 1.7682183 -3.3384309 4.6166954
v 0.0373036 -0.1604833 0.1132937
vn 1.3222138 -1.9700991 5.5347872
v 0.0161141 -0.1051937 0.1473225
vn -2.1545517 -5.5002847 1.5173994
v -0.0134267 -0.1780515 0.0789184
vn 0.9443945 -5.3441653 2.2397223
v 0.0500337 -0.1842875 0.0816153
vn 2.1227946 -4.0476713 2.9286332
v 0.0921326 -0.1750524 0.0752751
vn 0.9158988 2.6591649 3.7523572
v 0.0269021 0.0211044 0.1689092
vn 3.6967156 1.8657931 4.2236609
v 0.0334163 0.0092454 0.1691563
vn 4.3572788 2.7887819 3.4842250
v 0.0331891 0.0238616 0.1558429
vn -3.2904131 3.3013496 4.0454588
v 0.0095574 0.0185169 0.1598722
vn -3.2483726 3.2844558 4.2183042
v -0.0048549 0.0023541 0.1575407
vn 3.6107829 0.7660190 4.6499639
v 0.0362864 -0.0041758 0.1710263
vn 4.7063808 1.3220352 3.9056735
v 0.0484216 -0.0029074 0.1541944
vn 3.0797024 -2.4831612 1.6228287
v 0.1694248 -0.1610672 0.0351227
vn 4.5579233 -0.5472795 0.3499596
v 0.2186681 -0.0760642 -0.0345793
vn 0.4995327 2.3664808 4.9393358
v -0.2230396 0.0623705 0.0653409
vn 1.8494724 0.0883504 5.7345753
v -0.2193687 0.0553019 0.0631225
vn 0.2011328 2.3364835 5.6742902
v -0.2280511 0.0330016 0.0746239
vn 0.6314545 3.2309325 -5.2159767
v 0.1346468 0.0977388 -0.1180200
vn -2.7936437 -2.8772182 -4.7706747
v -0.0353723 -0.0366158 -0.1490477
vn -2.7067919 -0.5052601 -5.4659667
v -0.0472844 -0.0112810 -0.1520391
vn -0.0347656 3.1518891 -5.4148946
v 0.0180414 0.0217258 -0.1560208
vn 1.8453962 0.4137280 -4.7134132
v 0.0414685 -0.0147691 -0.1764700
vn 5.3376451 -0.1011902 2.8321948
v 0.2142053 -0.0583587 -0.0319132
vn 0.8876558 2.2715135 -5.5634198
v 0.1452737 0.0697856 -0.1320005
vn 3.2581165 2.8321304 -4.1071000
v 0.1793711 0.0912805 -0.1069978
vn 4.4819775 2.7671561 -2.7426915
v 0.2072095 0.1084682 -0.0609743
vn 1.5501984 5.1620870 0.5184976
v 0.0789918 0.1881400 -0.0387957
vn 1.2048950 4.7304506 -3.4044778
v 0.0668136 0.1865505 -0.0479403
vn 5.6567125 0.8411645 0.2545717
v 0.2230684 0.0737921 -0.0458208
vn 4.6443400 2.7816234 -0.0019426
v 0.2121822 0.1115414 -0.0452036
vn 3.1823359 4.6576500 0.2757888
v 0.1842662 0.1389074 -0.0437788
vn -0.3326618 -5.0769429 3.2181060
v 0.0117661 -0.1744489 0.1022237
vn -0.5330854 1.7236987 5.1412778
v 0.0203119 0.0041109 0.1757368
vn -1.2474597 1.4625412 4.5758109
v -0.2333718 0.0497904 0.0709827
vn -1.3443100 -0.0587479 -4.9975405
v -0.0025998 -0.0193239 -0.1774646
vn 4.6517715 -2.1207931 0.5680405
v 0.2262338 -0.0535318 -0.0539282
# 106 vertices, 0 vertices normals

f 1//1 2//2 3//3
f 4//4 5//5 6//6
f 7//7 8//8 9//9
f 10//10 11//11 12//12
f 4//4 13//13 14//14
f 15//15 16//16 17//17
f 18//18 19//19 20//20
f 12//12 21//21 22//22
f 23//23 24//24 25//25
f 6//6 26//26 4//4
f 27//27 28//28 29//29
f 22//22 30//30 31//31
f 6//6 32//32 33//33
f 34//34 35//35 8//8
f 31//31 5//5 36//36
f 13//13 37//37 14//14
f 38//38 39//39 40//40
f 14//14 36//36 4//4
f 41//41 1//1 14//14
f 42//42 25//25 43//43
f 44//44 45//45 41//41
f 4//4 36//36 5//5
f 7//7 46//46 25//25
f 47//47 48//48 10//10
f 49//49 46//46 50//50
f 4//4 26//26 13//13
f 3//3 51//51 52//52
f 53//53 54//54 18//18
f 12//12 55//55 21//21
f 23//23 26//26 24//24
f 6//6 24//24 26//26
f 33//33 56//56 34//34
f 22//22 21//21 30//30
f 32//32 5//5 30//30
f 30//30 21//21 55//55
f 57//57 58//58 59//59
f 31//31 30//30 5//5
f 60//60 61//61 62//62
f 17//17 63//63 64//64
f 52//52 65//65 38//38
f 66//66 55//55 12//12
f 62//62 67//67 13//13
f 67//67 68//68 69//69
f 70//70 71//71 72//72
f 68//68 70//70 69//69
f 73//73 68//68 67//67
f 61//61 73//73 62//62
f 74//74 61//61 60//60
f 71//71 74//74 75//75
f 75//75 74//74 60//60
f 76//76 77//77 78//78
f 79//79 76//76 48//48
f 80//80 79//79 47//47
f 63//63 80//80 64//64
f 16//16 63//63 17//17
f 81//81 16//16 15//15
f 77//77 81//81 82//82
f 83//83 42//42 84//84
f 85//85 86//86 10//10
f 39//39 85//85 40//40
f 65//65 39//39 38//38
f 51//51 65//65 52//52
f 2//2 51//51 3//3
f 87//87 2//2 1//1
f 45//45 87//87 41//41
f 86//86 45//45 44//44
f 59//59 88//88 55//55
f 56//56 35//35 34//34
f 89//89 56//56 33//33
f 90//90 89//89 32//32
f 28//28 90//90 29//29
f 91//91 28//28 27//27
f 92//92 91//91 9//9
f 35//35 92//92 8//8
f 93//93 53//53 18//18
f 94//94 88//88 95//95
f 95//95 49//49 50//50
f 54//54 19//19 18//18
f 58//58 96//96 95//95
f 55//55 9//9 27//27
f 43//43 93//93 42//42
f 97//97 98//98 11//11
f 96//96 99//99 49//49
f 100//100 53//53 99//99
f 96//96 101//101 100//100
f 100//100 19//19 54//54
f 20//20 101//101 97//97
f 101//101 59//59 97//97
f 93//93 99//99 53//53
f 99//99 46//46 49//49
f 83//83 84//84 93//93
f 36//36 14//14 3//3
f 14//14 1//1 3//3
f 9//9 94//94 7//7
f 7//7 25//25 8//8
f 8//8 92//92 9//9
f 66//66 12//12 11//11
f 12//12 40//40 10//10
f 40//40 85//85 10//10
f 17//17 72//72 15//15
f 72//72 71//71 75//75
f 15//15 72//72 75//75
f 75//75 83//83 15//15
f 20//20 48//48 78//78
f 48//48 76//76 78//78
f 78//78 18//18 20//20
f 29//29 30//30 55//55
f 55//55 27//27 29//29
f 5//5 32//32 6//6
f 32//32 89//89 33//33
f 25//25 24//24 8//8
f 24//24 34//34 8//8
f 40//40 12//12 22//22
f 22//22 38//38 40//40
f 14//14 37//37 41//41
f 41//41 87//87 1//1
f 42//42 23//23 25//25
f 41//41 37//37 44//44
f 37//37 64//64 47//47
f 64//64 80//80 47//47
f 47//47 44//44 37//37
f 50//50 46//46 7//7
f 46//46 43//43 25//25
f 44//44 47//47 10//10
f 47//47 79//79 48//48
f 48//48 20//20 11//11
f 11//11 10//10 48//48
f 10//10 86//86 44//44
f 52//52 31//31 36//36
f 36//36 3//3 52//52
f 34//34 24//24 6//6
f 6//6 33//33 34//34
f 30//30 29//29 32//32
f 29//29 90//90 32//32
f 62//62 26//26 60//60
f 26//26 23//23 60//60
f 37//37 69//69 64//64
f 69//69 70//70 72//72
f 64//64 69//69 72//72
f 72//72 17//17 64//64
f 22//22 31//31 38//38
f 31//31 52//52 38//38
f 66//66 98//98 55//55
f 13//13 26//26 62//62
f 62//62 73//73 67//67
f 37//37 13//13 69//69
f 13//13 67//67 69//69
f 70//70 102//102 71//71
f 68//68 102//102 70//70
f 73//73 102//102 68//68
f 61//61 102//102 73//73
f 74//74 102//102 61//61
f 71//71 102//102 74//74
f 23//23 83//83 60//60
f 83//83 75//75 60//60
f 76//76 103//103 77//77
f 79//79 103//103 76//76
f 80//80 103//103 79//79
f 63//63 103//103 80//80
f 16//16 103//103 63//63
f 81//81 103//103 16//16
f 77//77 103//103 81//81
f 83//83 23//23 42//42
f 85//85 104//104 86//86
f 39//39 104//104 85//85
f 65//65 104//104 39//39
f 51//51 104//104 65//65
f 2//2 104//104 51//51
f 87//87 104//104 2//2
f 45//45 104//104 87//87
f 86//86 104//104 45//45
f 55//55 98//98 59//59
f 59//59 58//58 88//88
f 56//56 105//105 35//35
f 89//89 105//105 56//56
f 90//90 105//105 89//89
f 28//28 105//105 90//90
f 91//91 105//105 28//28
f 92//92 105//105 91//91
f 35//35 105//105 92//92
f 18//18 78//78 82//82
f 78//78 77//77 82//82
f 82//82 93//93 18//18
f 88//88 58//58 95//95
f 95//95 50//50 7//7
f 7//7 94//94 95//95
f 95//95 96//96 49//49
f 58//58 57//57 96//96
f 55//55 88//88 9//9
f 88//88 94//94 9//9
f 9//9 91//91 27//27
f 43//43 46//46 106//106
f 106//106 93//93 43//43
f 93//93 84//84 42//42
f 11//11 20//20 97//97
f 97//97 59//59 98//98
f 98//98 66//66 11//11
f 96//96 100//100 99//99
f 100//100 54//54 53//53
f 96//96 57//57 101//101
f 100//100 101//101 19//19
f 20//20 19//19 101//101
f 101//101 57//57 59//59
f 93//93 106//106 99//99
f 99//99 106//106 46//46
f 93//93 82//82 83//83
f 82//82 81//81 15//15
f 83//83 82//82 15//15
# 208 faces, 0 coords texture

# End of File
