####
#
# OBJ File Generated by Meshlab
#
####
# Object rock-3.obj
#
# Vertices: 159
# Faces: 314
#
####
vn 4.6422682 1.9611186 3.5673141
v 0.0462282 0.0543507 0.0569459
vn 4.2722178 2.5652819 3.7532775
v 0.0503378 0.0631827 0.0455508
vn 3.9573758 3.2593863 3.6143029
v 0.0390509 0.0674313 0.0544557
vn 4.6521525 0.3238575 -3.2810373
v 0.1197412 -0.0321061 -0.1236712
vn 2.7360532 -2.5745444 -3.1757076
v 0.1166079 -0.0426316 -0.1247926
vn 2.0217845 0.1232668 -5.4303465
v 0.1088487 -0.0325363 -0.1324469
vn -4.3953471 3.6528308 -1.4905822
v -0.1289693 0.1452746 -0.0117477
vn -4.1422377 2.8023868 1.7863659
v -0.1686909 0.0794993 0.0600109
vn -2.9618964 4.0910039 1.2890863
v -0.1279733 0.1478115 -0.0031949
vn 2.4493883 -3.7727473 -2.9330840
v 0.0707288 -0.1361541 -0.0438162
vn 0.6482404 -4.4526854 -4.3037415
v 0.0598217 -0.1451682 -0.0357313
vn 0.8810844 -3.5549712 -4.9574208
v 0.0487663 -0.1357900 -0.0431750
vn 3.7824664 -4.7971554 1.3606100
v 0.0578997 -0.1504541 0.0052712
vn 3.9472580 -4.7242270 0.4282674
v 0.0644343 -0.1497200 -0.0116662
vn 4.6124787 -4.0095692 0.1262657
v 0.0773436 -0.1370310 -0.0100990
vn -4.5880651 -1.5375617 -2.4079120
v -0.1368155 -0.0452937 -0.1171471
vn -4.3565845 -2.6639597 -2.4245706
v -0.1219172 -0.0620119 -0.1289881
vn -5.0096545 -3.2989187 -0.9777160
v -0.1092300 -0.0769846 -0.1044020
vn 2.4555285 -2.4323456 3.6487191
v 0.0295889 -0.1303518 0.1237600
vn -0.2214334 -4.3095365 1.1162438
v -0.0250789 -0.1926259 0.0632865
vn 3.7731001 -4.4962788 2.0366955
v 0.0436793 -0.1340050 0.0950248
vn -5.4591594 -2.4972398 -0.8970981
v -0.1699182 -0.0578274 0.0008816
vn -5.0598049 -2.4603024 0.2765346
v -0.1593723 -0.0955561 0.0255140
vn -4.7824616 -2.6985343 2.5531054
v -0.1517408 -0.0729473 0.0715820
vn 1.3535148 -4.5582561 -3.4153957
v 0.0314650 -0.1565805 -0.0370967
vn 1.8182131 -5.4194431 -1.9620169
v 0.0448283 -0.1600755 -0.0227591
vn 1.8990660 -5.5852704 -0.4841618
v 0.0368390 -0.1662605 -0.0056045
vn 3.1313393 -5.2476077 0.2607148
v 0.0525708 -0.1582811 -0.0103498
vn 2.0293093 1.5676959 5.7165227
v 0.0774236 0.0387219 0.0331734
vn 2.9545200 1.3019177 5.2795982
v 0.0655339 0.0494198 0.0348500
vn 3.7731891 1.2938989 4.5067549
v 0.0597382 0.0360707 0.0416933
vn 0.4702229 -0.7771473 -5.7557268
v -0.0056666 -0.0266198 -0.1330349
vn -0.9021437 3.6268036 -3.8325291
v -0.0314111 0.1515493 -0.0881974
vn 0.5609449 3.0245383 -4.6314816
v 0.0525330 0.1286900 -0.1052794
vn -0.4830288 5.7508335 -1.5444533
v 0.0133656 0.1920397 -0.0064512
vn 0.9615132 5.2448273 -2.5385263
v 0.0877025 0.1899701 -0.0080940
vn 3.6355782 3.0158730 4.0605707
v 0.0359608 0.0834611 0.0414501
vn 2.7951310 2.6234610 4.8434200
v 0.0498195 0.0798236 0.0328195
vn 1.8778944 1.8712844 5.3701487
v 0.0475485 0.0951366 0.0264841
vn -1.8343538 -2.9617026 -2.9123168
v -0.0984640 -0.0953809 -0.1250168
vn 0.9182472 -0.5241415 -5.5288215
v -0.0703398 -0.0478082 -0.1435367
vn -1.0975642 -3.5803587 -2.7824652
v -0.0763217 -0.1505482 -0.0838516
vn -2.4959979 4.8327870 -1.9949002
v -0.1104132 0.1555934 -0.0215649
vn -2.6033986 2.0871787 -4.4339690
v -0.1192880 0.0570805 -0.1078346
vn -3.7241652 3.9110293 -2.6249721
v -0.1226213 0.1472770 -0.0197387
vn 2.3255358 1.6390245 -5.5739756
v 0.1016037 0.0666139 -0.0328600
vn 3.6966033 1.5690663 -4.4807253
v 0.0809659 0.0631697 -0.0432322
vn 4.3246927 0.3341002 -3.5961049
v 0.0774957 0.0860478 -0.0400832
vn 5.3330021 -2.6744883 -1.6982749
v 0.1229401 -0.0373692 -0.1118036
vn 1.0535793 0.8702044 6.0802450
v 0.0708014 0.0964848 0.0250080
vn 1.7470707 1.0228810 5.9358993
v 0.0913138 0.0722227 0.0214648
vn 3.9003761 1.2603594 3.7634881
v 0.1492070 0.0833806 0.0027403
vn 4.8368039 3.1377463 -2.0210726
v 0.1148134 -0.0245147 -0.1230803
vn 5.9215770 1.2229658 -1.3683420
v 0.0645569 0.1184164 -0.0999879
vn 4.0251479 3.1527941 -0.6888987
v 0.0875394 0.0164504 -0.0813942
vn 3.5974305 0.2950254 4.3479419
v 0.1388976 -0.0463830 0.0359883
vn 3.1561465 0.1288559 5.1718040
v 0.1327799 -0.0559435 0.0399292
vn -4.5697775 -1.1507754 3.2003767
v -0.1537895 -0.0249776 0.1144792
vn -2.0121036 -2.4300108 3.6982861
v -0.0844562 -0.1005649 0.1531643
vn -0.7005590 -1.8151466 5.6830268
v -0.0368776 -0.0165110 0.1826123
vn -3.1188295 -5.2392464 0.7176182
v -0.0704044 -0.1657941 0.0297392
vn -3.4341462 -4.1648316 -1.9424914
v -0.0987842 -0.1461942 -0.0533766
vn -5.6807694 -1.0539936 1.8978070
v -0.1878276 -0.0084950 0.0289900
vn -2.0537052 -0.0546899 5.2574143
v -0.0950703 0.0593563 0.1866084
vn -4.0654283 -0.7248682 4.1034613
v -0.1104901 0.0503304 0.1739263
vn 1.4588842 2.4283566 4.9560785
v -0.0838846 0.0658472 0.1858265
vn -1.2846941 2.9126210 4.8610921
v -0.0941229 0.0700452 0.1835729
vn 3.6796811 1.1258899 4.3495541
v -0.0259320 -0.0037406 0.1808456
vn 1.2635202 1.6104099 5.8934975
v 0.0600240 0.0836381 0.0280037
vn -3.4435973 3.3535755 2.1936169
v -0.1125801 0.0748902 0.1637031
vn -1.6905242 4.6906667 2.9116015
v -0.0968470 0.0767526 0.1761621
vn 0.6949083 5.0778341 2.3514221
v -0.0807563 0.0830469 0.1657849
vn 5.8323565 0.5474970 0.1399587
v 0.0666735 0.0818016 -0.0765917
vn 1.3922845 4.1335058 3.8960328
v -0.0175189 0.1195264 0.0631550
vn -2.1856856 1.5132282 -5.0081930
v -0.1146128 -0.0197193 -0.1353509
vn -3.5443370 -0.0024959 -4.7141171
v -0.1200628 -0.0445078 -0.1362167
vn 5.3585620 -3.1629772 -0.3849875
v 0.1362824 -0.0617876 0.0277964
vn 5.3979802 -2.3955917 -0.9897371
v 0.1713867 -0.0017678 -0.0254574
vn -5.1398869 2.8548977 -1.6590388
v -0.1813837 0.0497953 -0.0183571
vn -5.6687760 1.6649650 1.0022914
v -0.1898105 0.0374922 0.0161198
vn -1.5544013 4.9026241 3.5454516
v -0.1084879 0.1511992 -0.0008171
vn -0.4349458 3.8610923 4.2216029
v 0.0045639 0.1853816 0.0116729
vn -4.5349283 -2.7526350 -1.8289806
v -0.1293261 -0.1291927 -0.0274501
vn -5.0572000 -2.4623969 -2.7411022
v -0.1202907 -0.0994228 -0.0549906
vn -0.5501704 5.2351661 1.7263144
v 0.0124265 0.1925747 0.0036270
vn 2.1361730 3.3493214 0.9606093
v 0.1005505 0.1910998 0.0001910
vn -2.3452003 5.3792839 0.5982020
v -0.1150432 0.1545722 -0.0111073
vn 1.9622025 2.3103187 4.4516225
v 0.0987730 0.1842892 0.0069323
vn 4.5328112 2.0941367 -0.3767917
v 0.1481793 0.0934846 -0.0025876
vn 3.5956502 3.6214919 -3.0173371
v 0.0863827 0.0326458 -0.0582310
vn 2.2256241 3.4347184 -4.4014153
v 0.1100542 0.0319962 -0.0427583
vn 4.8947935 1.0916427 -0.7995851
v 0.1728030 0.0176058 -0.0219128
vn 5.9891796 1.0626298 1.4738884
v 0.1724409 0.0178887 -0.0208919
vn 3.5586565 2.9905193 -4.1439409
v 0.1677915 0.0144054 -0.0287052
vn 4.9815001 0.5133597 -2.4829755
v 0.1713001 0.0057820 -0.0318003
vn 5.5142670 0.4429674 2.1694705
v 0.1726144 0.0112894 -0.0151542
vn 5.7780299 -1.5410473 -1.8036746
v 0.1712099 0.0050794 -0.0314454
vn 3.3076499 1.8462189 -4.9286313
v 0.1420448 0.0938281 -0.0082663
vn 3.5499613 2.3242190 -3.6478755
v 0.1036605 0.1795608 -0.0083383
vn 2.8825464 3.5063622 -4.2154560
v 0.0946781 0.1844143 -0.0099056
vn 2.6514952 4.0644369 -1.7886938
v 0.1005485 0.1910978 0.0001788
vn 2.8767037 2.3326073 -3.8988552
v 0.0607800 0.1258378 -0.1043572
vn 3.7073846 1.4773711 -3.8095677
v 0.1139176 -0.0258469 -0.1289533
vn 4.0819278 1.0508845 -4.2065744
v 0.0953399 0.1714519 -0.0139218
vn 2.8759384 2.5057218 -4.7977581
v 0.0905020 0.0473383 -0.0440156
vn 5.4413567 2.0635850 -0.1548000
v 0.0736768 0.0472335 -0.0681406
vn 5.5518336 0.7889646 -1.9675357
v 0.0707351 0.0676180 -0.0560409
vn 0.8010146 -1.4789603 -5.2065930
v 0.1084571 -0.0330480 -0.1325354
vn -4.7397962 1.8146887 -3.5319741
v -0.1717514 0.0240873 -0.0569138
vn -4.2064099 -4.0452933 -1.4024197
v -0.1637661 -0.0263999 -0.0486859
vn -4.3868146 -2.3269110 -2.4472344
v -0.1731174 -0.0180597 -0.0609493
vn 4.1639743 2.6734905 -3.8507600
v 0.1686921 0.0137773 -0.0281768
vn 4.6430845 2.3999698 -3.0591209
v 0.0778906 0.0500489 -0.0536810
vn -3.7648220 1.7095129 3.9179668
v -0.1055559 0.0671702 0.1785467
vn 1.2475544 4.2154579 3.7599230
v -0.0850493 0.0760500 0.1783744
vn 3.5071273 3.4788666 3.7565911
v -0.0722997 0.0724916 0.1712563
vn -3.4636738 -3.0009742 -2.7182901
v -0.1106844 -0.0766821 -0.1312931
vn -0.0511028 -2.2120137 -5.4172502
v -0.0958626 -0.0674051 -0.1409193
vn -0.7769166 0.4761811 -5.8292370
v -0.1005925 -0.0452443 -0.1439460
vn 3.9921014 -4.5201325 1.7059400
v 0.0524302 -0.1296255 0.0862786
vn 3.8121228 -2.0798254 3.2696769
v 0.0591941 -0.1215611 0.0915133
vn 4.4123893 -1.6705993 3.2358761
v 0.0442066 -0.1257640 0.1076706
vn 4.0576429 1.2980293 4.4116087
v 0.0519494 -0.1156057 0.0952458
vn 1.5495231 -0.5138162 5.3037233
v -0.0314802 -0.0093666 0.1846669
vn 0.2441281 0.3967820 5.7968717
v -0.0842179 0.0566414 0.1882928
vn 1.8942680 -4.1886973 -4.1297040
v 0.0483217 -0.1511509 -0.0337632
vn 2.5940659 -4.1878862 -2.4035959
v 0.0666366 -0.1449260 -0.0352338
vn 4.3931036 -4.2673545 -0.7727458
v 0.0685740 -0.1451829 -0.0253582
vn 5.1264410 -3.4636972 -1.0958171
v 0.0720335 -0.1349633 -0.0414763
vn 3.3708184 0.6348013 4.9592996
v 0.1317530 -0.0566174 0.0405926
vn 5.4873524 -2.4516313 0.2324714
v 0.1326578 -0.0692558 0.0344444
vn -5.2864261 1.9448402 -2.4327874
v -0.1895940 0.0221703 -0.0310411
vn -2.5010917 -1.4526274 -5.2765188
v -0.1103190 -0.0596792 -0.1393665
vn 2.7979097 -5.1065350 -1.7486753
v 0.0584414 -0.1526984 -0.0249176
vn 4.0607734 1.2307787 3.7723632
v 0.1304660 -0.0682511 0.0450040
vn 2.0269248 1.2177087 5.8036857
v 0.0747823 0.0600085 0.0289252
vn 1.7880834 1.0426978 5.9201417
v 0.0728426 0.0769268 0.0265336
vn 3.6445417 3.3155129 3.8799338
v 0.0473306 0.0717089 0.0410122
vn 4.6176443 1.2571045 4.0308447
v 0.0563970 0.0539974 0.0418128
vn 2.9986551 1.8929384 5.0938811
v 0.0600955 0.0670727 0.0338521
vn 3.9628386 -0.4509613 1.9953901
v 0.1308172 -0.0689202 0.0448563
vn 5.0924077 -2.4807565 0.6658151
v 0.1322478 -0.0703828 0.0360889
vn -4.9231911 -2.1837378 -0.2423603
v -0.1958915 -0.0160862 -0.0030200
vn -4.5047092 -3.6525235 -1.7989124
v -0.1805608 -0.0195644 -0.0213378
vn -5.3305731 -2.8133376 -0.9957771
v -0.1750944 -0.0457410 -0.0023217
vn -5.9872737 0.2500932 1.0714247
v -0.1967708 0.0090237 0.0042176
vn -5.7378149 1.7576659 -0.5906326
v -0.1948835 0.0260966 -0.0096500
vn -5.0468030 0.6640401 -3.2398639
v -0.1883507 0.0020450 -0.0441464
vn -4.0726123 -2.3992503 -1.5984629
v -0.1887856 -0.0133337 -0.0432209
vn -4.0574541 -3.7821126 2.5855453
v -0.1372072 -0.1102822 0.0515939
vn -3.9359558 -4.0636578 2.6430533
v -0.1059560 -0.1106029 0.0836549
vn -3.2027681 -4.7035141 2.2030222
v -0.1133844 -0.1374764 0.0393385
vn -5.3928747 -2.3595994 -2.0974317
v -0.1418775 -0.1015447 -0.0071253
vn -3.1534922 -5.1763296 -0.0471124
v -0.1112838 -0.1479009 -0.0007971
vn -5.6286163 -0.7178259 -1.1688405
v -0.1967039 0.0011508 -0.0220075
vn -4.5861168 -3.7731068 0.0948373
v -0.1377780 -0.1246705 0.0130481
vn 5.2918744 0.9695163 -1.7294747
v 0.1733937 0.0104346 -0.0253189
vn 5.6475043 -1.0503256 0.6993518
v 0.1735746 0.0034001 -0.0191810
vn 4.6564150 -1.7985792 2.6972306
v 0.1375515 -0.0581965 0.0354597
# 159 vertices, 0 vertices normals

f 1//1 2//2 3//3
f 4//4 5//5 6//6
f 7//7 8//8 9//9
f 10//10 11//11 12//12
f 13//13 14//14 15//15
f 16//16 17//17 18//18
f 19//19 20//20 21//21
f 22//22 23//23 24//24
f 25//25 26//26 27//27
f 27//27 28//28 13//13
f 29//29 30//30 31//31
f 32//32 33//33 34//34
f 34//34 35//35 36//36
f 37//37 38//38 39//39
f 32//32 40//40 41//41
f 18//18 40//40 42//42
f 43//43 44//44 45//45
f 46//46 47//47 48//48
f 10//10 5//5 49//49
f 50//50 51//51 52//52
f 53//53 54//54 55//55
f 44//44 7//7 45//45
f 56//56 29//29 57//57
f 6//6 32//32 34//34
f 58//58 59//59 60//60
f 43//43 35//35 33//33
f 61//61 62//62 42//42
f 63//63 58//58 8//8
f 60//60 64//64 65//65
f 66//66 67//67 64//64
f 68//68 31//31 1//1
f 39//39 69//69 50//50
f 70//70 71//71 72//72
f 48//48 73//73 54//54
f 3//3 37//37 74//74
f 75//75 76//76 16//16
f 19//19 60//60 59//59
f 77//77 49//49 78//78
f 79//79 80//80 8//8
f 81//81 8//8 74//74
f 74//74 82//82 81//81
f 62//62 83//83 84//84
f 32//32 44//44 33//33
f 36//36 85//85 86//86
f 7//7 9//9 87//87
f 88//88 89//89 86//86
f 55//55 90//90 91//91
f 92//92 52//52 93//93
f 94//94 95//95 4//4
f 93//93 52//52 96//96
f 49//49 95//95 97//97
f 89//89 98//98 99//99
f 85//85 88//88 86//86
f 43//43 85//85 35//35
f 87//87 82//82 85//85
f 42//42 12//12 25//25
f 100//100 101//101 99//99
f 6//6 102//102 103//103
f 103//103 54//54 53//53
f 104//104 102//102 100//100
f 100//100 34//34 36//36
f 34//34 33//33 35//35
f 90//90 105//105 91//91
f 106//106 90//90 55//55
f 107//107 106//106 73//73
f 47//47 107//107 48//48
f 105//105 47//47 46//46
f 91//91 46//46 98//98
f 4//4 49//49 5//5
f 5//5 108//108 6//6
f 6//6 103//103 4//4
f 103//103 53//53 4//4
f 109//109 44//44 16//16
f 43//43 33//33 44//44
f 48//48 104//104 98//98
f 104//104 99//99 98//98
f 98//98 46//46 48//48
f 54//54 73//73 55//55
f 73//73 106//106 55//55
f 16//16 110//110 111//111
f 6//6 108//108 32//32
f 54//54 104//104 48//48
f 48//48 107//107 73//73
f 81//81 9//9 8//8
f 86//86 101//101 36//36
f 36//36 35//35 85//85
f 9//9 81//81 87//87
f 87//87 43//43 45//45
f 45//45 7//7 87//87
f 88//88 52//52 89//89
f 91//91 94//94 55//55
f 94//94 53//53 55//55
f 94//94 98//98 89//89
f 94//94 92//92 112//112
f 4//4 53//53 94//94
f 101//101 86//86 99//99
f 86//86 89//89 99//99
f 85//85 82//82 88//88
f 43//43 87//87 85//85
f 87//87 81//81 82//82
f 32//32 108//108 5//5
f 99//99 104//104 100//100
f 100//100 36//36 101//101
f 6//6 34//34 102//102
f 103//103 102//102 54//54
f 104//104 54//54 102//102
f 100//100 102//102 34//34
f 90//90 113//113 105//105
f 106//106 113//113 90//90
f 107//107 113//113 106//106
f 47//47 113//113 107//107
f 105//105 113//113 47//47
f 98//98 94//94 91//91
f 91//91 105//105 46//46
f 64//64 114//114 65//65
f 115//115 66//66 116//116
f 71//71 115//115 72//72
f 114//114 71//71 70//70
f 65//65 114//114 70//70
f 117//117 118//118 40//40
f 17//17 117//117 18//18
f 76//76 17//17 16//16
f 119//119 76//76 75//75
f 118//118 119//119 41//41
f 75//75 44//44 32//32
f 120//120 121//121 122//122
f 123//123 124//124 122//122
f 124//124 19//19 122//122
f 60//60 125//125 64//64
f 125//125 68//68 66//66
f 28//28 14//14 13//13
f 26//26 28//28 27//27
f 126//126 26//26 25//25
f 11//11 126//126 12//12
f 127//127 11//11 10//10
f 128//128 127//127 129//129
f 14//14 128//128 15//15
f 130//130 29//29 31//31
f 12//12 32//32 5//5
f 5//5 10//10 12//12
f 131//131 15//15 129//129
f 121//121 120//120 13//13
f 15//15 121//121 13//13
f 19//19 59//59 20//20
f 27//27 20//20 25//25
f 20//20 42//42 25//25
f 13//13 120//120 21//21
f 21//21 20//20 13//13
f 20//20 27//27 13//13
f 66//66 68//68 116//116
f 42//42 40//40 32//32
f 40//40 118//118 41//41
f 110//110 84//84 22//22
f 18//18 117//117 40//40
f 49//49 129//129 10//10
f 129//129 127//127 10//10
f 65//65 58//58 60//60
f 64//64 125//125 66//66
f 129//129 77//77 131//131
f 74//74 72//72 116//116
f 72//72 115//115 116//116
f 74//74 8//8 72//72
f 8//8 70//70 72//72
f 109//109 132//132 79//79
f 44//44 75//75 16//16
f 32//32 12//12 42//42
f 12//12 126//126 25//25
f 64//64 67//67 114//114
f 115//115 67//67 66//66
f 71//71 67//67 115//115
f 114//114 67//67 71//71
f 70//70 8//8 58//58
f 58//58 65//65 70//70
f 117//117 133//133 118//118
f 17//17 133//133 117//117
f 76//76 133//133 17//17
f 119//119 133//133 76//76
f 118//118 133//133 119//119
f 32//32 41//41 75//75
f 41//41 119//119 75//75
f 121//121 123//123 122//122
f 122//122 19//19 21//21
f 21//21 120//120 122//122
f 123//123 68//68 124//124
f 124//124 60//60 19//19
f 60//60 124//124 125//125
f 125//125 124//124 68//68
f 28//28 134//134 14//14
f 26//26 134//134 28//28
f 126//126 134//134 26//26
f 11//11 134//134 126//126
f 127//127 134//134 11//11
f 128//128 134//134 127//127
f 14//14 134//134 128//128
f 121//121 135//135 123//123
f 15//15 128//128 129//129
f 136//136 30//30 29//29
f 137//137 136//136 51//51
f 69//69 137//137 50//50
f 38//38 69//69 39//39
f 138//138 38//38 37//37
f 2//2 138//138 3//3
f 139//139 2//2 1//1
f 30//30 139//139 31//31
f 51//51 136//136 29//29
f 116//116 68//68 3//3
f 68//68 1//1 3//3
f 49//49 97//97 78//78
f 123//123 130//130 31//31
f 82//82 74//74 39//39
f 74//74 37//37 39//39
f 52//52 88//88 50//50
f 50//50 137//137 51//51
f 123//123 31//31 68//68
f 31//31 139//139 1//1
f 50//50 88//88 39//39
f 88//88 82//82 39//39
f 74//74 116//116 3//3
f 3//3 138//138 37//37
f 136//136 140//140 30//30
f 137//137 140//140 136//136
f 69//69 140//140 137//137
f 38//38 140//140 69//69
f 138//138 140//140 38//38
f 2//2 140//140 138//138
f 139//139 140//140 2//2
f 30//30 140//140 139//139
f 141//141 15//15 142//142
f 52//52 51//51 29//29
f 143//143 144//144 145//145
f 146//146 143//143 63//63
f 147//147 146//146 80//80
f 132//132 147//147 79//79
f 148//148 132//132 109//109
f 149//149 148//148 111//111
f 144//144 149//149 110//110
f 24//24 150//150 151//151
f 150//150 152//152 151//151
f 23//23 150//150 24//24
f 153//153 23//23 22//22
f 83//83 153//153 84//84
f 154//154 83//83 62//62
f 152//152 154//154 61//61
f 151//151 61//61 20//20
f 58//58 63//63 24//24
f 63//63 143//143 145//145
f 24//24 63//63 22//22
f 145//145 22//22 63//63
f 42//42 20//20 61//61
f 61//61 154//154 62//62
f 8//8 80//80 63//63
f 80//80 146//146 63//63
f 8//8 7//7 79//79
f 79//79 147//147 80//80
f 18//18 42//42 84//84
f 42//42 62//62 84//84
f 16//16 111//111 109//109
f 111//111 148//148 109//109
f 18//18 110//110 16//16
f 110//110 149//149 111//111
f 110//110 18//18 84//84
f 84//84 153//153 22//22
f 22//22 145//145 110//110
f 145//145 144//144 110//110
f 7//7 44//44 79//79
f 44//44 109//109 79//79
f 143//143 155//155 144//144
f 146//146 155//155 143//143
f 147//147 155//155 146//146
f 132//132 155//155 147//147
f 148//148 155//155 132//132
f 149//149 155//155 148//148
f 144//144 155//155 149//149
f 151//151 59//59 58//58
f 58//58 24//24 151//151
f 150//150 156//156 152//152
f 23//23 156//156 150//150
f 153//153 156//156 23//23
f 83//83 156//156 153//153
f 154//154 156//156 83//83
f 152//152 156//156 154//154
f 20//20 59//59 151//151
f 151//151 152//152 61//61
f 142//142 131//131 135//135
f 112//112 92//92 157//157
f 78//78 157//157 158//158
f 157//157 96//96 158//158
f 56//56 158//158 96//96
f 158//158 77//77 78//78
f 52//52 56//56 96//96
f 56//56 52//52 29//29
f 92//92 89//89 52//52
f 94//94 112//112 95//95
f 49//49 4//4 95//95
f 94//94 89//89 92//92
f 130//130 57//57 29//29
f 131//131 142//142 15//15
f 129//129 49//49 77//77
f 121//121 141//141 135//135
f 123//123 135//135 130//130
f 141//141 121//121 15//15
f 131//131 77//77 159//159
f 159//159 56//56 57//57
f 57//57 130//130 159//159
f 130//130 135//135 131//131
f 159//159 130//130 131//131
f 135//135 141//141 142//142
f 92//92 93//93 157//157
f 157//157 97//97 95//95
f 95//95 112//112 157//157
f 78//78 97//97 157//157
f 157//157 93//93 96//96
f 56//56 159//159 158//158
f 158//158 159//159 77//77
# 314 faces, 0 coords texture

# End of File
