####
#
# OBJ File Generated by Meshlab
#
####
# Object rock-6.obj
#
# Vertices: 79
# Faces: 154
#
####
vn 0.8244621 -5.3210330 -0.0798664
v 0.1012110 -0.1984602 0.0429416
vn 0.1494817 -4.7503047 -1.0831532
v 0.0077715 -0.2046388 -0.1408841
vn 3.7103243 -4.5878754 -2.0684888
v 0.1112038 -0.1422201 -0.1078849
vn -3.6564131 2.1564639 -0.1441941
v -0.2500299 0.1209448 -0.0342673
vn -3.7036960 -2.9575598 0.8457507
v -0.2277014 -0.0919810 -0.0064158
vn -4.2564564 0.3475804 2.6652796
v -0.2320684 0.0301420 0.0788138
vn 3.9920468 1.7230684 4.5322118
v 0.1176347 -0.1333115 0.0883050
vn 4.1227193 1.8405056 4.3499212
v 0.0772123 0.0748398 0.0442768
vn 0.6086114 -1.4329023 3.9704719
v -0.0559521 -0.0401286 0.1976847
vn 3.4659009 4.4381385 -2.1479719
v -0.0867780 0.1981663 -0.1315357
vn 3.2550662 4.5906305 -2.1021838
v 0.0011371 0.0714711 -0.1439501
vn 1.7436810 2.2236962 -4.2746458
v -0.0401680 0.1037924 -0.1758817
vn 0.4790595 1.3906146 -5.8092427
v -0.0360458 0.0669277 -0.1846156
vn -0.6180152 0.2718270 -6.1257772
v -0.0596221 0.0370198 -0.1860115
vn -0.3445854 -5.6366534 1.8414791
v 0.1038077 -0.1916322 0.0790777
vn -2.1689496 -5.3303680 2.2538538
v 0.0696162 -0.1785369 0.0833928
vn -3.0758734 4.6661124 2.2274809
v -0.0894588 0.1709992 0.0884734
vn 4.7557163 0.6127048 -0.3152857
v 0.2029065 -0.1120913 -0.0050075
vn 3.3746407 2.2977080 -1.2163595
v 0.1546830 0.0470413 -0.0686839
vn 2.4965539 4.0296497 1.2255971
v 0.0794692 0.1023203 0.0259431
vn 3.9483786 -0.7422535 4.1094632
v 0.1367970 -0.1688862 0.0843843
vn 3.2099710 -1.9458818 1.4859962
v 0.1658248 -0.1660256 0.0561474
vn -2.9687197 3.9602163 -1.8755412
v -0.1125442 0.1955470 -0.1315137
vn -4.2141457 -1.4081961 -1.7805630
v -0.2253119 -0.0540846 -0.1573958
vn 3.1472681 -4.4763894 1.0801634
v 0.1387263 -0.1825227 0.0698199
vn 3.0803964 -5.1875763 -1.6311462
v 0.1242216 -0.1798695 0.0385789
vn 4.9224639 1.3411304 3.2424874
v 0.0612354 0.1017540 0.0475088
vn 4.1886983 2.3212597 1.6490119
v 0.0374209 0.1426823 0.0802395
vn 0.7215375 1.2961721 4.1720581
v -0.0459600 0.1064381 0.1757566
vn 0.1306598 -4.2382007 3.5741942
v 0.0985708 -0.1795008 0.1032963
vn 0.8456258 -1.6328615 3.8521962
v 0.0833311 -0.1570409 0.1256292
vn 2.6246221 0.1705036 -5.5416775
v 0.0096157 0.0209232 -0.1782341
vn 2.6266756 3.2991078 -3.5240242
v 0.0242645 0.0584470 -0.1609832
vn 3.6314824 4.7292233 -0.5882603
v 0.0650868 0.1058596 0.0226911
vn 4.3350115 -2.5212290 -3.4652483
v 0.1109296 -0.1319431 -0.1245165
vn 3.2927945 -2.8749285 -4.1352801
v 0.1000428 -0.1375041 -0.1320789
vn 3.0119135 -0.7367732 -5.0453577
v 0.1006787 -0.1225581 -0.1378274
vn 4.7670875 3.3603644 -0.8629299
v 0.0606196 0.1145018 0.0263823
vn 0.7053061 5.2886820 0.1159655
v -0.0408456 0.1977093 0.0519735
vn 3.3283982 2.0123448 3.8758867
v -0.0081114 0.1535980 0.1356628
vn -0.9437071 3.2464874 4.5144186
v -0.0453983 0.1519890 0.1481448
vn 2.9653940 4.6196184 1.2857141
v -0.0066134 0.1803307 0.0994075
vn -0.6524414 5.3726201 1.8579332
v -0.0437756 0.1886245 0.1018192
vn -2.4610689 4.2553205 3.4632337
v -0.0581388 0.1708985 0.1225801
vn -3.6017036 3.1884575 3.9857810
v -0.0898847 0.1371889 0.1228557
vn -3.3129525 -3.7554858 3.5017469
v -0.1133068 -0.0257835 0.1768448
vn -3.7962618 -0.0038142 4.1373177
v -0.1227622 -0.0021554 0.1832273
vn -3.1561306 -1.8069057 4.5483332
v -0.1062040 -0.0131502 0.1945294
vn -2.1329041 0.9890494 5.2478590
v -0.0946830 0.0032467 0.2016149
vn -1.5728136 -2.8950093 4.6502090
v -0.0866357 -0.0242723 0.1987639
vn 2.0093362 0.2306280 5.4557657
v -0.0714228 -0.0140194 0.2007965
vn 2.1978998 0.2615028 5.3469915
v -0.0767003 0.0065791 0.2017781
vn 4.3635302 0.6803056 4.2958412
v -0.0613661 0.0092219 0.1837842
vn 0.6188416 1.0232646 4.2666254
v -0.0739715 0.0301992 0.2010363
vn 3.2633908 -0.7309107 4.6487694
v 0.1126352 -0.1662546 0.1047351
vn 2.1513078 -5.4881206 0.2367890
v 0.1198014 -0.1920225 0.0659520
vn 3.6330903 3.4052484 3.1994328
v 0.0751391 0.0969681 0.0359289
vn 4.2928352 -0.3511464 -4.2415195
v 0.1135752 -0.1166967 -0.1274606
vn 4.0115647 -0.6764113 0.2014546
v 0.2042705 -0.1272144 0.0034281
vn 0.3665140 0.1252241 -6.1714067
v -0.0279737 0.0402016 -0.1868359
vn 3.5143216 3.0642893 -3.8795426
v -0.0182498 0.0770182 -0.1722961
vn 2.7508788 4.2768717 -3.4133945
v 0.0006221 0.0637369 -0.1679325
vn 2.6277452 1.8979791 -5.0932522
v 0.0031054 0.0489317 -0.1779740
vn 1.5142275 0.3427719 -5.9141569
v -0.0076944 0.0354870 -0.1845579
vn 0.7847698 -0.6878287 -6.1318460
v -0.0126083 0.0125438 -0.1834620
vn -1.1696014 3.7450752 -3.1347837
v -0.0996845 0.1981992 -0.1403842
vn 0.4948776 5.0234222 -0.7645317
v -0.0925513 0.2034775 -0.1270551
vn 0.0428097 -3.4648154 -2.9555728
v 0.0049528 -0.1999408 -0.1519025
vn -2.9540505 -1.0693793 -2.8570366
v -0.2197940 -0.0542990 -0.1678196
vn 0.5482533 -1.7702042 -5.5944099
v 0.0028416 -0.1858754 -0.1580204
vn -1.7095361 -0.1066053 -5.3921881
v -0.2080006 -0.0488833 -0.1729727
vn 3.8540437 -4.1519308 -2.3349273
v 0.1050327 -0.1430167 -0.1196673
vn 0.9302117 2.7869468 -3.6593106
v -0.0906046 0.1926827 -0.1462627
vn 3.3687465 -1.5848861 0.9105268
v 0.1996970 -0.1377657 0.0134062
vn 4.4214249 1.5638647 0.8788101
v 0.0624812 0.1171226 0.0476576
vn 0.9215019 4.4362502 3.4973509
v -0.0282510 0.1747238 0.1270272
vn -0.7647300 -0.7439411 5.8527274
v -0.0876457 -0.0091315 0.2029186
vn 2.3749888 -4.0286512 3.1956961
v 0.1212479 -0.1841187 0.0888031
vn 1.9202863 2.0305748 -5.4527187
v -0.0148946 0.0570402 -0.1817279
# 79 vertices, 0 vertices normals

f 1//1 2//2 3//3
f 4//4 5//5 6//6
f 7//7 8//8 9//9
f 10//10 11//11 12//12
f 12//12 13//13 14//14
f 1//1 15//15 16//16
f 17//17 4//4 6//6
f 18//18 19//19 20//20
f 7//7 21//21 22//22
f 23//23 24//24 4//4
f 22//22 25//25 26//26
f 27//27 28//28 29//29
f 16//16 30//30 31//31
f 19//19 32//32 33//33
f 4//4 24//24 5//5
f 34//34 20//20 19//19
f 35//35 36//36 37//37
f 38//38 39//39 28//28
f 17//17 39//39 23//23
f 40//40 41//41 29//29
f 42//42 40//40 28//28
f 43//43 42//42 39//39
f 44//44 43//43 17//17
f 41//41 44//44 45//45
f 6//6 46//46 47//47
f 48//48 49//49 47//47
f 50//50 48//48 46//46
f 51//51 50//50 9//9
f 52//52 51//51 53//53
f 49//49 52//52 54//54
f 45//45 47//47 54//54
f 30//30 55//55 31//31
f 15//15 30//30 16//16
f 56//56 15//15 1//1
f 25//25 56//56 26//26
f 21//21 25//25 22//22
f 55//55 21//21 7//7
f 27//27 57//57 34//34
f 18//18 35//35 58//58
f 59//59 3//3 35//35
f 8//8 59//59 57//57
f 57//57 18//18 20//20
f 58//58 19//19 18//18
f 13//13 60//60 14//14
f 61//61 13//13 12//12
f 62//62 61//61 11//11
f 63//63 62//62 33//33
f 64//64 63//63 32//32
f 60//60 64//64 65//65
f 5//5 24//24 2//2
f 66//66 67//67 10//10
f 24//24 68//68 2//2
f 69//69 70//70 68//68
f 23//23 69//69 24//24
f 66//66 71//71 69//69
f 70//70 36//36 68//68
f 36//36 2//2 68//68
f 14//14 60//60 65//65
f 2//2 72//72 3//3
f 3//3 26//26 1//1
f 26//26 56//56 1//1
f 27//27 53//53 8//8
f 53//53 51//51 9//9
f 7//7 9//9 31//31
f 53//53 9//9 8//8
f 31//31 55//55 7//7
f 34//34 11//11 38//38
f 11//11 61//61 12//12
f 38//38 11//11 10//10
f 12//12 73//73 10//10
f 71//71 73//73 14//14
f 73//73 12//12 14//14
f 16//16 5//5 2//2
f 2//2 1//1 16//16
f 70//70 65//65 37//37
f 65//65 64//64 32//32
f 37//37 65//65 32//32
f 6//6 45//45 17//17
f 45//45 44//44 17//17
f 22//22 74//74 7//7
f 74//74 8//8 7//7
f 26//26 3//3 74//74
f 74//74 22//22 26//26
f 29//29 54//54 53//53
f 54//54 52//52 53//53
f 53//53 27//27 29//29
f 27//27 75//75 28//28
f 28//28 40//40 29//29
f 31//31 9//9 16//16
f 9//9 50//50 46//46
f 16//16 9//9 46//46
f 46//46 5//5 16//16
f 19//19 58//58 32//32
f 58//58 37//37 32//32
f 32//32 63//63 33//33
f 19//19 33//33 11//11
f 33//33 62//62 11//11
f 11//11 34//34 19//19
f 35//35 3//3 72//72
f 37//37 58//58 35//35
f 35//35 72//72 36//36
f 67//67 39//39 10//10
f 39//39 42//42 28//28
f 10//10 39//39 38//38
f 28//28 75//75 38//38
f 4//4 17//17 23//23
f 17//17 43//43 39//39
f 23//23 39//39 67//67
f 40//40 76//76 41//41
f 42//42 76//76 40//40
f 43//43 76//76 42//42
f 44//44 76//76 43//43
f 41//41 76//76 44//44
f 5//5 46//46 6//6
f 46//46 48//48 47//47
f 48//48 77//77 49//49
f 50//50 77//77 48//48
f 51//51 77//77 50//50
f 52//52 77//77 51//51
f 49//49 77//77 52//52
f 54//54 29//29 45//45
f 29//29 41//41 45//45
f 45//45 6//6 47//47
f 54//54 47//47 49//49
f 30//30 78//78 55//55
f 15//15 78//78 30//30
f 56//56 78//78 15//15
f 25//25 78//78 56//56
f 21//21 78//78 25//25
f 55//55 78//78 21//21
f 27//27 8//8 57//57
f 57//57 20//20 34//34
f 34//34 38//38 27//27
f 38//38 75//75 27//27
f 18//18 59//59 35//35
f 59//59 74//74 3//3
f 8//8 74//74 59//59
f 57//57 59//59 18//18
f 13//13 79//79 60//60
f 61//61 79//79 13//13
f 62//62 79//79 61//61
f 63//63 79//79 62//62
f 64//64 79//79 63//63
f 60//60 79//79 64//64
f 10//10 73//73 66//66
f 66//66 23//23 67//67
f 24//24 69//69 68//68
f 69//69 71//71 70//70
f 23//23 66//66 69//69
f 66//66 73//73 71//71
f 70//70 37//37 36//36
f 36//36 72//72 2//2
f 65//65 70//70 71//71
f 71//71 14//14 65//65
# 154 faces, 0 coords texture

# End of File
