####
#
# OBJ File Generated by Meshlab
#
####
# Object rock-5.obj
#
# Vertices: 131
# Faces: 258
#
####
vn -4.7961802 -2.0235443 0.0824161
v -0.2182997 0.0124379 0.0181456
vn -4.6429706 -2.1612411 -0.3935806
v -0.1864748 -0.0578938 -0.0226962
vn -3.3997779 -2.8179376 4.2008862
v -0.1856954 0.0218766 0.0718580
vn -4.1944909 -2.3027425 -0.5461507
v -0.1425903 -0.1509673 -0.0438492
vn -4.4604583 -1.6502509 -4.0997281
v -0.1300918 -0.0766914 -0.0828763
vn 4.6050158 -1.7548167 -3.4678597
v 0.3001362 -0.1190944 -0.0741773
vn 1.5848464 -2.5800149 -4.3452301
v 0.1928345 -0.1924220 -0.1252984
vn 2.8200047 -1.0058739 -4.9813595
v 0.2631182 -0.0767134 -0.1262265
vn 2.1002979 5.7404780 0.7983619
v 0.0124117 0.2003970 -0.0500402
vn 0.8605511 3.2817664 -3.1773877
v 0.0791072 0.1716316 -0.1324581
vn 1.7191213 6.0004272 -0.1177046
v 0.0060734 0.2025701 -0.0625013
vn -4.9389429 2.1631532 -3.1050193
v -0.2121296 0.0987365 0.0200739
vn -4.6339874 2.2619264 -3.5582337
v -0.1852307 0.1171657 0.0002361
vn -5.2697310 1.2403908 -3.0246685
v -0.2024153 0.0629684 -0.0140772
vn 3.4408369 3.3152077 2.8936527
v 0.3042803 0.0231077 -0.0074149
vn 4.5913892 3.0893197 1.7094523
v 0.3232298 0.0251350 -0.0516525
vn 1.5366545 2.9727168 -2.1456358
v 0.2564003 0.1009146 -0.1434232
vn 0.6792350 4.3500686 4.1833491
v -0.0242025 0.1880625 -0.0133456
vn -1.1654854 4.9576459 3.1061246
v -0.1733359 0.1323020 0.0289558
vn 0.6936800 3.4616807 5.0789557
v -0.0533807 0.0456610 0.1011634
vn -4.5454116 2.4361229 -3.5817184
v -0.1607334 0.1272571 -0.0273136
vn -4.1881332 2.2292759 -4.0910878
v -0.1027561 0.1253848 -0.0978581
vn -4.5766373 0.1636587 -3.7817132
v -0.1453536 0.0193925 -0.1089367
vn 3.7035000 -2.0203347 2.5798047
v 0.2882088 -0.1640513 0.0301022
vn 2.4904380 2.4545488 5.0326581
v 0.2065950 -0.0322383 0.0670018
vn 3.5262630 -2.5702074 3.2701845
v 0.1531029 -0.1659388 0.1634901
vn -2.9414217 -3.7713158 -2.4757440
v -0.0900047 -0.2086668 -0.0500337
vn -2.2083163 -4.2430286 2.3254051
v -0.0162153 -0.2480436 0.0441584
vn -3.9999247 -3.6732011 0.7902093
v -0.0974575 -0.2060020 -0.0292165
vn 2.3315947 4.3476858 3.3010809
v 0.1977020 0.0919747 -0.0154074
vn -3.4314237 3.9186409 -1.0201474
v -0.1854835 0.1330754 0.0093471
vn -2.8069842 3.9301701 -1.2592285
v -0.0793995 0.2024025 -0.0791153
vn -0.4029760 -1.0050352 -6.1651921
v 0.0896770 -0.0014976 -0.1532764
vn -1.1184025 -1.8710033 -5.6913495
v 0.0329710 -0.1530524 -0.1263990
vn -1.4684486 -1.9650528 -5.7267432
v -0.0680312 -0.0884692 -0.1175587
vn 0.1259813 3.7639818 -2.9766152
v -0.0191752 0.2064892 -0.1098297
vn -0.9027551 1.4356630 -6.0201473
v -0.0388384 0.1328557 -0.1270910
vn -4.7955441 0.9632303 -3.2775853
v -0.1887246 0.0496793 -0.0487696
vn -2.6390834 0.2977221 4.1208467
v -0.0850816 -0.0330457 0.1473198
vn 0.4665158 3.2632704 5.3000245
v -0.0600479 -0.0227403 0.1424392
vn -4.9773707 1.8888419 -3.2261405
v -0.2113374 0.1105817 0.0263798
vn -4.6368275 2.9006519 -1.7613612
v -0.2113796 0.1132364 0.0279002
vn -4.4935856 -3.4443419 2.3732634
v -0.1194117 -0.1678668 -0.0272501
vn -4.5716510 -2.9719243 3.0540435
v -0.1066042 -0.0579916 0.0816566
vn -2.0856700 -0.6618656 5.6715784
v -0.1694369 0.0515276 0.0914741
vn 0.7858347 2.6689239 5.5515494
v 0.1174839 -0.1469928 0.1770242
vn 2.5265431 1.4355896 4.1382127
v 0.1475804 -0.1453806 0.1729985
vn -0.2023238 0.6490565 -6.2321520
v 0.0993195 0.0188962 -0.1539080
vn -2.3554933 1.8101559 5.0001936
v -0.1989827 0.0737652 0.0813831
vn -3.0903440 -0.0372503 5.2022476
v -0.2000276 0.0704528 0.0811463
vn 0.1873598 -0.5414559 -6.2075486
v 0.1067664 -0.0071804 -0.1540169
vn 5.1947942 -0.8192297 -3.3323805
v 0.3121195 -0.0465309 -0.0734022
vn -1.8199819 5.8120246 1.4796721
v -0.0507619 0.1979431 -0.0293323
vn -0.2887259 0.9188254 -6.2056074
v 0.0914079 0.0137785 -0.1538721
vn 0.0196215 -3.5343029 -1.0970162
v 0.0801554 -0.3013255 -0.0618540
vn 1.6181701 4.7323751 2.8996224
v 0.0116502 0.1960411 -0.0312717
vn -1.0282420 -0.2132356 -5.8382106
v -0.0871346 0.0167243 -0.1465652
vn 0.0085468 -0.4071423 -6.0557213
v 0.0878310 0.0056874 -0.1552210
vn 5.8202243 -0.1723049 -0.5229979
v 0.3298220 -0.0316399 -0.0401527
vn 5.2715287 -0.2289485 -3.1372979
v 0.3260632 0.0128037 -0.0668160
vn 5.4556441 0.5948496 -0.3309467
v 0.3292612 0.0135053 -0.0599906
vn -2.0215623 -2.7221394 -5.2876267
v -0.0842915 -0.1816431 -0.0668506
vn -5.6654649 -0.4567686 -1.1615015
v -0.2280554 0.0481099 0.0287204
vn -5.5348430 0.5409246 -2.5261979
v -0.2229685 0.0642810 0.0184137
vn 0.5044411 2.2555263 5.3546138
v -0.0533534 -0.0503697 0.1594359
vn -0.3109470 0.1840474 5.3766584
v -0.0327457 -0.0714617 0.1647076
vn 1.3351061 -5.3578029 2.7531316
v 0.1292990 -0.1787461 0.1595344
vn -1.0231538 -4.4288373 3.9196229
v 0.1166177 -0.1759177 0.1654894
vn 2.1172283 -4.2320933 3.7026098
v 0.1384325 -0.1697976 0.1699319
vn -3.6359301 4.5055099 0.9213325
v -0.2084218 0.1169304 0.0338158
vn -5.6958270 1.9403983 -1.5976379
v -0.2230519 0.0939765 0.0418630
vn -4.7383890 2.0907943 1.2727735
v -0.2237743 0.0947953 0.0468457
vn -5.8662391 1.1166332 -0.6511685
v -0.2258534 0.0793694 0.0368828
vn -5.0856686 1.8788143 -2.8636107
v -0.2175379 0.0816691 0.0155700
vn -5.5555172 0.4415131 1.2156960
v -0.2280816 0.0661807 0.0457648
vn -5.0525932 -1.9987439 2.0359235
v -0.2253160 0.0412994 0.0428099
vn -4.4462652 -2.3900959 3.4309556
v -0.2148148 0.0443395 0.0601096
vn -3.7559171 -1.6839312 4.4700336
v -0.2071712 0.0520748 0.0724493
vn -3.3933718 -1.1303221 4.9965267
v -0.2027816 0.0600802 0.0777455
vn -5.1999822 -0.3327613 2.9388435
v -0.2216745 0.0681604 0.0601486
vn -3.4146786 2.8031478 4.1834493
v -0.2165415 0.0824686 0.0646650
vn -4.6214957 0.7904021 3.3513479
v -0.2194028 0.0779904 0.0641894
vn -1.5158744 3.9498467 4.4706759
v -0.1961582 0.0868418 0.0727984
vn -0.4802949 2.1078053 5.0953960
v -0.1635161 0.0702967 0.0928216
vn -1.5075592 4.3209777 4.1435180
v -0.1995499 0.1082576 0.0507420
vn -2.4626753 4.7015586 2.7926955
v -0.2060184 0.1167774 0.0376952
vn -3.2572808 3.8362660 3.5547631
v -0.2186354 0.0976545 0.0496327
vn -3.3990707 -2.9717922 3.8702579
v -0.0562117 -0.0836760 0.1501115
vn -4.9988599 -2.6635339 2.6856356
v -0.0787448 -0.0560668 0.1388429
vn -4.0906210 -2.2229986 3.9193277
v -0.0657026 -0.0637083 0.1539292
vn -3.6200581 -0.9501222 4.3693228
v -0.0741584 -0.0488790 0.1525810
vn -1.7699527 -1.3473819 5.2268076
v -0.0522298 -0.0682174 0.1618330
vn -0.9341962 2.3112671 5.4977679
v -0.0686822 -0.0391179 0.1531746
vn 0.2178160 -0.3225961 5.7769613
v 0.1228983 -0.1568180 0.1797499
vn 1.2263118 0.4791417 5.8986149
v 0.1333545 -0.1544758 0.1778395
vn -0.8241635 -3.1428487 5.0529871
v 0.1226446 -0.1652899 0.1763714
vn -0.9004999 -0.7969108 5.3208394
v 0.1118807 -0.1533772 0.1795207
vn 0.4907124 -4.5029645 3.9358449
v 0.1277463 -0.1727203 0.1705176
vn 2.8121216 -1.5787826 4.9131050
v 0.1437871 -0.1600250 0.1738755
vn 3.5190809 -3.9760790 -0.1928908
v 0.2753495 -0.1950877 -0.0251286
vn 4.1935329 -3.4264224 -2.6437488
v 0.2776608 -0.1723889 -0.0575616
vn -2.2008355 0.0793569 5.5196614
v -0.0629060 -0.0542642 0.1585504
vn 1.2354348 -2.4697742 5.3293004
v 0.1322373 -0.1639405 0.1764957
vn 0.0605514 5.6155176 2.0346785
v -0.0315398 0.2041520 -0.0371086
vn -0.9479979 5.1867380 2.7297909
v -0.0486997 0.1976634 -0.0254857
vn -3.3650694 -3.1605322 -3.3760142
v -0.1060336 -0.1817788 -0.0583549
vn -2.4334874 -2.1803241 -5.2807264
v -0.0896707 -0.0860645 -0.1114639
vn -2.4188061 -0.0556181 -5.2040362
v -0.1085930 0.0179599 -0.1407917
vn -3.6773849 -1.9478672 -4.6658249
v -0.1123704 -0.0816851 -0.0985290
vn -3.7775183 0.1143557 -4.3145857
v -0.1298878 0.0189997 -0.1267995
vn 0.7196097 5.9082084 1.2225019
v -0.0107366 0.2058456 -0.0492494
vn -1.8675816 3.9359710 -1.8866757
v -0.0616514 0.2088310 -0.0916258
vn -1.9526013 1.8299552 -5.6215491
v -0.0622718 0.1287738 -0.1231131
vn -3.2510595 2.1153007 -4.8791604
v -0.0856715 0.1260216 -0.1124742
vn -0.7960741 3.8635924 -2.4814281
v -0.0396078 0.2103268 -0.1028681
vn 2.9655137 -0.0486433 -4.6832709
v 0.2703182 0.0789640 -0.1436356
vn 0.7337366 -0.4852952 -6.2199950
v 0.1163066 -0.0027735 -0.1531111
vn 5.0320864 -0.0021948 -3.6749671
v 0.3229205 0.0161539 -0.0710837
vn -3.1672759 -3.3006930 -1.2461154
v -0.1273787 -0.1705775 -0.0500289
vn 5.4005451 -1.6506053 1.5701908
v 0.3088017 -0.1328132 -0.0056460
vn 4.8987708 -2.3571627 -0.8070343
v 0.3128145 -0.1346271 -0.0412527
vn 5.0049710 0.8909851 1.7429157
v 0.3270240 -0.0224709 -0.0044675
vn 4.1548223 -0.0380102 4.5987811
v 0.2891730 -0.1141385 0.0231019
vn 3.1606870 1.1724912 4.3229237
v 0.3044750 -0.0214806 0.0240915
vn -0.4899480 -0.6148858 -6.2015233
v 0.0959451 -0.0072709 -0.1536190
vn 0.2897064 -0.1819308 -6.2621779
v 0.1084936 0.0029184 -0.1542318
vn 5.4354177 1.6872668 -2.1649354
v 0.3252270 0.0208746 -0.0663918
vn 0.0739188 0.1401699 -6.2609582
v 0.1022759 0.0108500 -0.1545236
vn 2.0174201 2.4047844 -2.3469970
v 0.2636313 0.0958221 -0.1441872
vn 2.8606856 1.3445469 -3.5507944
v 0.2687258 0.0877876 -0.1442650
vn 5.1347055 2.9856145 0.1354597
v 0.3253402 0.0241619 -0.0592794
# 131 vertices, 0 vertices normals

f 1//1 2//2 3//3
f 4//4 2//2 5//5
f 6//6 7//7 8//8
f 9//9 10//10 11//11
f 12//12 13//13 14//14
f 15//15 16//16 17//17
f 18//18 19//19 20//20
f 21//21 22//22 23//23
f 24//24 25//25 26//26
f 27//27 28//28 29//29
f 30//30 17//17 9//9
f 31//31 32//32 21//21
f 33//33 34//34 35//35
f 32//32 22//22 21//21
f 36//36 10//10 37//37
f 21//21 23//23 38//38
f 39//39 40//40 20//20
f 41//41 42//42 31//31
f 43//43 28//28 44//44
f 3//3 44//44 45//45
f 25//25 46//46 47//47
f 17//17 48//48 10//10
f 49//49 50//50 45//45
f 34//34 51//51 7//7
f 25//25 15//15 30//30
f 52//52 6//6 8//8
f 11//11 10//10 36//36
f 44//44 4//4 43//43
f 30//30 20//20 25//25
f 53//53 32//32 31//31
f 54//54 10//10 48//48
f 34//34 7//7 55//55
f 15//15 17//17 30//30
f 20//20 56//56 18//18
f 33//33 57//57 58//58
f 59//59 60//60 61//61
f 54//54 57//57 37//37
f 62//62 35//35 34//34
f 63//63 64//64 14//14
f 30//30 9//9 56//56
f 40//40 65//65 66//66
f 67//67 68//68 28//28
f 26//26 69//69 67//67
f 42//42 70//70 31//31
f 42//42 71//71 72//72
f 12//12 41//41 13//13
f 12//12 73//73 71//71
f 64//64 74//74 14//14
f 64//64 75//75 73//73
f 76//76 63//63 1//1
f 77//77 75//75 76//76
f 78//78 77//77 3//3
f 79//79 80//80 78//78
f 50//50 79//79 45//45
f 50//50 81//81 82//82
f 83//83 49//49 84//84
f 85//85 81//81 83//83
f 86//86 85//85 19//19
f 70//70 87//87 86//86
f 72//72 73//73 82//82
f 85//85 83//83 84//84
f 2//2 44//44 3//3
f 3//3 77//77 76//76
f 76//76 1//1 3//3
f 21//21 38//38 13//13
f 38//38 14//14 13//13
f 14//14 74//74 12//12
f 34//34 27//27 62//62
f 21//21 13//13 31//31
f 13//13 41//41 31//31
f 88//88 89//89 44//44
f 45//45 79//79 78//78
f 78//78 3//3 45//45
f 68//68 66//66 88//88
f 20//20 84//84 45//45
f 84//84 49//49 45//45
f 14//14 38//38 1//1
f 38//38 2//2 1//1
f 1//1 63//63 14//14
f 23//23 2//2 38//38
f 31//31 70//70 86//86
f 86//86 19//19 31//31
f 42//42 72//72 70//70
f 42//42 41//41 71//71
f 12//12 71//71 41//41
f 12//12 74//74 73//73
f 64//64 73//73 74//74
f 64//64 63//63 75//75
f 76//76 75//75 63//63
f 77//77 80//80 75//75
f 78//78 80//80 77//77
f 79//79 82//82 80//80
f 50//50 82//82 79//79
f 50//50 49//49 81//81
f 83//83 81//81 49//49
f 85//85 87//87 81//81
f 86//86 87//87 85//85
f 70//70 72//72 87//87
f 72//72 71//71 73//73
f 73//73 75//75 80//80
f 80//80 82//82 73//73
f 82//82 81//81 72//72
f 81//81 87//87 72//72
f 84//84 20//20 19//19
f 19//19 53//53 31//31
f 19//19 85//85 84//84
f 90//90 91//91 89//89
f 92//92 90//90 88//88
f 65//65 92//92 66//66
f 93//93 65//65 40//40
f 91//91 93//93 39//39
f 89//89 91//91 39//39
f 94//94 95//95 46//46
f 96//96 94//94 97//97
f 98//98 96//96 68//68
f 69//69 98//98 67//67
f 99//99 69//69 26//26
f 95//95 99//99 47//47
f 47//47 99//99 26//26
f 20//20 45//45 39//39
f 39//39 93//93 40//40
f 20//20 46//46 25//25
f 46//46 95//95 47//47
f 66//66 97//97 46//46
f 97//97 94//94 46//46
f 46//46 20//20 66//66
f 20//20 40//40 66//66
f 28//28 55//55 67//67
f 67//67 98//98 68//68
f 67//67 55//55 26//26
f 100//100 7//7 101//101
f 44//44 28//28 88//88
f 88//88 90//90 89//89
f 88//88 28//28 68//68
f 68//68 96//96 97//97
f 97//97 66//66 68//68
f 66//66 92//92 88//88
f 90//90 102//102 91//91
f 92//92 102//102 90//90
f 65//65 102//102 92//92
f 93//93 102//102 65//65
f 91//91 102//102 93//93
f 45//45 44//44 39//39
f 44//44 89//89 39//39
f 94//94 103//103 95//95
f 96//96 103//103 94//94
f 98//98 103//103 96//96
f 69//69 103//103 98//98
f 99//99 103//103 69//69
f 95//95 103//103 99//99
f 100//100 26//26 55//55
f 25//25 47//47 26//26
f 104//104 105//105 18//18
f 29//29 43//43 106//106
f 57//57 107//107 108//108
f 108//108 109//109 110//110
f 110//110 5//5 23//23
f 36//36 111//111 11//11
f 111//111 112//112 104//104
f 104//104 32//32 53//53
f 57//57 113//113 37//37
f 108//108 114//114 113//113
f 110//110 22//22 114//114
f 62//62 107//107 35//35
f 106//106 109//109 107//107
f 109//109 4//4 5//5
f 32//32 114//114 22//22
f 112//112 113//113 114//114
f 115//115 37//37 113//113
f 23//23 5//5 2//2
f 116//116 8//8 117//117
f 18//18 105//105 19//19
f 27//27 55//55 28//28
f 43//43 29//29 28//28
f 44//44 2//2 4//4
f 20//20 30//30 56//56
f 118//118 8//8 116//116
f 34//34 55//55 27//27
f 19//19 105//105 53//53
f 9//9 11//11 111//111
f 104//104 53//53 105//105
f 9//9 111//111 56//56
f 111//111 104//104 18//18
f 56//56 111//111 18//18
f 43//43 4//4 119//119
f 106//106 62//62 27//27
f 43//43 119//119 106//106
f 27//27 29//29 106//106
f 57//57 35//35 107//107
f 108//108 107//107 109//109
f 110//110 109//109 5//5
f 36//36 115//115 111//111
f 111//111 115//115 112//112
f 104//104 112//112 32//32
f 57//57 108//108 113//113
f 108//108 110//110 114//114
f 110//110 23//23 22//22
f 62//62 106//106 107//107
f 106//106 119//119 109//109
f 109//109 119//119 4//4
f 32//32 112//112 114//114
f 112//112 115//115 113//113
f 115//115 36//36 37//37
f 100//100 101//101 120//120
f 52//52 121//121 6//6
f 59//59 120//120 121//121
f 122//122 123//123 120//120
f 25//25 123//123 124//124
f 6//6 101//101 7//7
f 59//59 16//16 15//15
f 24//24 123//123 25//25
f 7//7 117//117 8//8
f 25//25 124//124 15//15
f 100//100 55//55 7//7
f 100//100 24//24 26//26
f 15//15 124//124 122//122
f 118//118 52//52 8//8
f 15//15 122//122 59//59
f 101//101 6//6 121//121
f 120//120 123//123 24//24
f 101//101 121//121 120//120
f 24//24 100//100 120//120
f 52//52 59//59 121//121
f 59//59 122//122 120//120
f 122//122 124//124 123//123
f 51//51 125//125 126//126
f 61//61 60//60 127//127
f 17//17 128//128 48//48
f 129//129 126//126 128//128
f 130//130 117//117 126//126
f 116//116 127//127 118//118
f 130//130 131//131 127//127
f 129//129 16//16 131//131
f 9//9 17//17 10//10
f 33//33 125//125 34//34
f 34//34 125//125 51//51
f 54//54 37//37 10//10
f 33//33 35//35 57//57
f 59//59 52//52 60//60
f 54//54 58//58 57//57
f 59//59 61//61 16//16
f 7//7 51//51 117//117
f 118//118 60//60 52//52
f 54//54 48//48 128//128
f 126//126 117//117 51//51
f 54//54 128//128 58//58
f 128//128 126//126 125//125
f 33//33 128//128 125//125
f 33//33 58//58 128//128
f 60//60 118//118 127//127
f 127//127 131//131 61//61
f 131//131 16//16 61//61
f 17//17 129//129 128//128
f 129//129 130//130 126//126
f 130//130 116//116 117//117
f 116//116 130//130 127//127
f 130//130 129//129 131//131
f 129//129 17//17 16//16
# 258 faces, 0 coords texture

# End of File
