####
#
# OBJ File Generated by Meshlab
#
####
# Object rock-8.obj
#
# Vertices: 493
# Faces: 982
#
####
mtllib ./rock-8.obj.mtl

vn -1.1322217 1.0547125 -6.0395594
v -0.0001699 -0.0200118 -0.1101733
vn 2.3500495 0.5861920 -5.6681900
v 0.0442051 -0.0044138 -0.1043155
vn 2.0385242 0.6962885 -5.8204007
v 0.0282773 -0.0622470 -0.1129724
vn 2.8696406 -0.2347683 -5.5148869
v 0.0901632 -0.1220995 -0.0915473
vn 2.6696467 1.3274751 -5.5124388
v 0.0439721 -0.0901868 -0.1092549
vn 2.7432251 1.0979434 -5.4461446
v 0.0610474 -0.1018419 -0.1035140
vn -0.7753088 1.3510171 -5.6982331
v -0.0120101 -0.0524849 -0.1189881
vn 1.8241627 1.6018820 -5.7857966
v 0.0230857 -0.1095239 -0.1221893
vn 2.9149897 1.6675184 -5.1212101
v 0.0524919 -0.1134529 -0.1144813
vn 0.2245211 1.3495898 -6.0441384
v -0.0008242 -0.0889452 -0.1234163
vn -1.2309186 1.5535389 -5.8715878
v -0.0341223 -0.0800509 -0.1146394
vn 2.1327946 1.1393969 -5.6878877
v 0.0438918 -0.1421732 -0.1260671
vn -0.5628704 1.9972944 -5.9009128
v -0.0264630 -0.1132197 -0.1270099
vn 0.2456045 1.1796272 -5.7980008
v -0.0042501 -0.1276445 -0.1367652
vn 4.3523612 -4.2612772 1.0127517
v 0.1208060 -0.2186411 0.0075017
vn 3.8244624 -4.4506540 1.1336839
v 0.0907748 -0.2509081 0.0096242
vn 4.1173820 -4.5522089 -0.7821427
v 0.0767310 -0.2620179 -0.0204301
vn 4.2966499 -3.9021294 -0.3963699
v 0.1355228 -0.2084384 -0.0083357
vn 4.2548370 -3.9207983 -2.1681859
v 0.1042737 -0.2285969 -0.0300095
vn 3.1279051 -4.8061547 -1.7328188
v 0.0597734 -0.2711713 -0.0432199
vn 4.6214647 -3.4187405 -2.3139222
v 0.0901975 -0.2250794 -0.0519261
vn 4.2877245 -2.0792487 -3.8858092
v 0.1157332 -0.1861852 -0.0602522
vn 1.0843431 -4.6256871 -3.9517171
v 0.0384364 -0.2559474 -0.0847527
vn 4.5825543 -2.2216666 -3.1054919
v 0.0887545 -0.2114729 -0.0871700
vn 2.3171110 -3.5827963 -2.8155789
v 0.0634795 -0.2527788 -0.0867046
vn 2.3238251 -1.7364875 -5.0535326
v 0.0640575 -0.2052602 -0.1129633
vn 3.8817849 -0.9641720 -4.4909382
v 0.1037895 -0.1490124 -0.0744446
vn 4.5151887 0.0572035 -4.2160044
v 0.0842639 -0.1687137 -0.1015907
vn 3.1824076 -0.2544993 -4.8569932
v 0.0671152 -0.1720927 -0.1194853
vn -2.9113383 -3.7216873 -4.0895267
v -0.0874688 -0.2402141 -0.0916727
vn -2.7223139 -2.4859228 -4.6169248
v -0.0765565 -0.2274460 -0.1147603
vn -1.3284646 -1.0425111 -6.0487070
v -0.0601041 -0.1851747 -0.1263539
vn -0.6581481 0.1819146 -5.7816000
v -0.0436345 -0.1483971 -0.1393313
vn 0.0477758 0.1923172 -6.1646476
v -0.0197541 -0.1492424 -0.1380778
vn -0.4533154 -1.4465773 -6.0728331
v -0.0341291 -0.1796802 -0.1324768
vn -1.3879465 -4.7391663 -2.5662255
v -0.0583836 -0.2749733 -0.0800160
vn -0.6520196 -2.6701815 -4.9323864
v -0.0527576 -0.2352383 -0.1205260
vn 0.0527709 -0.8187864 -6.1218534
v -0.0015593 -0.1742897 -0.1357048
vn 0.7422228 -3.7228289 -4.9129958
v -0.0101465 -0.2461043 -0.1061150
vn -0.0396410 -2.2693155 -5.8087368
v -0.0133136 -0.2183652 -0.1199050
vn 0.9387666 -4.5913348 -3.8507795
v 0.0014755 -0.2693805 -0.0844729
vn 0.8310546 -2.2564881 -5.2191005
v 0.0142226 -0.2093911 -0.1286800
vn 0.6628097 -5.5899806 -1.6134746
v 0.0049502 -0.2900181 -0.0480447
vn 1.5694017 -3.0028698 -5.2351990
v 0.0359912 -0.2199577 -0.1122601
vn 0.9943153 0.1206986 -5.6341834
v 0.0282615 -0.1688826 -0.1352648
vn 0.7821462 1.6360426 -4.8159523
v 0.0269955 0.0034416 -0.1141919
vn -0.1649640 2.3914344 -5.7687278
v -0.0513900 -0.0986796 -0.1220937
vn 1.9960864 -5.4506135 0.1848256
v 0.0470733 -0.2845694 -0.0079719
vn 3.1884873 -2.2506578 -4.8359370
v 0.1338641 -0.1450884 -0.0566438
vn -1.9850326 -1.3252697 -5.7315521
v -0.0871461 -0.1847707 -0.1206857
vn -0.6605649 3.3687205 -5.1907835
v 0.0524913 0.0391191 -0.0800551
vn -0.3643396 1.4757802 -5.3839588
v 0.0654467 0.0150181 -0.1012525
vn -1.3593601 2.8608291 -5.3060021
v 0.1035796 0.0413766 -0.0876073
vn 0.1720457 0.3919152 -5.5498414
v 0.1045439 0.0224321 -0.1002941
vn 0.0303783 0.4224823 -5.6287704
v 0.1415721 0.0537103 -0.0960127
vn 2.2622018 -0.8548466 -5.7381964
v 0.1691784 0.0216622 -0.0772338
vn 0.7640985 -0.8274611 -6.0598722
v 0.0824690 -0.0035906 -0.0939466
vn 0.5398704 -0.5845134 -6.1219444
v 0.1295728 0.0086241 -0.0904582
vn 1.6935624 0.2857288 -5.6958199
v 0.0591126 -0.0528492 -0.0937458
vn 0.8530110 -0.3362166 -6.0838456
v 0.1185958 -0.0315770 -0.0945859
vn 1.5087105 -0.1095601 -6.0429673
v 0.1376045 0.0008131 -0.0900564
vn 2.3605459 -0.3465825 -5.7320895
v 0.1538734 -0.0395042 -0.0840881
vn 0.5708912 0.0137407 -6.2276521
v 0.1049658 -0.0636783 -0.0914233
vn 2.6297204 -0.3301707 -5.6867323
v 0.1696136 -0.0542303 -0.0745092
vn 1.8409897 -0.7723279 -5.8886681
v 0.0907234 -0.0906809 -0.0926669
vn 1.0766506 -0.7106118 -5.8407683
v 0.1218015 -0.0803902 -0.0922459
vn 2.3133459 -2.3316023 -5.2726331
v 0.1305949 -0.1147751 -0.0775468
vn 4.5546651 0.9940498 -3.6225109
v 0.2359468 0.0774770 -0.0443668
vn 4.2950773 -0.4190866 -4.4748187
v 0.2358520 0.0346746 -0.0424460
vn 4.5161486 -0.7038342 -4.0761919
v 0.2315286 -0.0037923 -0.0423154
vn 5.0911884 -1.0242410 -3.0638084
v 0.2330506 -0.0284523 -0.0359256
vn 5.5981054 -2.2813427 -0.4036831
v 0.2297841 -0.0547902 -0.0207380
vn 3.7015474 -0.4532539 -5.0187755
v 0.2123076 0.0581140 -0.0625431
vn 3.0437484 -0.4341195 -5.2770143
v 0.2039506 -0.0329276 -0.0620821
vn 2.7345903 -0.5712733 -5.5651803
v 0.1965770 0.0151302 -0.0677424
vn 3.3796539 -0.6713804 -4.9958291
v 0.1956577 0.0732426 -0.0786822
vn 2.4487715 -1.3049279 -5.6262174
v 0.1753362 0.0502924 -0.0819770
vn 2.3061707 -0.2274421 -5.7521262
v 0.1812596 -0.0231431 -0.0684179
vn 4.5364528 -4.0643773 0.3901491
v 0.1507979 -0.1859206 0.0021649
vn 3.9353650 -3.3168776 -3.2946541
v 0.1633627 -0.1597481 -0.0295489
vn 4.1776800 -2.7218704 -3.2128053
v 0.1444191 -0.1796327 -0.0380628
vn 4.1341248 -4.2174983 1.8267577
v 0.1692408 -0.1652150 0.0177864
vn 4.4984694 -3.0064602 -0.3335702
v 0.1926479 -0.1469729 -0.0034505
vn 3.3529181 -2.6772799 -4.4636064
v 0.1741469 -0.1108288 -0.0557322
vn 2.5530660 -1.8901268 -5.2652516
v 0.1505577 -0.0964376 -0.0773951
vn 5.6114092 -1.8383472 1.8072115
v 0.2039800 -0.1118069 0.0021830
vn 3.5548494 -2.8244205 -4.2647367
v 0.1912421 -0.0958090 -0.0501427
vn 5.2327046 -2.1066396 2.5177298
v 0.2090784 -0.0834117 0.0131640
vn 4.9898338 -2.5512540 -1.3051287
v 0.2117765 -0.0995405 -0.0243570
vn 4.2467756 -1.8246599 -3.4497926
v 0.2146815 -0.0729876 -0.0473336
vn 3.0745275 -1.6122636 -5.0240083
v 0.1991584 -0.0694067 -0.0598078
vn 2.5448091 -1.0212930 -5.5385399
v 0.1822417 -0.0655780 -0.0690944
vn 1.1197721 2.6025913 -5.5045233
v 0.0462251 0.0854600 -0.0599913
vn -0.4378349 3.2154469 -5.2536802
v 0.0651731 0.0994917 -0.0468051
vn 1.7556980 2.3109233 -5.0141459
v 0.0473974 0.1129308 -0.0382062
vn -0.8909786 2.8674610 -5.4065909
v 0.0798812 0.1284592 -0.0301805
vn 1.2312061 1.7409962 -5.3712063
v 0.0619836 0.1370144 -0.0246917
vn -0.3516438 2.0716221 -5.8933339
v 0.0870929 0.1613458 -0.0204237
vn -1.3920575 3.7889915 -4.7815762
v 0.0935952 0.1194400 -0.0404112
vn -0.9489821 2.7090058 -4.8959107
v 0.0732948 0.0734403 -0.0578507
vn -1.3652986 3.4219358 -4.7664227
v 0.1046239 0.1011785 -0.0632121
vn -1.0472503 2.1027887 -5.7118049
v 0.1144942 0.1546188 -0.0242113
vn -1.7729865 2.7257888 -5.2694397
v 0.0921942 0.0639819 -0.0771880
vn -1.8668970 3.1897647 -4.9720349
v 0.1296617 0.0848671 -0.0769168
vn -1.2376708 3.2653809 -5.0501866
v 0.1234160 0.1253918 -0.0410738
vn -2.1031764 2.5299840 -5.3421760
v 0.1403707 0.1361366 -0.0429282
vn -1.2828765 3.6594141 -4.7402387
v 0.1422085 0.1115291 -0.0549659
vn -0.2313198 1.3874207 -4.3092179
v 0.1624528 0.0898079 -0.0972142
vn -2.8373430 3.0048575 -4.0188317
v 0.1626468 0.1190038 -0.0569281
vn 1.9687079 5.7976427 1.2057946
v 0.1254705 0.2197752 0.0445962
vn 3.2103167 3.8641276 2.5495160
v 0.1511924 0.2048652 0.0627421
vn 4.0586672 4.1551208 0.1610890
v 0.1683965 0.2010747 0.0262935
vn 2.1501658 4.9856424 -1.0270725
v 0.1471923 0.2166641 0.0218196
vn 3.7776439 4.5097752 1.8278446
v 0.2075031 0.1631829 0.0261169
vn 3.6375496 4.9014621 1.1867204
v 0.1922124 0.1754106 0.0189114
vn 1.7856175 5.4848232 -1.7241613
v 0.1025285 0.2273056 0.0243591
vn 2.0694225 5.0943589 -1.1007447
v 0.1980167 0.1785051 -0.0140500
vn 1.6297157 4.4752870 -3.3681958
v 0.1579036 0.1949655 -0.0072870
vn 0.2591976 4.4331756 -4.2868481
v 0.1280869 0.2050228 0.0000965
vn 0.0050994 4.4007187 -4.3650188
v 0.1676994 0.1747261 -0.0215568
vn 1.5857098 2.5294631 -5.2938805
v 0.0966459 0.2066324 0.0003009
vn -0.5872883 3.0093963 -5.2382727
v 0.1278137 0.1814932 -0.0198292
vn 0.5440012 2.1409559 -5.4927549
v 0.0879829 0.1892658 -0.0045860
vn -1.4141772 3.2199514 -5.1150279
v 0.1457061 0.1612907 -0.0302014
vn 4.4193673 0.0566321 -4.4340367
v 0.2247116 0.1003625 -0.0497574
vn 1.9863188 1.8302404 -5.0288730
v 0.1894211 0.1097038 -0.0807975
vn 3.4062595 1.0810417 -4.4773407
v 0.2099859 0.1214034 -0.0668496
vn 4.1194558 1.4695765 -2.9340889
v 0.2423833 0.1246352 -0.0362113
vn 4.2764568 1.6378162 -4.1447105
v 0.2204451 0.1242573 -0.0534001
vn -2.3076398 3.1174355 -4.7252522
v 0.1776800 0.1332330 -0.0629340
vn 5.3814101 0.1636912 -3.1821365
v 0.2479109 0.0957446 -0.0199705
vn 4.7040868 3.3052187 -1.7168492
v 0.2348262 0.1419756 -0.0245168
vn 1.3582566 3.6744578 -3.5833066
v 0.2009611 0.1571550 -0.0519514
vn 4.4627032 4.0667868 0.5695362
v 0.2256212 0.1568979 -0.0059479
vn 2.9447985 3.9713676 -2.0568161
v 0.2159802 0.1656491 -0.0301703
vn 5.0493932 3.4698730 1.1638098
v 0.2411972 0.1308412 0.0064811
vn -1.1061393 3.6789463 -4.2391462
v 0.1762536 0.1574348 -0.0502819
vn 1.7405375 4.9969344 3.2931058
v 0.0963410 0.2200993 0.0710839
vn 1.0203937 2.6481397 -4.6336927
v 0.0131580 0.0393053 -0.0729695
vn 3.7801189 0.1711022 -4.9059219
v -0.0128607 0.1082074 -0.0836980
vn 2.8106866 0.1044625 -5.2560921
v -0.0415102 0.1439869 -0.1064938
vn 0.8203930 1.0336072 -6.1154628
v -0.0770756 0.1652426 -0.1096480
vn 4.6522069 0.6563286 -4.1644740
v -0.0213257 0.1580304 -0.0842964
vn 3.0147684 1.2568858 -5.2548294
v 0.0156279 0.1079600 -0.0590295
vn 4.1382370 0.9903228 -4.5077677
v -0.0036297 0.1445712 -0.0650043
vn 4.2794504 -0.0075847 -4.4902911
v -0.0059158 0.1788156 -0.0624692
vn 2.2331634 1.3858569 -4.9437809
v -0.0436413 0.1924979 -0.1038443
vn 3.0690844 0.5658960 -4.9879980
v 0.0181043 0.1708691 -0.0403352
vn 3.2341442 1.1985461 -5.1899033
v 0.0388187 0.1465788 -0.0397911
vn 3.6716712 0.2583054 -5.0131445
v 0.0344778 0.1892502 -0.0315805
vn 3.6439080 0.4820828 -4.5586705
v 0.0149047 0.2197267 -0.0559158
vn 2.7539613 1.6758163 -5.1610284
v -0.0097324 0.2205634 -0.0676828
vn -1.4136881 5.4494033 -2.6693890
v -0.1341144 0.2348908 -0.0569697
vn -0.5744213 5.3937612 -0.6111823
v -0.0628755 0.2766869 -0.0033230
vn 0.3142402 5.6667452 -1.9797076
v -0.0454768 0.2700081 -0.0212658
vn -1.0296282 4.6413260 -3.9901416
v -0.1225228 0.2246735 -0.0734052
vn -0.5908850 4.5850749 -3.4799991
v -0.1025884 0.2409258 -0.0671017
vn -0.8314923 5.4599490 -2.9158061
v -0.0727649 0.2561426 -0.0372314
vn 0.5954844 6.2017002 -0.1591205
v -0.0171926 0.2646478 -0.0013827
vn -0.1726086 4.7961187 -3.9839921
v -0.0732653 0.2342231 -0.0679827
vn -0.1728188 4.3691387 -4.4959168
v -0.1079031 0.2122506 -0.0901001
vn 0.9646511 4.1221590 -4.2170353
v -0.0370806 0.2379673 -0.0697203
vn 0.5728181 4.6448755 -3.6835129
v -0.0274263 0.2541603 -0.0513758
vn 1.6859069 4.9950123 -2.7827716
v 0.0036241 0.2586351 -0.0321673
vn 0.1593192 2.4749973 -5.4448986
v -0.0842342 0.1939842 -0.1072101
vn 0.2286296 3.8457291 -4.3566589
v -0.0557600 0.2219148 -0.0894292
vn 2.5353639 2.9680886 -4.3049021
v 0.0074738 0.2384923 -0.0540203
vn 1.6763285 5.1867900 2.1006999
v 0.0797384 0.2362197 0.0570040
vn 3.5423319 4.3940296 -2.3394830
v 0.0834542 0.2304578 0.0095838
vn 2.4571269 0.9803782 -5.3991389
v 0.0592795 0.1856279 -0.0141272
vn 2.8260744 2.5972419 -4.0831523
v 0.0554351 0.2369644 -0.0167120
vn 3.0942466 4.9647837 -0.6675361
v 0.0639731 0.2479089 0.0131537
vn 0.8702475 5.4461355 2.6362660
v 0.0400966 0.2485077 0.0461239
vn 2.4206266 5.0648236 -0.6192275
v 0.0427553 0.2597510 0.0066107
vn 0.8150018 5.6989670 2.0122504
v 0.0202131 0.2619332 0.0234485
vn 3.4926891 2.6797915 -4.1920042
v 0.0334557 0.2383938 -0.0275668
vn 0.3980349 5.0989804 3.6358373
v 0.0034234 0.2360969 0.0644731
vn 1.2976141 4.9383430 -1.4351497
v 0.0175780 0.2676567 -0.0101231
vn 0.6312053 5.8060398 1.7762502
v -0.0099873 0.2638327 0.0244988
vn -2.1256464 5.8053007 -0.9003283
v -0.1367081 0.2429347 -0.0268272
vn -1.8691057 5.7152739 -1.1739886
v -0.1108969 0.2553727 -0.0220378
vn -2.0980537 5.2223425 0.7075747
v -0.0850300 0.2699011 0.0065158
vn -1.8225145 3.8813913 -3.9083767
v -0.1436406 0.2193457 -0.0802660
vn -0.9915095 3.0898001 -4.9908624
v -0.1230958 0.1983384 -0.1034533
vn 0.5045368 2.1797802 -5.5045362
v -0.0106976 0.0273842 -0.0963538
vn -1.1119628 -1.0031810 -5.9955101
v -0.0547293 0.0276139 -0.0920114
vn -1.0126036 -2.1319866 -5.4819722
v -0.0894090 0.0341587 -0.0808108
vn 0.0298714 -1.7922915 -5.9452453
v -0.1442442 0.0135719 -0.0751561
vn -0.9217795 -1.4721438 -5.9058232
v -0.1771321 -0.0111154 -0.0660160
vn -1.7047170 0.8930825 -5.8757439
v -0.1595922 -0.0372025 -0.0693481
vn 1.8255216 0.0310426 -5.8187504
v -0.0310201 0.0523686 -0.0961718
vn 0.1770669 -1.3073164 -5.4600720
v -0.0747823 0.0732080 -0.1112394
vn 0.2798378 -2.6198792 -5.6599340
v -0.1291011 0.0486750 -0.0885225
vn 2.2535722 -0.2473432 -5.8298988
v -0.0519339 0.0946812 -0.1017111
vn -0.2015442 -2.3875215 -5.6846609
v -0.1596639 0.0534454 -0.0954141
vn 0.2690960 -1.6670901 -5.8313208
v -0.1008556 0.0954940 -0.1161461
vn 0.4457532 0.8124418 -5.6134686
v -0.0787057 0.1410637 -0.1187803
vn 0.4670383 0.1359948 -6.2371693
v -0.1002891 0.1264634 -0.1184909
vn -0.1371702 -2.8046360 -5.6133299
v -0.1329770 0.0788056 -0.1050134
vn -5.4462004 -1.9082061 0.1921535
v -0.2387926 -0.0590773 0.0113702
vn -4.8064504 -2.6699634 2.6684046
v -0.2312472 -0.0559226 0.0368714
vn -6.0929618 -0.4188142 0.7177870
v -0.2427059 0.0176257 0.0047351
vn -5.4397516 0.3932059 2.4124820
v -0.2424129 0.0707433 0.0187605
vn -6.1155229 1.0659795 -0.1863058
v -0.2441512 0.0977516 -0.0253358
vn -5.8867636 0.2569357 -0.5105183
v -0.2504276 0.0643076 -0.0232907
vn -5.4395623 -1.4664212 -2.1363528
v -0.2421373 0.0237400 -0.0381573
vn -5.2360916 -0.4172337 -1.4098871
v -0.2503656 0.0408139 -0.0266870
vn -4.8770924 -1.6215811 -2.1397066
v -0.2327248 -0.0585407 -0.0242390
vn -5.6912122 -0.9904050 -2.2549274
v -0.2324339 -0.0169886 -0.0252554
vn -3.3630240 -1.2402424 -4.9087858
v -0.2090914 -0.0309098 -0.0540463
vn -3.6574669 -1.7678751 -4.3651099
v -0.2211944 0.0108874 -0.0626479
vn -4.1961980 -1.0201312 -4.0296130
v -0.2286795 0.0580856 -0.0710146
vn -1.9391854 -1.5848987 -5.7073379
v -0.1926551 0.0352859 -0.0822358
vn -0.9423817 -2.2618382 -5.6555109
v -0.1873397 0.0070507 -0.0743271
vn -2.3053358 -1.7485158 -5.5628080
v -0.1986732 0.0571721 -0.0848595
vn -2.0908883 4.8376760 -2.7351336
v -0.1624743 0.2308145 -0.0532339
vn -0.1434103 1.4340562 -5.9622731
v -0.1198336 0.1573943 -0.1176402
vn -2.8767195 3.4967892 -4.3282089
v -0.1588795 0.2019859 -0.0798022
vn -2.3488050 2.8732162 -4.8523154
v -0.1548355 0.1841711 -0.0988982
vn -3.6964285 3.6554441 -3.0635970
v -0.1827470 0.2158983 -0.0535399
vn -2.0980451 2.1963279 -5.4039536
v -0.1566095 0.1588193 -0.1090397
vn -3.8341575 2.9796247 -3.5004494
v -0.1947700 0.1865713 -0.0708113
vn -0.7074445 0.0584880 -5.7050457
v -0.1428187 0.1260900 -0.1239775
vn -5.1672516 2.9838195 -0.3943377
v -0.2178727 0.1816044 -0.0241985
vn -2.8664072 1.2725401 -5.1587343
v -0.1792165 0.1322581 -0.1091842
vn -3.7993252 2.0991874 -4.4662943
v -0.1936145 0.1468977 -0.0915070
vn -4.8791022 2.1717668 -2.7528200
v -0.2169018 0.1607430 -0.0606348
vn -1.3277441 -1.5630360 -5.4815516
v -0.1686240 0.0934621 -0.1135987
vn -3.4048488 -0.1930882 -4.9365821
v -0.2109106 0.0992289 -0.0934283
vn -5.2204251 1.9453840 0.9699388
v -0.2374675 0.1446123 0.0001706
vn -5.6226478 1.9467436 -1.6183146
v -0.2351459 0.1204094 -0.0521698
vn -2.5241833 -1.4493345 -5.4096727
v -0.1865921 0.0905462 -0.1045168
vn -4.5457096 1.3465968 -2.7603991
v -0.2333212 0.1114417 -0.0725632
vn -1.3432401 0.9496189 -5.9959149
v -0.0335719 0.0007820 -0.0951251
vn -3.0586312 4.4506044 -0.5328357
v -0.1816283 0.2320207 -0.0290183
vn -5.0114226 1.1831415 2.8885441
v -0.2333772 0.1233296 0.0232840
vn -0.8917113 1.8220439 -5.7200589
v -0.0602693 -0.0694335 -0.1043819
vn -0.8931993 1.9872305 -5.4904065
v -0.0820633 -0.1037858 -0.1249101
vn -1.6644471 1.5706550 -5.7908545
v -0.0506708 -0.0337004 -0.1013901
vn -2.1044900 1.8017175 -5.5910220
v -0.0793778 -0.0278741 -0.0874094
vn -1.3029729 2.7871969 -5.4365101
v -0.0909886 -0.0761620 -0.1032746
vn -1.2534821 0.0595457 -5.5987000
v -0.0982847 -0.0010446 -0.0713142
vn -1.1363395 2.8908720 -5.3816533
v -0.1204939 -0.0662836 -0.0904153
vn -1.6863108 2.5100470 -5.3034749
v -0.1332098 -0.0910271 -0.1055214
vn -0.7705598 1.0127510 -5.9008780
v -0.1214488 -0.0208093 -0.0713663
vn -2.0799344 2.3912227 -5.3342066
v -0.1505658 -0.0596011 -0.0823728
vn -3.2038944 -2.5817275 -4.7286005
v -0.1020915 -0.2150141 -0.0989743
vn -3.8295629 -3.2399333 -3.5367064
v -0.1350120 -0.2142380 -0.0767601
vn -4.3126769 -3.1875527 -2.0466743
v -0.1664007 -0.1923419 -0.0649697
vn -5.3411155 -3.0075560 1.0357695
v -0.1704662 -0.1842000 -0.0377190
vn -3.3622410 -2.9474428 -4.4015775
v -0.1500161 -0.1881655 -0.0803937
vn -2.4487264 -1.9906771 -5.2385139
v -0.1184698 -0.1772867 -0.1114175
vn -3.2209585 -1.5039784 -4.7200437
v -0.1534574 -0.1554554 -0.1025090
vn -1.4993825 0.2709874 -5.9681859
v -0.0687028 -0.1407813 -0.1316893
vn -1.4483386 -0.6720290 -6.0626531
v -0.1064517 -0.1480223 -0.1189426
vn -3.0788906 0.9851946 -5.2914896
v -0.1414774 -0.1133255 -0.1087456
vn -1.6536719 0.5709313 -5.5839791
v -0.1226843 -0.1217543 -0.1202872
vn -5.3029714 -2.8827758 0.7265185
v -0.2263674 -0.0795710 0.0086591
vn -4.8793797 -0.7911485 -3.4640732
v -0.2183185 -0.0666671 -0.0398250
vn -2.6124160 0.0662466 -5.6572928
v -0.1912137 -0.0458711 -0.0592253
vn -3.7421415 0.9992197 -4.8374934
v -0.1880325 -0.0818157 -0.0682507
vn -3.4630971 -3.9809618 3.3753278
v -0.1908516 -0.1168070 0.0131244
vn -5.4349012 -2.5173829 -0.5474437
v -0.2152858 -0.1059695 -0.0221077
vn -4.3149729 -0.5472806 -3.2310009
v -0.2133803 -0.0871926 -0.0503230
vn -5.1487799 -3.2099593 1.4345689
v -0.1862089 -0.1423297 -0.0251378
vn -4.5351839 -3.4870877 2.4277153
v -0.1816209 -0.1363562 -0.0012150
vn -4.7437973 0.2815081 -3.5132613
v -0.1919493 -0.1131847 -0.0722491
vn -5.3516798 -2.1695020 -1.3760816
v -0.2045021 -0.1196381 -0.0435590
vn -4.9500952 -2.1862724 -1.2675928
v -0.1904205 -0.1549892 -0.0612049
vn -4.1851888 -0.8670409 -4.2308846
v -0.1782590 -0.1393286 -0.0848867
vn -3.3448796 1.4042511 -5.0300574
v -0.1637238 -0.0977485 -0.0912190
vn -2.3163602 -3.7810059 4.4330177
v -0.0588389 -0.0883813 0.1492058
vn -3.3523469 -3.1942089 4.2183657
v -0.0937369 -0.1087182 0.1129300
vn -3.9677565 -2.1087580 4.3252139
v -0.1186266 -0.0573201 0.1265901
vn -3.5615287 -3.0967019 4.0201440
v -0.1214855 -0.0950459 0.1015111
vn -3.1787417 -3.5695200 4.0067301
v -0.1482729 -0.0912891 0.0794069
vn -2.7826385 -3.4053626 4.2170534
v -0.1763317 -0.0805973 0.0722102
vn -3.5997250 -3.7339032 3.2592463
v -0.2040495 -0.0831607 0.0466674
vn -3.0312896 -4.1797013 3.5368960
v -0.1854033 -0.1028451 0.0346953
vn -4.3887053 -3.3930693 1.7844764
v -0.2149707 -0.1039762 0.0070182
vn -0.1190580 -1.7080212 5.3062372
v 0.0020143 -0.0926783 0.1862137
vn -2.8474929 -2.1398792 5.0180850
v -0.0123291 -0.1066701 0.1755268
vn -2.9949660 -4.0565906 3.6530843
v -0.1588749 -0.1055376 0.0515254
vn -3.1569760 -2.4181938 4.2046728
v -0.0458065 -0.1078995 0.1366485
vn -3.7226572 -3.8201954 3.2884924
v -0.1203838 -0.1175487 0.0776376
vn 3.3587394 -2.5374780 4.6105857
v 0.0391699 -0.1114962 0.1567277
vn 0.4200922 -2.2602921 4.7364931
v 0.0034225 -0.1440533 0.1653468
vn -3.9002292 -1.6048464 4.6020584
v -0.0261656 -0.1299760 0.1505770
vn -2.8770578 -2.3503439 4.9231601
v -0.0658417 -0.1198617 0.1213963
vn -4.0299973 -3.0166721 3.4879384
v -0.0916931 -0.1373732 0.0968205
vn -3.4315073 -3.3777397 3.9156635
v -0.1685855 -0.1326770 0.0229085
vn -4.4597182 -3.6024079 2.5491908
v -0.0987427 -0.1427583 0.0758730
vn -2.6979978 -3.6080711 4.2950511
v -0.1457345 -0.1337288 0.0344429
vn 3.2075021 -2.7296231 4.2805176
v 0.0281553 -0.1326441 0.1470789
vn -3.8792365 -2.5166924 3.8522387
v -0.0635989 -0.1577769 0.1143173
vn -3.4107444 -3.0443385 3.6723506
v -0.1142417 -0.1479408 0.0405386
vn -2.6373773 -2.5208511 4.4754863
v -0.0252199 -0.1675891 0.1441927
vn 1.6934768 -3.2799256 3.9670398
v 0.0128413 -0.1761978 0.1442720
vn -4.4111843 -2.7386079 3.0902665
v -0.1690454 -0.1603858 0.0015381
vn -2.1176159 -3.9478400 3.6689646
v -0.0216570 -0.1821819 0.1341919
vn -4.0408568 -3.7083774 2.9470210
v -0.0750600 -0.1765403 0.0763837
vn -2.7969437 -2.8195899 4.8577852
v -0.1436100 -0.1557968 0.0220455
vn 3.7377961 -2.7599103 4.0959110
v 0.0478985 -0.1489905 0.1286357
vn -3.3977420 -4.3205910 2.9695878
v -0.0472605 -0.1902540 0.0928065
vn -3.4035320 -2.1559086 4.7747235
v -0.1200726 -0.1827232 0.0215187
vn -3.9268887 -2.2723007 4.2985182
v -0.0953689 -0.1890440 0.0406984
vn -3.7156584 -2.7490191 4.1448131
v -0.1397655 -0.1958288 0.0031630
vn -1.5888444 -4.9593124 3.1920407
v -0.0134729 -0.1997394 0.1121024
vn -3.1470528 -3.5035534 3.7056158
v -0.0688870 -0.1932957 0.0560746
vn -4.7906199 -2.9756665 2.5415697
v -0.1636634 -0.1803027 -0.0112155
vn 4.6956954 -2.1785331 3.2876034
v 0.0739726 -0.1236461 0.1098116
vn -3.2627428 -3.7490454 3.7762678
v -0.0453385 -0.2107068 0.0657325
vn 1.0296499 -4.5996780 3.4422109
v 0.0097685 -0.2116608 0.0988283
vn -1.8834291 -4.7001152 3.6559908
v -0.0132630 -0.2179173 0.0786604
vn 2.7867410 -3.2788248 4.2555804
v 0.0366527 -0.1980820 0.0854483
vn -3.3278692 -3.4225583 3.6739705
v -0.1213927 -0.2234752 0.0031050
vn -4.8089671 -3.2946303 1.7626357
v -0.1548916 -0.2067382 -0.0269209
vn 3.9511962 -1.9436724 4.4207945
v 0.0755683 -0.1469921 0.1009051
vn 2.7744739 -3.5495420 4.3350377
v 0.0642424 -0.1777208 0.0896901
vn 0.6163076 -4.0900502 4.3908300
v 0.0214190 -0.2305206 0.0746065
vn -3.0966055 -2.9584799 4.2355494
v -0.0859424 -0.2220829 0.0350047
vn -2.5038044 -3.1650617 4.7731581
v -0.0475816 -0.2333657 0.0473218
vn 3.3163137 -1.1784092 5.0332508
v 0.1023750 -0.1515540 0.0808051
vn -3.4725940 -3.6715357 3.6912355
v -0.0752574 -0.2400755 0.0238638
vn -2.9151382 -4.3312716 3.2988081
v -0.1012466 -0.2341470 0.0010231
vn -4.6423388 -3.8867078 -0.7229807
v -0.1509248 -0.2149985 -0.0465486
vn -3.3333540 -4.5770869 2.5369196
v -0.0938329 -0.2522484 -0.0120149
vn -3.7562182 -3.9852626 2.1273186
v -0.1299126 -0.2383280 -0.0229197
vn -0.8945277 -4.2073374 4.5499735
v -0.0140792 -0.2524195 0.0437974
vn -3.5251408 -4.2204046 2.9502070
v -0.0650367 -0.2640992 0.0094498
vn 2.1066585 -3.3453462 4.5181770
v 0.0658219 -0.2304507 0.0617990
vn 0.1714406 -4.4768028 4.3634038
v 0.0263437 -0.2545191 0.0471566
vn -1.7761377 -3.6377947 3.7553234
v -0.0460304 -0.2650291 0.0325380
vn -3.4561861 -4.5540662 0.2634135
v -0.1219465 -0.2499302 -0.0389180
vn 2.3441927 -2.6963708 5.1368217
v 0.0901594 -0.1866797 0.0682361
vn -0.4297771 -4.9702053 3.5133367
v 0.0047002 -0.2725867 0.0276814
vn -2.8364525 -4.8961115 1.0966542
v -0.0691542 -0.2756982 -0.0131416
vn -0.9741523 -5.2510228 1.9433954
v -0.0324697 -0.2842475 0.0083573
vn 3.5717943 -3.3250513 3.4532328
v 0.1123452 -0.2077708 0.0474681
vn -2.8980656 -5.5391889 0.0280713
v -0.0737515 -0.2711217 -0.0447660
vn -2.5895913 -5.1099977 -1.4594848
v -0.0953886 -0.2630836 -0.0613120
vn -3.0383108 -3.5731375 -3.0444212
v -0.1131553 -0.2454061 -0.0769371
vn 1.4765384 -4.3521333 4.0110822
v 0.0413712 -0.2660741 0.0346676
vn 3.4821897 -4.1173062 2.8647473
v 0.0950445 -0.2333112 0.0365984
vn -1.2543036 -5.7599282 -0.5724133
v -0.0565000 -0.2806782 -0.0481295
vn -0.2654640 -4.0043778 0.7729962
v 0.0336367 -0.2873910 0.0155265
vn -0.4150913 -5.9698133 0.4247510
v -0.0061662 -0.2914523 -0.0248252
vn -1.5023638 -6.0612454 -0.0503870
v -0.0335405 -0.2821690 -0.0278362
vn -2.9641991 -3.1535194 4.3400698
v -0.0852838 -0.0868866 0.1389310
vn -3.5209270 -1.6264484 4.4578848
v -0.2076409 -0.0557453 0.0660162
vn 0.3891260 -1.1654869 5.4938445
v 0.0112277 -0.0611448 0.1950994
vn 3.2693524 -2.3674824 4.7037778
v 0.0405966 -0.0833342 0.1711118
vn 4.4667645 -2.2766654 3.1624999
v 0.0834040 -0.0970196 0.1279471
vn 3.6492949 -0.6062246 4.9925780
v 0.1078205 -0.1262329 0.0765509
vn 4.3771768 -1.1375993 4.3595128
v 0.0971545 -0.1088220 0.0908287
vn 3.1780498 -0.9439992 5.2782927
v 0.1380194 -0.1475973 0.0541194
vn 3.1539152 -2.5010297 4.1736331
v 0.1240228 -0.1818950 0.0596339
vn 4.1295495 -2.0208559 4.2441082
v 0.0708640 -0.0738858 0.1456125
vn 4.1231780 -2.3500648 3.3655632
v 0.1778602 -0.1468022 0.0318285
vn 3.6853154 -1.6439466 4.5381765
v 0.0606646 -0.0508726 0.1724260
vn 4.4072852 -2.6305456 3.0215445
v 0.1089646 -0.0688220 0.0901951
vn 2.7407572 -0.6680747 5.5193157
v 0.1426494 -0.1129378 0.0623286
vn 3.1667695 -0.7442738 5.3065596
v 0.0529789 -0.0278860 0.1816467
vn 3.0078497 -1.8703980 4.4754038
v 0.1242117 -0.0752066 0.0698448
vn 4.4239640 -1.6883230 4.0794511
v 0.0991169 -0.0339425 0.1372600
vn 4.5434217 -2.3757417 3.4887583
v 0.1147102 -0.0441281 0.1142329
vn 3.5912251 -0.0371531 5.0247850
v 0.0637606 -0.0037048 0.1766264
vn 3.8171699 -1.1677287 4.4711156
v 0.1795564 -0.1132213 0.0425367
vn 2.5535996 -0.9083413 5.5574718
v 0.1556733 -0.0876017 0.0547573
vn 3.4439611 -2.2698944 4.6198635
v 0.1852638 -0.0717824 0.0451922
vn 4.2685313 -1.1914804 4.3402233
v 0.1049424 -0.0059192 0.1413288
vn 4.0501242 -2.2577407 4.0554295
v 0.1204812 0.0052597 0.1256540
vn 3.4548545 -2.5733194 4.5166655
v 0.1405757 -0.0313794 0.0940999
vn 3.1810217 -0.0165297 5.3505740
v 0.0768121 0.0297000 0.1626389
vn 2.7979167 -1.6418588 5.3209734
v 0.1061896 0.0230355 0.1477151
vn 2.5099459 -2.8222063 4.9560208
v 0.1578307 -0.0481842 0.0707530
vn 2.4221261 -2.4232557 4.7160501
v 0.1894919 -0.0454323 0.0641836
vn 3.0096569 -2.0095177 4.9258218
v 0.1618266 -0.0149080 0.0908745
vn 4.7662373 -2.8121181 2.7149899
v 0.2240298 -0.0392216 0.0311621
vn 3.2742422 -0.2900678 5.2535748
v 0.0600877 0.0547105 0.1713932
vn 5.5049291 -2.6134665 1.3164463
v 0.2202394 -0.0559215 0.0108605
vn 2.3474553 0.0333667 5.7020063
v 0.1165289 0.0642839 0.1513611
vn 3.1997108 -1.8135705 4.3094330
v 0.1399238 0.0360289 0.1387486
vn 3.6955156 -2.2600636 4.2726512
v 0.1449583 0.0119302 0.1055061
vn 3.8950207 -1.8624150 4.0304770
v 0.2160724 -0.0285966 0.0518863
vn 3.4542172 -1.4467541 5.0077906
v 0.1904613 -0.0080414 0.0719124
vn 2.6022298 1.5152069 5.3567519
v 0.1024648 0.0950402 0.1533995
vn 3.8550992 -1.6133226 4.4906116
v 0.1694298 0.0324048 0.0940055
vn 5.3098941 -2.2843056 0.1528652
v 0.2492147 -0.0149426 0.0019437
vn 3.8120990 -0.3052102 4.4812202
v 0.1576559 0.0654588 0.1292723
vn 3.4359848 -1.1544945 5.0728283
v 0.2071219 0.0353521 0.0724153
vn 3.6070094 -1.0357041 4.8981605
v 0.2166530 0.0053134 0.0522790
vn 2.1464522 2.7010901 5.0978999
v 0.0700361 0.1331493 0.1543012
vn 2.9232900 2.0067160 4.8199582
v 0.1395290 0.0975506 0.1355784
vn 3.5959723 -0.3765398 5.0681777
v 0.2043617 0.0755026 0.0776763
vn 3.9925053 -1.9479922 4.2445331
v 0.2368564 0.0025713 0.0394327
vn 3.2275512 2.3762045 4.7985191
v 0.0999425 0.1284497 0.1350490
vn 3.4624028 2.0348284 4.7110720
v 0.1284654 0.1444597 0.1077063
vn 3.8347924 2.2377300 4.2802753
v 0.1663098 0.0989769 0.1123221
vn 4.2170815 -1.1327065 4.3657308
v 0.2448850 0.0440022 0.0467531
vn 4.2273393 -0.4904322 1.8703876
v 0.2638354 0.0230666 0.0282522
vn 3.4743581 2.4972036 4.5264487
v 0.1673473 0.1282180 0.0881155
vn 3.7914469 0.1498391 4.6182947
v 0.2353237 0.0763936 0.0622916
vn 3.1287367 2.3767428 4.5683389
v 0.1133990 0.1726263 0.1136868
vn 3.7971606 1.4377427 4.6735644
v 0.1936193 0.0976394 0.0868035
vn 5.8448730 -0.2048174 -0.3920975
v 0.2639599 0.0346811 0.0086877
vn 5.0730629 0.0617121 2.6300862
v 0.2578017 0.0661029 0.0381913
vn 5.3101697 -1.0899377 -2.6547475
v 0.2523856 0.0165563 -0.0198073
vn 3.7055635 1.9068760 4.0008354
v 0.2266923 0.1113689 0.0635396
vn 5.0940661 2.0092392 2.9751518
v 0.2465656 0.0959380 0.0396993
vn 5.2940764 0.2194226 -3.1426375
v 0.2506769 0.0588644 -0.0257805
vn 3.1238301 2.4600518 4.7961278
v 0.1387193 0.1736769 0.0916362
vn 3.9290357 3.4062335 3.3570123
v 0.1795495 0.1652275 0.0593207
vn 3.5440233 3.5129893 2.9434798
v 0.2044713 0.1547990 0.0506340
vn 4.9709649 1.6774718 0.2100440
v 0.2604178 0.1064479 0.0056055
vn 5.9403105 0.3611638 -1.1841974
v 0.2610016 0.0724627 0.0004669
vn 3.4814456 2.1189523 4.1040454
v 0.1610181 0.1696796 0.0828560
vn 4.7179375 3.1507618 2.2279077
v 0.2342859 0.1305175 0.0315864
vn 1.9279859 4.5809464 3.2812929
v 0.1240858 0.2110024 0.0733360
vn 1.2694366 -0.0239294 5.8184876
v 0.0297534 -0.0130559 0.1948310
vn -0.8918588 -0.0725705 6.1959291
v -0.0043561 -0.0245580 0.1923464
vn 1.1996148 0.4579134 5.8361330
v 0.0303862 0.0181410 0.1929035
vn -0.6034252 0.0657012 6.1605144
v 0.0171231 0.0442759 0.1879579
vn 1.3706990 0.9307777 5.3610592
v 0.0382977 0.0786565 0.1904653
vn 0.8791918 3.1469967 5.2919064
v 0.0442626 0.1304609 0.1626858
vn 1.6691116 3.6261427 4.0448418
v 0.0862547 0.1931490 0.1178520
vn -2.2397671 -1.2295002 5.5966978
v -0.0406934 -0.0497202 0.1814018
vn -0.1385782 2.9183638 5.5441804
v 0.0160878 0.1175029 0.1707795
vn 0.5734586 3.5473995 5.1402225
v 0.0487194 0.1604818 0.1395792
vn 0.1760353 4.9133229 3.8088009
v 0.0567367 0.2066984 0.1029141
vn -1.4876682 0.1982874 6.0515943
v -0.0209124 0.0405261 0.1850811
vn -0.1862193 3.6463532 4.9472046
v 0.0200513 0.1541795 0.1497203
vn -0.0967696 4.1436934 4.6514039
v 0.0400945 0.1894783 0.1204785
vn -1.3702341 0.1574601 5.9525757
v -0.0330986 -0.0029803 0.1896615
vn -0.9304306 0.5593229 5.6440682
v -0.0084348 0.0676376 0.1922453
vn 0.2995576 4.9603128 3.8075967
v 0.0395948 0.2231800 0.0817410
vn -1.1192657 3.1003635 5.2234879
v -0.0130905 0.1193253 0.1679126
vn -2.9537830 -2.4381378 4.8878670
v -0.0340407 -0.0826052 0.1703752
vn -1.9680070 0.6223374 5.5807524
v -0.0636931 0.0027712 0.1812621
vn -2.6373949 1.0079504 5.5901942
v -0.0701438 0.0381370 0.1666448
vn -0.6121004 3.9631245 4.6867385
v 0.0142322 0.1813789 0.1275984
vn -2.6129267 -2.1753054 5.1729722
v -0.0634744 -0.0576834 0.1682352
vn -2.1765175 0.8160245 5.7171822
v -0.0458211 0.0776841 0.1762332
vn -1.1098504 1.9928838 5.6106887
v -0.0456882 0.0955265 0.1726190
vn -1.1083727 3.3346045 5.1431870
v -0.0464467 0.1365683 0.1423558
vn -0.9014899 3.7625027 4.9034858
v -0.0152320 0.1763210 0.1216576
vn -3.0670378 -0.5971445 5.0842891
v -0.0886868 -0.0150506 0.1696737
vn -0.2870991 4.4454985 4.3585262
v -0.0021245 0.2125650 0.0952912
vn -3.6230028 -1.9032892 4.6443391
v -0.0932442 -0.0434335 0.1566949
vn -0.6950992 3.2691185 5.0165334
v -0.0536248 0.1715569 0.1266093
vn -3.4009321 0.9069231 5.1767173
v -0.1074824 0.0123605 0.1529712
vn -2.0406005 1.8190441 5.1640716
v -0.0743028 0.1068133 0.1598427
vn 0.3595411 4.6402140 4.1039629
v -0.0270573 0.2445079 0.0598664
vn -2.9103472 -0.0555990 5.5132122
v -0.0916396 0.0902371 0.1487627
vn -0.7512501 4.2029295 4.5947380
v -0.0447500 0.2021440 0.0984102
vn -2.9661715 0.5708141 5.5022106
v -0.1138862 0.0611176 0.1400962
vn -1.6162281 3.0505662 5.2382555
v -0.0832082 0.1445714 0.1307501
vn -4.1081810 -0.3825758 4.5710244
v -0.1229897 0.0065786 0.1422331
vn -1.2368745 4.1006465 4.5665565
v -0.0670764 0.2163134 0.0806937
vn 0.0219154 4.8640552 2.6371467
v -0.0451535 0.2672965 0.0392095
vn -3.2520299 0.9954272 5.1535449
v -0.1315688 0.0982584 0.1297870
vn -2.8188071 2.4030538 4.9332843
v -0.1186554 0.1266953 0.1286302
vn -2.1344864 3.6714895 4.4328532
v -0.0959257 0.1770896 0.1082302
vn -4.2211852 -0.4734544 4.5319638
v -0.1481497 -0.0016989 0.1107354
vn -3.9451509 -0.2592378 4.6924911
v -0.1411765 0.0320000 0.1280506
vn -2.1902308 4.0947437 3.9632096
v -0.0945684 0.2294631 0.0613935
vn -3.9281530 -2.6216743 4.0600276
v -0.1282237 -0.0679523 0.1091469
vn -4.0562530 0.3055550 4.4386897
v -0.1637465 0.0750266 0.1120329
vn -3.3062027 2.6591661 4.5129480
v -0.1459838 0.1433527 0.1009775
vn -2.6582716 3.8265269 4.2077236
v -0.1221311 0.1842010 0.0825602
vn -3.5834734 -0.6208602 4.8593068
v -0.1619511 -0.0295896 0.1036736
vn -3.3924949 -2.5599203 4.6078119
v -0.1497786 -0.0558864 0.0995030
vn -3.9454405 -0.2091165 4.6944823
v -0.1754612 0.0234927 0.0850920
vn -2.5323143 5.1601081 2.1850369
v -0.1059612 0.2548774 0.0137159
vn -4.3905969 1.0938466 4.3054891
v -0.1793429 0.1052696 0.0870505
vn -2.7620533 3.6172194 4.3003182
v -0.1456487 0.1812087 0.0712812
vn -3.8096719 1.9221622 4.3805008
v -0.1769568 0.1357616 0.0816922
vn -2.4466252 4.1079721 4.0474811
v -0.1328559 0.2119650 0.0489152
vn -2.1631181 5.0625496 1.6223017
v -0.1378316 0.2458851 0.0099795
vn -3.3529763 -1.3613067 5.0735154
v -0.1821546 -0.0510303 0.0810934
vn -3.5031488 -0.2344506 5.1542807
v -0.1931774 -0.0165494 0.0744112
vn -4.7369332 0.1584313 4.0878510
v -0.1889155 0.0763661 0.0801259
vn -2.7145698 3.5700626 4.3802872
v -0.1622498 0.1960012 0.0479942
vn -3.3404968 -0.1203639 5.0860510
v -0.2064944 0.0000663 0.0704624
vn -4.1481481 0.3588442 4.6488352
v -0.2014082 0.0456413 0.0684234
vn -3.9288249 2.7445548 3.8655179
v -0.1887996 0.1661439 0.0521773
vn -4.5623116 1.4494005 3.9997945
v -0.2144574 0.1269572 0.0418326
vn -2.7705171 4.2200532 2.5114274
v -0.1695461 0.2282428 0.0183759
vn -4.9754238 0.7684861 3.6284256
v -0.2253059 0.0284911 0.0463974
vn -4.6996055 2.9136891 2.8281975
v -0.2094450 0.1709620 0.0203297
vn -4.7387347 -0.2437000 2.3804035
v -0.2420902 -0.0228495 0.0423059
vn -4.7862272 3.4503350 1.5783064
v -0.1993002 0.2053205 -0.0027701
vn -4.6619625 0.6847605 4.1445541
v -0.2163995 0.0636777 0.0481961
# 493 vertices, 0 vertices normals


usemtl material_0
vt 0.5128360 0.4989041
vt 0.5071677 0.4828843
vt 0.5072764 0.4998106
f 2/1/2 3/2/3 46/3/46
vt 0.4998334 0.4933527
f 46/3/46 3/2/3 1/4/1
vt 0.4821503 0.4701325
vt 0.4856037 0.4679082
vt 0.4890657 0.4685609
f 59/5/59 3/6/3 2/7/2
vt 0.5263825 0.4645718
vt 0.5224329 0.4579223
vt 0.5191184 0.4713944
f 4/8/4 28/9/28 6/10/6
vt 0.4659833 0.4706844
vt 0.4516745 0.4708351
vt 0.4633666 0.4669471
f 6/11/6 28/12/28 9/13/9
vt 0.5067730 0.4684110
vt 0.4998545 0.4744125
f 3/2/3 8/14/8 10/15/10
vt 0.5148000 0.4673025
vt 0.5126815 0.4740898
f 9/16/9 8/14/8 5/17/5
vt 0.5125959 0.4588987
vt 0.5188736 0.4502338
f 12/18/12 9/16/9 29/19/29
vt 0.4927343 0.4676120
vt 0.4893900 0.4761126
f 10/15/10 13/20/13 11/21/11
vt 0.4987686 0.4610825
f 10/15/10 8/14/8 14/22/14
vt 0.4989892 0.4625912
f 12/18/12 14/23/14 8/14/8
vt 0.4209490 0.4991270
vt 0.4252972 0.4929771
vt 0.4225924 0.5008563
f 48/24/48 17/25/17 16/26/16
vt 0.4351670 0.5003665
vt 0.4310973 0.5022590
vt 0.4294532 0.4960403
f 15/27/15 16/28/16 17/29/17
vt 0.5135377 0.4965676
vt 0.5016844 0.4860520
vt 0.5168253 0.4866079
f 48/30/48 43/31/43 20/32/20
vt 0.5344550 0.5020471
vt 0.5311567 0.4944590
vt 0.5383847 0.4987009
f 15/33/15 19/34/19 18/35/18
vt 0.4229286 0.4858294
vt 0.4288791 0.4758428
vt 0.4350114 0.4842569
f 20/36/20 25/37/25 21/38/21
vt 0.4391680 0.4752097
f 21/38/21 25/37/25 24/39/24
vt 0.4450479 0.4822400
f 21/38/21 24/39/24 22/40/22
vt 0.5104718 0.4369038
vt 0.5181218 0.4301531
vt 0.5106762 0.4296970
f 44/41/44 25/42/25 23/43/23
vt 0.4419797 0.4670497
vt 0.4450801 0.4665727
f 24/39/24 26/44/26 29/45/29
vt 0.4521432 0.4716799
vt 0.4530874 0.4766560
f 22/40/22 28/46/28 27/47/27
vt 0.5180818 0.4407839
f 26/48/26 44/41/44 29/19/29
vt 0.5082988 0.4512701
f 44/41/44 45/49/45 29/19/29
vt 0.4606799 0.4734749
f 27/47/27 28/46/28 4/50/4
vt 0.4754143 0.4466774
vt 0.4828564 0.4466341
vt 0.4851220 0.4327457
f 50/51/50 32/52/32 37/53/37
vt 0.4799723 0.4592157
vt 0.4871968 0.4572122
f 254/54/254 33/55/33 32/52/32
vt 0.4941619 0.4567332
f 13/20/13 34/56/34 33/55/33
vt 0.4904502 0.4480163
f 32/52/32 33/55/33 35/57/35
vt 0.4319923 0.4680635
vt 0.4273064 0.4713810
vt 0.4321069 0.4712708
f 31/58/31 36/59/36 30/60/30
f 32/52/32 35/57/35 37/53/37
vt 0.4871988 0.4695537
vt 0.4906118 0.4727308
vt 0.4830210 0.4770625
f 37/61/37 39/62/39 36/63/36
vt 0.4998298 0.4493082
f 34/56/34 38/64/38 35/57/35
vt 0.4954464 0.4365442
vt 0.5039768 0.4401208
vt 0.4971129 0.4289541
f 40/65/40 42/66/42 39/67/39
vt 0.4979900 0.4932671
vt 0.4907568 0.4917158
f 36/63/36 347/68/347 348/69/348
f 36/63/36 43/31/43 347/68/347
vt 0.5035666 0.4238856
f 39/67/39 44/41/44 41/70/41
f 42/66/42 44/41/44 39/67/39
f 45/49/45 12/18/12 29/19/29
f 44/41/44 23/43/23 41/70/41
vt 0.4846363 0.4710673
f 47/71/47 13/20/13 33/55/33
f 14/23/14 12/18/12 38/64/38
vt 0.5073652 0.4689024
vt 0.4985420 0.4731124
vt 0.5040477 0.4763743
f 46/72/46 185/73/185 139/74/139
vt 0.5260117 0.4731182
vt 0.5299682 0.4818350
f 65/75/65 6/10/6 63/76/63
vt 0.4965338 0.4844699
f 11/21/11 7/77/7 10/15/10
f 347/68/347 43/31/43 48/30/48
vt 0.5401841 0.4941665
vt 0.5415757 0.4916545
vt 0.5418085 0.4975082
f 18/78/18 81/79/81 79/80/79
vt 0.4701796 0.4384184
vt 0.4780318 0.4345692
vt 0.4748295 0.4303813
f 247/81/247 31/82/31 30/83/30
f 254/54/254 32/52/32 50/51/50
vt 0.4848098 0.4864681
vt 0.4782892 0.4868711
f 36/63/36 345/84/345 340/85/340
vt 0.5110849 0.5076275
vt 0.5188046 0.5040655
f 51/86/51 52/87/52 2/1/2
vt 0.5297980 0.5112079
vt 0.5177426 0.5137434
f 53/88/53 52/87/52 51/89/51
vt 0.5370740 0.5028282
vt 0.5300295 0.5068182
vt 0.5408353 0.5158854
f 58/90/58 54/91/54 55/92/55
vt 0.5483407 0.5063144
vt 0.5398617 0.4999511
f 55/92/55 56/93/56 61/94/61
vt 0.5501940 0.5138161
f 55/92/55 77/95/77 56/93/56
vt 0.5172380 0.4853774
f 52/87/52 59/96/59 2/1/2
vt 0.5244392 0.4988064
f 52/87/52 57/97/57 59/96/59
vt 0.5338153 0.4911667
f 60/98/60 59/96/59 57/97/57
f 60/98/60 63/76/63 59/96/59
vt 0.5431410 0.4892997
f 61/94/61 62/99/62 60/98/60
vt 0.5526226 0.4932960
vt 0.5481854 0.4852889
f 78/100/78 64/101/64 62/99/62
f 60/98/60 62/99/62 63/76/63
vt 0.5351924 0.4768202
f 66/102/66 65/75/65 63/76/63
vt 0.5361261 0.4663685
f 66/102/66 67/103/67 65/75/65
vt 0.5045342 0.4946264
vt 0.5002286 0.4893411
vt 0.5111328 0.4906298
f 408/104/408 70/105/70 69/106/69
vt 0.5678601 0.5103842
vt 0.5662276 0.5016986
vt 0.5570831 0.5042153
f 69/107/69 70/108/70 75/109/75
vt 0.4950444 0.4824494
vt 0.4981427 0.4820916
vt 0.4988034 0.4834287
f 74/110/74 75/111/75 70/112/70
vt 0.5584163 0.4909954
f 74/113/74 78/100/78 75/109/75
vt 0.5611130 0.5165010
f 73/114/73 75/109/75 77/95/77
vt 0.5566138 0.5200789
f 73/114/73 77/95/77 76/115/76
f 75/109/75 56/93/56 77/95/77
f 75/109/75 78/100/78 56/93/56
vt 0.5306431 0.4575875
f 4/8/4 67/103/67 27/116/27
vt 0.4544140 0.4920307
vt 0.4580421 0.4996244
vt 0.4470813 0.4998016
f 80/117/80 83/118/83 79/119/79
vt 0.5369684 0.4794045
vt 0.5413713 0.4818395
vt 0.5390877 0.4820604
f 67/120/67 85/121/85 49/122/49
vt 0.5497148 0.4580947
vt 0.5388431 0.4579414
vt 0.5500646 0.4679970
f 80/123/80 49/124/49 84/125/84
vt 0.5429598 0.4720038
f 49/124/49 85/126/85 84/125/84
vt 0.5565048 0.4638994
f 80/123/80 84/125/84 89/127/89
vt 0.4712241 0.4934965
vt 0.4677109 0.5008241
f 83/118/83 89/128/89 86/129/86
vt 0.4740752 0.4886460
vt 0.4786511 0.4866453
f 87/130/87 90/131/90 89/128/89
vt 0.5549381 0.4726045
vt 0.5572689 0.4815349
vt 0.5599263 0.4787393
f 87/132/87 91/133/91 90/134/90
vt 0.4840404 0.4940544
vt 0.4765012 0.5041737
f 89/128/89 72/135/72 88/136/88
f 89/128/89 90/131/90 72/135/72
vt 0.5525003 0.4809727
f 92/137/92 64/101/64 78/100/78
f 92/137/92 74/113/74 91/133/91
f 78/100/78 74/113/74 92/137/92
f 66/102/66 85/126/85 67/103/67
f 66/102/66 62/99/62 85/126/85
f 64/101/64 85/126/85 62/99/62
vt 0.5093070 0.4733577
f 51/138/51 46/72/46 139/74/139
f 51/86/51 2/1/2 46/3/46
vt 0.5464050 0.5250622
f 77/95/77 108/139/108 76/115/76
vt 0.4481044 0.4893965
f 79/119/79 81/140/81 80/117/80
vt 0.5039924 0.5115507
vt 0.5132755 0.5245852
f 139/141/139 93/142/93 51/89/51
vt 0.5122966 0.4872211
vt 0.5171627 0.4875483
vt 0.5131208 0.4851390
f 95/143/95 94/144/94 93/145/93
vt 0.5204877 0.4906498
vt 0.5165699 0.4903435
f 96/146/96 94/144/94 95/147/95
vt 0.5215050 0.5209834
f 100/148/100 51/89/51 93/142/93
vt 0.5236387 0.4862090
vt 0.5238506 0.4848273
vt 0.5195991 0.4854552
f 99/149/99 101/150/101 94/151/94
vt 0.5250041 0.5467248
vt 0.5331053 0.5450483
vt 0.5233632 0.5367713
f 98/152/98 102/153/102 96/154/96
vt 0.5304534 0.5287837
vt 0.5364306 0.5242176
vt 0.5273107 0.5184744
f 101/155/101 104/156/104 103/157/103
vt 0.5269366 0.5340029
f 96/154/96 102/153/102 99/158/99
vt 0.5358096 0.5362494
f 102/153/102 105/159/105 99/158/99
vt 0.5408865 0.5391275
f 102/153/102 106/160/106 105/159/105
f 103/157/103 104/156/104 53/88/53
vt 0.5297820 0.4842855
vt 0.5360701 0.4875099
vt 0.5405770 0.4833591
f 101/161/101 105/162/105 107/163/107
vt 0.5349772 0.4811131
vt 0.5390433 0.4796046
f 101/164/101 107/163/107 104/165/104
vt 0.5244473 0.4761343
vt 0.5253865 0.4747112
vt 0.5217875 0.4743145
f 104/166/104 108/167/108 55/168/55
vt 0.5548354 0.5072358
vt 0.5601533 0.5077645
vt 0.5595538 0.5143464
f 112/169/112 113/170/113 111/171/111
vt 0.5499957 0.5164772
vt 0.5515806 0.5057124
f 413/172/413 115/173/115 112/169/112
vt 0.5583531 0.5081483
vt 0.5571647 0.4962799
vt 0.5542213 0.5045031
f 114/174/114 117/175/117 115/176/115
vt 0.5623924 0.5067247
vt 0.5619663 0.4984762
f 114/177/114 134/178/134 117/175/117
vt 0.5455549 0.4987307
f 115/176/115 118/179/118 112/169/112
vt 0.5354226 0.5122019
vt 0.5422573 0.5059773
vt 0.5291019 0.5066959
f 110/180/110 113/181/113 116/182/116
vt 0.5433267 0.5604332
vt 0.5360285 0.5593611
vt 0.5429859 0.5613207
f 118/183/118 119/184/119 113/185/113
f 115/176/115 117/175/117 118/179/118
vt 0.5366653 0.5522535
vt 0.5254921 0.5548776
f 122/186/122 123/187/123 119/184/119
f 122/186/122 98/152/98 123/187/123
vt 0.5510578 0.4865478
vt 0.5437376 0.4894741
vt 0.5486866 0.4941958
f 137/188/137 124/189/124 120/190/120
vt 0.5642979 0.5292707
f 76/115/76 125/191/125 73/114/73
vt 0.5542845 0.5317266
f 76/115/76 108/139/108 126/192/126
vt 0.5242736 0.4878183
vt 0.5174160 0.4813309
vt 0.5280703 0.4856559
f 68/193/68 73/194/73 125/195/125
vt 0.5689459 0.5348135
vt 0.5686522 0.5300490
f 125/191/125 128/196/128 131/197/131
vt 0.5348427 0.4812440
vt 0.5352895 0.4841040
f 127/198/127 129/199/129 125/195/125
vt 0.5609933 0.5342804
f 126/192/126 127/200/127 125/191/125
vt 0.5351893 0.4875009
f 129/199/129 128/201/128 125/195/125
vt 0.5495296 0.5325131
vt 0.5511516 0.5387409
f 108/202/108 130/203/130 126/192/126
vt 0.5513771 0.5380060
vt 0.5581863 0.5449721
f 126/192/126 130/204/130 133/205/133
vt 0.5724977 0.4970327
vt 0.5707104 0.4964752
vt 0.5725207 0.5026752
f 415/206/415 132/207/132 136/208/136
vt 0.5353133 0.4839875
vt 0.5434512 0.4871693
vt 0.5409495 0.4907394
f 129/209/129 133/210/133 132/211/132
vt 0.5524743 0.5439764
f 130/204/130 137/212/137 133/205/133
vt 0.5466446 0.5352596
f 130/203/130 109/213/109 137/212/137
vt 0.5687882 0.5005468
vt 0.5670444 0.4913893
vt 0.5673026 0.4975417
f 136/214/136 132/215/132 134/216/134
vt 0.5448203 0.4989665
vt 0.5374715 0.5089947
vt 0.5376537 0.5019735
f 134/217/134 418/218/418 136/219/136
vt 0.5619490 0.4919563
vt 0.5642542 0.4988041
f 135/220/135 117/175/117 134/221/134
vt 0.5419613 0.5465852
vt 0.5468519 0.5449162
f 124/222/124 137/223/137 106/160/106
vt 0.5358758 0.5210216
vt 0.5284659 0.5197770
f 419/224/419 110/180/110 138/225/138
vt 0.5223363 0.5154920
f 110/180/110 116/182/116 168/226/168
vt 0.5175921 0.4934691
f 68/193/68 125/195/125 411/227/411
vt 0.5274341 0.4941275
f 125/195/125 131/228/131 411/227/411
vt 0.4960004 0.5309581
vt 0.5050186 0.5306203
vt 0.4905863 0.5153430
f 140/229/140 144/230/144 191/231/191
f 144/230/144 139/141/139 191/231/191
vt 0.4874125 0.5418822
vt 0.4855656 0.5278481
f 141/232/141 140/229/140 194/233/194
vt 0.4873770 0.5553125
vt 0.4946558 0.5436664
f 141/232/141 147/234/147 143/235/143
vt 0.4993703 0.5416628
f 145/236/145 144/230/144 140/229/140
vt 0.5298341 0.4844690
vt 0.5326691 0.4857004
vt 0.5321455 0.4872689
f 93/237/93 144/238/144 95/239/95
vt 0.5454425 0.4759381
vt 0.5491597 0.4818288
vt 0.5431134 0.4812094
f 143/240/143 146/241/146 145/242/145
vt 0.5112838 0.5421747
vt 0.5138515 0.5331574
f 149/243/149 95/244/95 144/230/144
vt 0.5057232 0.5498351
f 145/236/145 148/245/148 149/243/149
vt 0.5184960 0.5397042
f 95/244/95 149/243/149 97/246/97
vt 0.4986333 0.5500963
f 145/236/145 146/247/146 148/245/148
vt 0.5101320 0.5549625
f 148/245/148 150/248/150 149/243/149
vt 0.5588855 0.4846940
vt 0.5506913 0.4867264
f 146/241/146 151/249/151 148/250/148
vt 0.5028817 0.5626746
f 151/251/151 150/248/150 148/245/148
vt 0.4853730 0.5096703
vt 0.4817221 0.4994871
vt 0.4750077 0.5016424
f 460/252/460 154/253/154 182/254/182
vt 0.4679105 0.4935696
vt 0.4614237 0.4839201
vt 0.4605348 0.4913454
f 181/255/181 153/256/153 180/257/180
vt 0.4793028 0.4894718
f 182/254/182 158/258/158 181/255/181
vt 0.4714967 0.4806764
f 153/256/153 181/255/181 157/259/157
vt 0.4947573 0.4994376
f 460/252/460 159/260/159 154/253/154
vt 0.4868844 0.4941664
f 154/253/154 159/260/159 155/261/155
vt 0.4641389 0.4788353
f 153/256/153 157/259/157 156/262/156
vt 0.4920719 0.4859392
f 158/258/158 155/261/155 163/263/163
vt 0.4916910 0.5724441
vt 0.4879397 0.5705029
vt 0.4831047 0.5741370
f 163/264/163 162/265/162 158/266/158
vt 0.4786199 0.4805511
vt 0.4812061 0.4753978
vt 0.4741173 0.4737232
f 160/267/160 166/268/166 165/269/165
vt 0.4869827 0.4784461
f 160/267/160 162/270/162 166/268/166
vt 0.5009797 0.4910926
vt 0.5012227 0.4847273
f 163/263/163 164/271/164 167/272/167
vt 0.4873344 0.4725880
vt 0.4833177 0.4693923
vt 0.4804518 0.4697267
f 166/273/166 147/274/147 165/275/165
vt 0.5015180 0.5689543
vt 0.4970270 0.5640459
f 167/276/167 152/277/152 163/264/163
vt 0.5245886 0.5030133
f 116/182/116 169/278/169 168/226/168
vt 0.5265231 0.5009010
vt 0.5199785 0.4985112
f 121/279/121 171/280/171 169/278/169
vt 0.5224415 0.5648301
vt 0.5155252 0.5681169
vt 0.5199193 0.5679712
f 169/281/169 171/282/171 172/283/172
vt 0.5186957 0.5040249
vt 0.5120006 0.5134611
f 168/226/168 172/284/172 173/285/173
vt 0.5164311 0.4980404
vt 0.5123028 0.5019842
f 172/284/172 171/286/171 174/287/174
vt 0.5140990 0.4960764
vt 0.5104817 0.4961447
f 174/287/174 171/288/171 176/289/176
vt 0.5052296 0.4972761
vt 0.5057184 0.5071117
f 174/287/174 178/290/178 175/291/175
vt 0.5690668 0.4928446
vt 0.5732005 0.4922916
vt 0.5746466 0.4960837
f 176/292/176 164/293/164 178/294/178
vt 0.5675017 0.4850367
vt 0.5720216 0.4896658
f 167/295/167 164/296/164 176/292/176
vt 0.5627147 0.4840716
f 176/292/176 151/297/151 167/295/167
vt 0.4971181 0.5069431
f 179/298/179 159/260/159 460/252/460
vt 0.4775750 0.5474192
vt 0.4754385 0.5558095
f 147/234/147 142/299/142 165/300/165
vt 0.4835124 0.5627026
f 152/277/152 147/234/147 166/301/166
vt 0.5565045 0.4899165
f 150/302/150 151/297/151 176/292/176
vt 0.5050145 0.5625593
f 152/277/152 167/276/167 151/303/151
vt 0.4690558 0.5043925
f 474/304/474 182/254/182 181/255/181
vt 0.4655558 0.5640381
vt 0.4672723 0.5628424
vt 0.4589475 0.5631260
f 156/305/156 161/306/161 183/307/183
vt 0.4687263 0.5587924
vt 0.4636414 0.5561065
f 161/308/161 165/300/165 184/309/184
vt 0.5103350 0.5224024
f 436/310/436 168/226/168 173/285/173
vt 0.5009286 0.5180072
f 175/291/175 177/311/177 173/285/173
vt 0.4924505 0.5176413
f 177/311/177 179/298/179 453/312/453
vt 0.4888520 0.5132064
f 179/298/179 460/252/460 453/313/453
vt 0.4718176 0.5004366
vt 0.4646439 0.4938089
vt 0.4579858 0.5037572
f 242/314/242 245/315/245 188/316/188
vt 0.4831227 0.5085341
vt 0.4973236 0.5085987
f 186/317/186 191/231/191 185/318/185
vt 0.4746749 0.5100179
f 186/317/186 242/314/242 187/319/187
vt 0.4488558 0.4965927
vt 0.4460145 0.5021825
f 189/320/189 214/321/214 188/316/188
vt 0.4623830 0.5137276
f 193/322/193 187/319/187 242/314/242
f 188/316/188 193/322/193 242/314/242
vt 0.4684603 0.5274779
f 193/322/193 196/323/196 187/319/187
vt 0.4529902 0.5145128
f 195/324/195 193/322/193 188/316/188
vt 0.4618641 0.5228584
f 199/325/199 196/323/196 193/322/193
vt 0.4785681 0.5208588
f 192/326/192 196/323/196 194/233/194
vt 0.4772026 0.5408739
f 196/323/196 197/327/197 194/233/194
vt 0.4521551 0.5274528
f 193/322/193 228/328/228 199/325/199
vt 0.4701448 0.5365261
f 196/323/196 198/329/198 197/327/197
vt 0.4580508 0.5355985
f 196/323/196 223/330/223 198/329/198
f 228/328/228 223/330/223 199/325/199
vt 0.5206533 0.5044612
vt 0.5280393 0.4930045
vt 0.5190315 0.4938626
f 203/331/203 204/332/204 205/333/205
vt 0.5051259 0.5031561
vt 0.5117402 0.4925479
vt 0.5071585 0.4891816
f 202/334/202 207/335/207 206/336/206
f 203/331/203 207/335/207 202/334/202
f 207/335/207 205/333/205 206/336/206
vt 0.4832991 0.4934058
vt 0.4952300 0.4927335
vt 0.4903966 0.4867024
f 208/337/208 209/338/209 210/339/210
vt 0.5184219 0.4802125
f 205/333/205 212/340/212 206/336/206
vt 0.5127769 0.4804880
vt 0.5039448 0.4830131
f 206/336/206 212/341/212 211/342/211
vt 0.5319124 0.4799467
f 233/343/233 212/340/212 205/333/205
vt 0.5258243 0.4757925
f 233/343/233 229/344/229 212/340/212
f 209/338/209 211/342/211 210/339/210
vt 0.4362365 0.5035559
vt 0.4341111 0.5161567
vt 0.4423511 0.5166862
f 211/345/211 212/346/212 215/347/215
vt 0.4447578 0.5097400
f 211/345/211 213/348/213 214/321/214
f 211/345/211 215/347/215 213/348/213
f 215/347/215 195/324/195 213/348/213
vt 0.4650555 0.5449633
f 165/300/165 142/299/142 217/349/217
vt 0.4545944 0.5656403
vt 0.4545248 0.5584835
vt 0.4490815 0.5632594
f 216/350/216 218/351/218 220/352/220
f 142/299/142 198/329/198 217/349/217
vt 0.4463080 0.5553243
f 218/351/218 222/353/222 220/352/220
vt 0.5562902 0.4753408
vt 0.5532939 0.4731764
vt 0.5522478 0.4773703
f 218/354/218 219/355/219 222/356/222
vt 0.5659198 0.4912199
vt 0.5622034 0.4845097
vt 0.5554841 0.4910792
f 235/357/235 220/358/220 224/359/224
vt 0.4456471 0.5503253
vt 0.4552297 0.5527876
vt 0.4439773 0.5425255
f 222/360/222 219/361/219 226/362/226
vt 0.4546310 0.5460816
f 219/361/219 221/363/221 226/362/226
vt 0.4487357 0.5379827
f 221/363/221 225/364/225 226/362/226
vt 0.5429185 0.4748831
vt 0.5460736 0.4827587
f 222/356/222 226/365/226 227/366/227
vt 0.5343406 0.4848476
f 227/366/227 226/365/226 231/367/231
vt 0.5379803 0.4705858
vt 0.5323247 0.4734900
vt 0.5412017 0.4727667
f 225/368/225 229/369/229 226/370/226
vt 0.4457870 0.5260586
f 225/364/225 228/328/228 232/371/232
vt 0.5417216 0.4992020
f 227/366/227 231/367/231 230/372/230
f 226/365/226 233/343/233 231/367/231
vt 0.5354284 0.5061119
f 204/332/204 236/373/236 230/372/230
f 198/329/198 223/330/223 217/349/217
vt 0.4936940 0.5116989
vt 0.5082046 0.5136001
f 491/374/491 489/375/489 202/334/202
vt 0.4651189 0.5565567
f 183/307/183 184/376/184 218/351/218
vt 0.4536172 0.4848521
vt 0.4489426 0.4849320
vt 0.4483072 0.4917595
f 216/377/216 220/378/220 235/379/235
vt 0.5587545 0.4989191
f 235/357/235 224/359/224 492/380/492
vt 0.4850002 0.4901861
vt 0.4898574 0.4994046
f 1/4/1 239/381/239 234/382/234
vt 0.4848432 0.4720175
vt 0.4836584 0.4729682
vt 0.4872600 0.4725823
f 239/383/239 240/384/240 234/385/234
vt 0.4770356 0.4921448
f 234/382/234 240/386/240 186/317/186
vt 0.4755873 0.4700387
vt 0.4733508 0.4786533
vt 0.4828822 0.4800659
f 238/387/238 241/388/241 237/389/237
vt 0.4648917 0.4645208
f 238/387/238 257/390/257 241/388/241
vt 0.4614849 0.4734066
vt 0.4653636 0.4808644
f 241/388/241 244/391/244 243/392/243
f 257/390/257 244/391/244 241/388/241
f 240/386/240 245/315/245 242/314/242
f 240/386/240 243/392/243 245/315/245
vt 0.4574163 0.4827618
f 245/315/245 243/392/243 246/393/246
vt 0.4690514 0.4311171
vt 0.4625166 0.4381289
f 342/394/342 248/395/248 247/81/247
vt 0.4375620 0.4874384
vt 0.4450429 0.4816474
vt 0.4387091 0.4780163
f 326/396/326 249/397/249 248/398/248
vt 0.4660679 0.4484271
f 248/395/248 252/399/252 247/81/247
vt 0.4556750 0.4828507
vt 0.4449213 0.4811802
vt 0.4468701 0.4886823
f 269/400/269 249/401/249 250/402/250
vt 0.4599170 0.4727600
vt 0.4573985 0.4777416
vt 0.4582951 0.4729765
f 252/403/252 251/404/251 253/405/253
f 252/399/252 50/51/50 247/81/247
vt 0.4517609 0.4775476
vt 0.4514248 0.4732649
vt 0.4552817 0.4750617
f 249/406/249 253/407/253 251/408/251
vt 0.4697832 0.4568455
f 252/399/252 255/409/255 50/51/50
f 252/399/252 257/390/257 255/409/255
f 50/51/50 255/409/255 254/54/254
vt 0.4487976 0.4598338
vt 0.4528029 0.4716734
vt 0.4567664 0.4655352
f 270/410/270 271/411/271 256/412/256
vt 0.4761856 0.5022369
vt 0.4698049 0.4938488
vt 0.4705585 0.5020972
f 258/413/258 263/414/263 280/415/280
vt 0.4807208 0.4894286
f 259/416/259 263/414/263 258/413/258
vt 0.4384934 0.4808812
vt 0.4444883 0.4868276
vt 0.4446424 0.4748927
f 259/417/259 260/418/260 261/419/261
vt 0.4404304 0.4751529
f 259/417/259 261/419/261 264/420/264
vt 0.4536540 0.4891737
f 260/418/260 190/421/190 261/419/261
vt 0.4586401 0.4923216
f 280/415/280 263/414/263 265/422/265
vt 0.4485783 0.4758443
f 246/393/246 271/411/271 261/423/261
vt 0.4678847 0.4800521
vt 0.4657791 0.4868348
vt 0.4763736 0.4793735
f 267/424/267 268/425/268 261/426/261
f 268/425/268 267/424/267 269/400/269
vt 0.4647790 0.4783238
vt 0.4589617 0.4774446
f 267/427/267 270/428/270 269/400/269
f 255/409/255 257/390/257 238/387/238
f 271/411/271 244/391/244 256/412/256
f 7/77/7 237/389/237 1/4/1
f 1/4/1 237/389/237 239/381/239
f 11/21/11 237/389/237 7/77/7
f 30/83/30 342/394/342 247/81/247
vt 0.4479852 0.4965959
f 265/422/265 250/402/250 310/429/310
vt 0.4659440 0.4839504
vt 0.4692007 0.4719818
vt 0.4758651 0.4741807
f 274/430/274 273/431/273 349/432/349
vt 0.4719285 0.5308920
vt 0.4721823 0.5321602
vt 0.4839361 0.5364802
f 275/433/275 273/434/273 274/435/274
vt 0.4802413 0.5318932
f 275/433/275 274/435/274 467/436/467
vt 0.4741896 0.5518968
vt 0.4731599 0.5485600
vt 0.4724857 0.5517445
f 281/437/281 438/438/438 282/439/282
vt 0.4490571 0.5187786
vt 0.4464186 0.5105043
vt 0.4531736 0.5153631
f 277/440/277 279/441/279 283/442/283
vt 0.4645870 0.5224984
vt 0.4701772 0.5301316
f 275/433/275 285/443/285 273/444/273
vt 0.4684143 0.5411654
vt 0.4610791 0.5424179
vt 0.4711909 0.5454664
f 284/445/284 288/446/288 438/447/438
vt 0.4759721 0.5344586
vt 0.4795019 0.5353019
vt 0.4761534 0.5380375
f 273/448/273 289/449/289 349/450/349
vt 0.4570189 0.4677565
vt 0.4634351 0.4662313
vt 0.4571938 0.4736337
f 283/451/283 285/452/285 276/453/276
vt 0.5002692 0.4733806
vt 0.5112396 0.4676924
vt 0.5112829 0.4759318
f 281/454/281 286/455/286 352/456/352
vt 0.4963493 0.4698909
vt 0.4931985 0.4608764
vt 0.5008049 0.4593992
f 282/457/282 288/458/288 287/459/287
f 282/457/282 287/459/287 281/454/281
vt 0.4679985 0.5471798
f 438/447/438 288/446/288 282/460/282
vt 0.4738741 0.5315481
vt 0.4723534 0.5287659
vt 0.4750240 0.5307877
f 273/461/273 290/462/290 289/463/289
vt 0.4689509 0.4658607
vt 0.4739164 0.4604659
vt 0.4740385 0.4677243
f 285/464/285 290/465/290 273/466/273
vt 0.4469681 0.4687577
vt 0.4516410 0.4625136
vt 0.4520301 0.4678720
f 279/467/279 291/468/291 283/469/283
vt 0.4528802 0.5094701
vt 0.4581054 0.5116595
f 283/442/283 291/470/291 293/471/293
vt 0.4445014 0.5038293
vt 0.4497449 0.5065459
f 262/472/262 291/473/291 279/441/279
f 281/454/281 287/459/287 286/455/286
vt 0.4477386 0.4627487
vt 0.4450244 0.4647480
f 266/474/266 291/468/291 262/475/262
vt 0.4641968 0.5468178
vt 0.4596701 0.5466273
vt 0.4619162 0.5435605
f 286/476/286 287/477/287 294/478/294
vt 0.4926769 0.4525981
f 288/458/288 297/479/297 287/459/287
vt 0.4609689 0.5275209
vt 0.4599897 0.5223265
vt 0.4550068 0.5306336
f 290/480/290 292/481/292 295/482/295
vt 0.5030358 0.4500559
f 287/459/287 297/479/297 298/483/298
vt 0.4592252 0.4599077
vt 0.4586230 0.4546208
vt 0.4651131 0.4567514
f 293/484/293 302/485/302 296/486/296
vt 0.4540786 0.5106513
vt 0.4491476 0.5199471
f 296/487/296 301/488/301 292/481/292
vt 0.4518678 0.4544473
f 291/468/291 299/489/299 302/485/302
vt 0.4560971 0.4618793
f 293/490/293 291/468/291 302/485/302
vt 0.4838622 0.5328009
vt 0.4790040 0.5209434
vt 0.4853464 0.5265297
f 295/491/295 301/492/301 304/493/304
vt 0.4692913 0.4536961
vt 0.4658658 0.4472123
vt 0.4695048 0.4493075
f 296/494/296 305/495/305 306/496/306
vt 0.4945189 0.5385105
vt 0.4956095 0.5316560
vt 0.5026172 0.5367496
f 300/497/300 308/498/308 298/499/298
vt 0.4561673 0.4512563
vt 0.4608513 0.4471604
f 302/485/302 299/500/299 307/501/307
vt 0.5114895 0.4528784
vt 0.5215988 0.4576925
vt 0.5213165 0.4643677
f 303/502/303 318/503/318 311/504/311
vt 0.4749594 0.5142933
vt 0.4787375 0.5157457
f 301/492/301 306/505/306 309/506/309
vt 0.4542454 0.4463589
f 299/500/299 310/507/310 307/501/307
vt 0.4505750 0.5392662
vt 0.4421347 0.5323680
vt 0.4468168 0.5302706
f 298/508/298 313/509/313 315/510/315
vt 0.4886037 0.5253648
vt 0.4962942 0.5232368
f 308/498/308 304/511/304 314/512/314
vt 0.4734921 0.4456068
vt 0.4756398 0.4360969
f 306/513/306 305/495/305 321/514/321
vt 0.5113913 0.5281067
vt 0.5176393 0.5262443
vt 0.5119820 0.5347791
f 315/515/315 319/516/319 303/517/303
vt 0.4532465 0.4429730
vt 0.4568126 0.4430739
f 317/518/317 307/519/307 310/507/310
vt 0.4758940 0.4365696
vt 0.4868021 0.4325026
vt 0.4796407 0.4436548
f 321/520/321 322/521/322 309/522/309
vt 0.4653429 0.4359008
f 305/495/305 316/523/316 321/514/321
vt 0.4398809 0.5287064
vt 0.4365734 0.5251644
vt 0.4395984 0.5251604
f 313/524/313 320/525/320 315/526/315
vt 0.4441412 0.4998482
vt 0.4391826 0.4930165
vt 0.4354107 0.4974220
f 307/527/307 317/528/317 316/529/316
vt 0.5053966 0.5225411
vt 0.5023878 0.5285816
f 314/512/314 320/530/320 313/531/313
vt 0.4985817 0.4344127
vt 0.4908522 0.4373054
f 322/521/322 314/532/314 312/533/312
vt 0.4724171 0.5018821
vt 0.4781956 0.5072625
vt 0.4733591 0.5079342
f 325/534/325 324/535/324 321/536/321
vt 0.5179265 0.4478024
vt 0.5296754 0.4563765
f 318/503/318 319/537/319 323/538/323
vt 0.4316004 0.4927160
f 317/528/317 328/539/328 316/529/316
vt 0.5115357 0.4427911
vt 0.5263532 0.4456641
f 315/540/315 335/541/335 319/537/319
vt 0.4710408 0.4320520
vt 0.4649224 0.4317567
vt 0.4695188 0.4299403
f 325/542/325 328/543/328 327/544/327
vt 0.4279376 0.5055252
vt 0.4241750 0.5031186
vt 0.4246523 0.5090087
f 324/545/324 330/546/330 333/547/333
vt 0.4629452 0.4931800
vt 0.4648448 0.4889094
vt 0.4727210 0.4960345
f 328/548/328 334/549/334 327/550/327
vt 0.4590371 0.4879881
f 326/551/326 334/549/334 328/548/328
vt 0.5202274 0.4346248
f 331/552/331 335/541/335 315/540/315
vt 0.5059102 0.4333549
f 320/553/320 331/552/331 315/540/315
vt 0.4866321 0.4247666
vt 0.4961057 0.4265431
f 333/554/333 329/555/329 322/521/322
vt 0.5096446 0.5202737
vt 0.5083023 0.5117987
vt 0.5188792 0.5170462
f 320/556/320 332/557/332 331/558/331
vt 0.5020987 0.4239886
vt 0.5076062 0.4269705
f 329/555/329 336/559/336 332/560/332
vt 0.4874420 0.4227689
vt 0.4925702 0.4190158
f 333/561/333 338/562/338 329/555/329
vt 0.5320346 0.4409896
f 331/552/331 339/563/339 335/541/335
vt 0.4224500 0.5063474
vt 0.4197242 0.5040351
f 333/564/333 330/546/330 338/565/338
f 334/549/334 340/85/340 327/550/327
vt 0.5338193 0.4488239
f 335/541/335 339/563/339 357/566/357
vt 0.4826839 0.5027893
vt 0.4805145 0.4963247
vt 0.4905550 0.5024606
f 330/567/330 337/568/337 338/569/338
vt 0.4683654 0.4789952
vt 0.4728888 0.4828842
f 334/549/334 342/570/342 341/571/341
vt 0.5173767 0.4306406
vt 0.5117167 0.4236481
vt 0.5245230 0.4310200
f 331/572/331 343/573/343 344/574/344
vt 0.4216413 0.4973461
vt 0.4216095 0.4904252
vt 0.4195750 0.4914550
f 337/575/337 340/576/340 345/577/345
vt 0.5010581 0.5072183
f 338/569/338 347/68/347 336/578/336
f 338/569/338 348/69/348 347/68/347
vt 0.5099107 0.4192128
vt 0.5217725 0.4257274
vt 0.5142545 0.4225649
f 346/579/346 16/580/16 343/581/343
f 336/578/336 347/68/347 48/30/48
vt 0.5029023 0.4827036
vt 0.4909235 0.4756627
f 351/582/351 438/583/438 281/454/281
vt 0.4831887 0.4738849
vt 0.4814350 0.4833148
f 349/432/349 272/584/272 442/585/442
vt 0.4649069 0.4725772
vt 0.4626855 0.4805022
f 276/453/276 275/586/275 467/587/467
vt 0.4494282 0.4772347
vt 0.4552176 0.4792296
f 277/588/277 276/453/276 472/589/472
vt 0.4763126 0.5133298
f 258/413/258 280/415/280 278/590/278
vt 0.4426029 0.4930067
f 310/429/310 250/402/250 317/591/317
vt 0.4293990 0.4883827
f 248/398/248 334/592/334 326/396/326
f 341/571/341 36/63/36 340/85/340
vt 0.5092816 0.5037525
vt 0.5255442 0.5032750
f 346/593/346 48/30/48 16/594/16
vt 0.5315395 0.5074782
vt 0.5325376 0.5131309
f 344/595/344 15/33/15 339/596/339
vt 0.4709092 0.5459398
vt 0.4792548 0.5421758
vt 0.4749249 0.5490197
f 286/597/286 358/598/358 352/599/352
vt 0.5225910 0.4725518
vt 0.5208492 0.4792554
f 286/455/286 353/600/353 358/601/358
vt 0.5320497 0.4640233
vt 0.5279406 0.4685608
f 354/602/354 355/603/355 318/503/318
vt 0.5398479 0.4570653
f 323/538/323 357/566/357 356/604/356
vt 0.5414214 0.5049998
vt 0.5483434 0.5050693
vt 0.5399249 0.5116471
f 79/605/79 82/606/82 357/607/357
vt 0.5391339 0.4491930
vt 0.5501970 0.4579992
f 357/608/357 359/609/359 356/604/356
vt 0.4493790 0.5080533
vt 0.4533153 0.5109667
vt 0.4477292 0.5158078
f 82/610/82 359/611/359 357/612/357
vt 0.4804202 0.5479827
vt 0.4848551 0.5499726
f 352/613/352 358/598/358 360/614/360
vt 0.5151763 0.4913034
vt 0.5090173 0.4961312
f 351/582/351 363/615/363 420/616/420
vt 0.5157450 0.4851661
f 351/582/351 360/617/360 363/615/363
vt 0.4698903 0.5254982
vt 0.4773960 0.5229603
vt 0.4802904 0.5277662
f 355/618/355 364/619/364 361/620/361
vt 0.5234203 0.4860008
vt 0.5278596 0.4894922
vt 0.5221951 0.4880239
f 358/621/358 365/622/365 360/623/360
vt 0.5284491 0.4805896
vt 0.5280295 0.4849926
f 358/601/358 353/624/353 366/625/366
vt 0.5501218 0.4652513
vt 0.5450686 0.4745212
vt 0.5404910 0.4675081
f 368/626/368 369/627/369 362/628/362
vt 0.5222077 0.4972625
f 360/623/360 365/622/365 367/629/367
vt 0.5452100 0.4858595
vt 0.5362794 0.4778807
f 369/627/369 376/630/376 364/631/364
vt 0.5538924 0.4809658
f 369/627/369 368/626/368 370/632/370
vt 0.5295134 0.4976257
f 367/629/367 365/622/365 371/633/371
vt 0.4869335 0.5329664
vt 0.5015779 0.5343359
vt 0.4908560 0.5397596
f 366/634/366 372/635/372 365/636/365
vt 0.5352125 0.4829606
vt 0.5401988 0.4896968
f 361/637/361 376/630/376 373/638/373
vt 0.5041381 0.5476408
vt 0.5076346 0.5507826
vt 0.4989548 0.5507452
f 374/639/374 380/640/380 367/641/367
vt 0.5364146 0.5018572
vt 0.5337204 0.4875794
f 372/642/372 366/643/366 373/638/373
f 370/632/370 376/630/376 369/627/369
vt 0.4978007 0.5386427
vt 0.5043915 0.5397643
vt 0.5051741 0.5418224
f 371/644/371 372/645/372 375/646/375
vt 0.5401634 0.4997879
f 373/638/373 384/647/384 372/642/372
vt 0.5467863 0.4959698
f 373/638/373 378/648/378 384/647/384
vt 0.5540096 0.4870222
f 370/632/370 377/649/377 376/630/376
vt 0.5562830 0.4983218
f 377/649/377 386/650/386 376/630/376
vt 0.5616816 0.4925019
f 385/651/385 386/650/386 377/649/377
vt 0.4858305 0.5173250
vt 0.4890002 0.5093764
vt 0.4921789 0.5140094
f 377/652/377 379/653/379 385/654/385
vt 0.5308157 0.5065076
vt 0.5397498 0.5108701
vt 0.5328749 0.5184184
f 375/655/375 383/656/383 382/657/382
vt 0.5179666 0.5156224
vt 0.5225321 0.5085252
vt 0.5298966 0.5272170
f 380/658/380 374/659/374 387/660/387
vt 0.5541639 0.4973064
vt 0.5592530 0.5103641
f 386/661/386 391/662/391 378/648/378
vt 0.4837266 0.5031099
vt 0.4893925 0.5018689
f 381/663/381 389/664/389 379/653/379
vt 0.5440055 0.5199311
vt 0.5394700 0.5285508
f 390/665/390 394/666/394 383/656/383
vt 0.5135433 0.5275991
vt 0.5200738 0.5372156
vt 0.5107267 0.5368401
f 388/667/388 390/668/390 383/669/383
vt 0.5688148 0.5013622
vt 0.5630543 0.5011544
f 385/651/385 396/670/396 392/671/392
vt 0.5044516 0.5168696
vt 0.5075591 0.5196202
vt 0.4989123 0.5211092
f 392/672/392 391/673/391 386/674/386
vt 0.5591008 0.5210363
vt 0.5498945 0.5095198
f 391/662/391 395/675/395 388/676/388
vt 0.4954150 0.5012891
vt 0.4997458 0.5099133
f 379/653/379 389/677/389 396/678/396
vt 0.5697414 0.5102714
vt 0.5728953 0.5048957
vt 0.5717715 0.5096517
f 396/679/396 389/680/389 401/681/401
vt 0.5210877 0.5266960
vt 0.5282633 0.5251875
f 390/668/390 395/682/395 405/683/405
vt 0.5096495 0.5158512
vt 0.5081333 0.5133714
vt 0.5122200 0.5125169
f 391/684/391 392/685/392 400/686/400
vt 0.5709969 0.5128822
f 396/670/396 400/687/400 392/671/392
vt 0.5108641 0.5015509
f 408/104/408 406/688/406 389/677/389
vt 0.5557459 0.5280091
vt 0.5487103 0.5369567
vt 0.5474225 0.5294644
f 405/689/405 402/690/402 399/691/399
vt 0.5731959 0.5051769
f 396/670/396 401/692/401 400/687/400
vt 0.5394205 0.5497217
vt 0.5379987 0.5425687
f 402/690/402 412/693/412 398/694/398
vt 0.5674961 0.5222252
vt 0.5637847 0.5320780
f 395/675/395 403/695/403 409/696/409
vt 0.5198168 0.5111473
f 400/686/400 406/688/406 407/697/407
vt 0.5585499 0.5438613
f 402/690/402 405/689/405 414/698/414
f 405/689/405 409/696/409 414/698/414
vt 0.5273413 0.5110805
vt 0.5356364 0.5152379
vt 0.5221133 0.5169737
f 410/699/410 409/700/409 403/701/403
vt 0.5214747 0.5009239
f 406/688/406 416/702/416 407/697/407
f 408/104/408 69/106/69 411/227/411
vt 0.5460314 0.5480221
f 412/693/412 402/690/402 417/703/417
vt 0.5306692 0.5013204
f 407/697/407 416/702/416 415/704/415
f 411/227/411 416/702/416 406/688/406
vt 0.5438476 0.5564219
f 412/693/412 417/703/417 111/705/111
f 409/700/409 410/699/410 418/218/418
f 411/227/411 131/228/131 416/702/416
vt 0.5462005 0.5081220
f 418/218/418 114/706/114 409/700/409
vt 0.4655429 0.5419421
vt 0.4576489 0.5366379
vt 0.4665161 0.5395394
f 286/707/286 303/708/303 353/709/353
f 323/538/323 354/602/354 318/503/318
f 335/541/335 357/566/357 323/538/323
vt 0.4588594 0.5076888
vt 0.4663586 0.5106859
f 359/710/359 86/129/86 368/711/368
f 86/129/86 88/136/88 368/711/368
vt 0.5487397 0.5235202
f 417/712/417 413/172/413 112/169/112
vt 0.5252706 0.5326094
vt 0.5308724 0.5310923
f 426/713/426 404/714/404 138/225/138
vt 0.5266913 0.5470551
vt 0.5302391 0.5474537
vt 0.5257768 0.5487813
f 387/715/387 393/716/393 424/717/424
vt 0.5113496 0.5232419
f 380/658/380 387/660/387 424/718/424
vt 0.4993591 0.4923706
f 351/582/351 420/616/420 421/719/421
vt 0.4891513 0.4854907
f 351/582/351 421/719/421 427/720/427
vt 0.5043367 0.5121611
vt 0.4941642 0.5111845
vt 0.5085722 0.5060662
f 423/721/423 431/722/431 422/723/422
vt 0.5129486 0.5370398
vt 0.5122961 0.5409140
vt 0.5053907 0.5442452
f 425/724/425 429/725/429 432/726/432
vt 0.5207150 0.5379305
vt 0.5144317 0.5469045
f 393/727/393 429/728/429 425/724/425
vt 0.5240064 0.5542117
vt 0.5112280 0.5539647
f 429/728/429 426/729/426 433/730/433
vt 0.4908760 0.4990119
f 422/723/422 431/722/431 434/731/434
vt 0.5049108 0.5336501
vt 0.4975031 0.5194821
f 424/718/424 428/732/428 435/733/435
vt 0.5053405 0.5516870
f 429/728/429 441/734/441 432/726/432
vt 0.4797208 0.5114808
vt 0.4822681 0.5013237
f 440/735/440 439/736/439 434/731/434
vt 0.4966881 0.5343931
vt 0.4870883 0.5203999
f 437/737/437 443/738/443 435/733/435
f 427/720/427 434/731/434 442/585/442
f 434/731/434 431/722/431 440/735/440
vt 0.4856139 0.5414064
vt 0.4871966 0.5270540
f 437/737/437 445/739/445 444/740/444
vt 0.4953418 0.5506245
f 432/726/432 446/741/446 437/737/437
vt 0.4749923 0.4948721
f 439/736/439 447/742/447 434/731/434
f 443/738/443 440/735/440 431/722/431
vt 0.4990165 0.5271133
f 436/310/436 177/311/177 448/743/448
vt 0.4733100 0.4870352
f 442/585/442 447/742/447 449/744/449
vt 0.4845253 0.5491589
f 446/741/446 450/745/450 445/739/445
vt 0.4984545 0.5601199
vt 0.4867163 0.5588284
f 446/741/446 448/746/448 455/747/455
vt 0.4736151 0.5254249
f 443/738/443 454/748/454 440/735/440
vt 0.4789438 0.5309955
f 443/738/443 452/749/452 454/748/454
f 446/741/446 455/747/455 450/745/450
vt 0.5135166 0.5469186
vt 0.5141339 0.5432592
vt 0.5101855 0.5436129
f 440/750/440 456/751/456 451/752/451
vt 0.4667726 0.5170305
f 440/735/440 454/748/454 456/753/456
vt 0.4906874 0.5434334
vt 0.4944865 0.5471120
vt 0.5013700 0.5406500
f 449/754/449 447/755/447 458/756/458
vt 0.4810816 0.5619742
vt 0.4916122 0.5701876
vt 0.4819520 0.5729893
f 459/757/459 453/758/453 460/759/460
f 449/754/449 458/756/458 274/435/274
vt 0.4754618 0.5419887
vt 0.4659748 0.5366898
f 452/749/452 457/760/457 462/761/462
vt 0.4795729 0.5301504
vt 0.4773550 0.5282737
vt 0.4750484 0.5303102
f 455/762/455 459/763/459 463/764/463
vt 0.4724799 0.5504104
f 457/760/457 463/765/463 462/761/462
vt 0.4698729 0.5040535
vt 0.4641893 0.5023663
f 451/766/451 456/753/456 458/767/458
vt 0.5132926 0.5393281
vt 0.5094769 0.5359173
f 458/756/458 456/768/456 465/769/465
vt 0.4568907 0.5405767
vt 0.4619556 0.5276240
f 462/761/462 469/770/469 461/771/461
vt 0.5443633 0.5324326
vt 0.5467244 0.5302810
vt 0.5409929 0.5319972
f 463/772/463 470/773/470 469/774/469
vt 0.4652882 0.5531659
f 459/757/459 470/775/470 463/765/463
vt 0.4538993 0.4915602
vt 0.4555431 0.4845316
f 274/430/274 471/776/471 472/777/472
vt 0.4541289 0.5217705
f 456/753/456 461/771/461 468/778/468
vt 0.4745951 0.5156593
f 460/252/460 182/254/182 466/779/466
f 466/779/466 182/254/182 474/304/474
vt 0.4628713 0.5620477
vt 0.4579259 0.5522390
f 470/775/470 478/780/478 476/781/476
vt 0.5623844 0.5190183
vt 0.5607491 0.5174146
vt 0.5604789 0.5198076
f 466/782/466 478/783/478 470/784/470
vt 0.4473858 0.4851267
f 471/776/471 480/785/480 472/777/472
vt 0.4538296 0.5020211
vt 0.4489383 0.5051485
f 464/786/464 473/787/473 471/776/471
vt 0.4485856 0.5391298
vt 0.4488848 0.5306220
f 469/770/469 477/788/477 475/789/475
vt 0.4610019 0.5025630
vt 0.4644118 0.5121039
f 474/304/474 479/790/479 478/791/478
vt 0.4601843 0.5194577
vt 0.4619553 0.5161671
vt 0.4558925 0.5155459
f 476/792/476 478/793/478 483/794/483
vt 0.4632673 0.5697382
vt 0.4578514 0.5641331
f 479/795/479 488/796/488 478/780/478
vt 0.4406260 0.5005449
vt 0.4442499 0.4955685
f 473/787/473 484/797/484 481/798/481
vt 0.4531320 0.5565940
f 488/796/488 483/799/483 478/780/478
vt 0.4610594 0.5032588
f 181/255/181 479/800/479 474/304/474
vt 0.4427267 0.5129185
f 485/801/485 484/797/484 473/787/473
vt 0.4408475 0.5336961
f 477/788/477 487/802/487 475/789/475
vt 0.5299986 0.5248478
vt 0.5366927 0.5123130
vt 0.5240264 0.5218694
f 475/803/475 487/804/487 482/805/482
vt 0.5440441 0.5184595
vt 0.5394165 0.5227170
f 486/806/486 487/804/487 477/807/477
vt 0.4475025 0.5606065
vt 0.4451146 0.5557156
vt 0.4484931 0.5496576
f 488/808/488 490/809/490 486/810/486
vt 0.4318557 0.4943726
f 484/797/484 491/811/491 481/798/481
vt 0.5629128 0.5027356
vt 0.5499302 0.5055968
f 488/812/488 492/380/492 490/813/490
vt 0.4405738 0.4843884
f 350/814/350 481/798/481 491/811/491
vt 0.4356107 0.5092352
f 484/797/484 489/815/489 491/811/491
vt 0.4518166 0.5048468
f 180/257/180 235/379/235 488/816/488
vt 0.4345433 0.4852482
f 491/811/491 201/817/201 350/814/350
vt 0.4366194 0.5363860
vt 0.4394235 0.5456128
vt 0.4333582 0.5378648
f 487/818/487 490/819/490 236/820/236
f 422/723/422 424/718/424 423/721/423
vt 0.5165265 0.5511336
vt 0.5133454 0.5538846
vt 0.5122290 0.5524210
f 380/821/380 424/822/424 422/823/422
vt 0.5289083 0.5369484
f 397/824/397 426/729/426 393/727/393
f 153/256/153 216/377/216 180/257/180
f 180/257/180 216/377/216 235/379/235
vt 0.5181181 0.5137130
f 236/373/236 203/331/203 493/825/493
vt 0.4347059 0.5109630
vt 0.4370552 0.5086025
vt 0.4381982 0.5111502
f 201/826/201 258/827/258 278/828/278
f 480/785/480 350/814/350 277/588/277
vt 0.4773284 0.5413612
vt 0.4873873 0.5438081
f 349/829/349 449/830/449 274/435/274
f 427/720/427 438/583/438 351/582/351
vt 0.4771979 0.4686014
f 3/6/3 59/5/59 5/831/5
f 65/75/65 4/8/4 6/10/6
f 6/10/6 5/17/5 59/96/59
f 1/4/1 3/2/3 7/77/7
f 6/10/6 9/16/9 5/17/5
f 5/17/5 8/14/8 3/2/3
f 7/77/7 3/2/3 10/15/10
f 9/16/9 12/18/12 8/14/8
vt 0.4549796 0.4665467
f 9/13/9 28/12/28 29/832/29
f 13/20/13 10/15/10 14/22/14
f 11/21/11 13/20/13 47/71/47
vt 0.5215727 0.4947674
f 15/33/15 17/833/17 19/34/19
f 48/30/48 20/32/20 17/833/17
vt 0.4340263 0.4914405
f 20/36/20 19/834/19 17/25/17
f 19/834/19 20/36/20 21/38/21
vt 0.5360820 0.4879347
vt 0.5389875 0.4896482
vt 0.5340042 0.4906843
f 22/835/22 81/836/81 19/837/19
vt 0.5107322 0.4760248
vt 0.5172033 0.4767104
f 20/32/20 23/838/23 25/839/25
f 43/31/43 23/838/23 20/32/20
vt 0.5383589 0.4936223
f 81/836/81 18/840/18 19/837/19
vt 0.5266191 0.4902663
vt 0.5279624 0.4853886
vt 0.5337826 0.4858150
f 19/841/19 21/842/21 22/843/22
vt 0.5220985 0.4366002
f 24/844/24 25/42/25 26/48/26
f 26/48/26 25/42/25 44/41/44
f 22/40/22 24/39/24 28/46/28
vt 0.4459768 0.4694923
vt 0.4484459 0.4659038
f 28/46/28 24/845/24 29/846/29
f 31/82/31 50/51/50 37/53/37
f 35/57/35 33/55/33 34/56/34
vt 0.4811916 0.4695701
f 31/847/31 37/61/37 36/63/36
f 37/53/37 35/57/35 40/65/40
f 35/57/35 38/64/38 40/65/40
f 37/53/37 40/65/40 39/67/39
f 34/56/34 14/23/14 38/64/38
f 40/65/40 38/64/38 42/66/42
vt 0.4890463 0.4200685
vt 0.4969376 0.4286559
vt 0.4974516 0.4218457
f 36/848/36 39/849/39 41/850/41
vt 0.5014325 0.4759715
f 43/31/43 36/63/36 41/851/41
f 38/64/38 45/49/45 42/66/42
f 42/66/42 45/49/45 44/41/44
vt 0.4992183 0.4747404
f 43/31/43 41/852/41 23/838/23
f 13/20/13 14/22/14 34/56/34
f 38/64/38 12/18/12 45/49/45
f 46/3/46 1/4/1 185/318/185
f 63/76/63 6/10/6 59/96/59
vt 0.4344064 0.5102105
f 344/853/344 16/28/16 15/27/15
vt 0.4395967 0.5058429
vt 0.4399721 0.4975894
vt 0.4473795 0.4999360
f 15/854/15 18/855/18 79/856/79
vt 0.5420825 0.4518128
vt 0.5332528 0.4462062
f 81/857/81 22/858/22 49/124/49
f 49/124/49 22/858/22 27/116/27
vt 0.4366980 0.4696940
vt 0.4428009 0.4668318
vt 0.4378188 0.4666822
f 247/859/247 50/860/50 31/861/31
f 254/54/254 47/71/47 33/55/33
vt 0.4766204 0.4745566
f 341/571/341 30/862/30 36/63/36
f 345/84/345 36/63/36 348/69/348
f 53/88/53 54/91/54 52/87/52
f 53/88/53 55/92/55 54/91/54
f 58/90/58 55/92/55 61/94/61
f 54/91/54 57/97/57 52/87/52
f 54/91/54 58/90/58 57/97/57
f 57/97/57 58/90/58 60/98/60
f 58/90/58 61/94/61 60/98/60
f 61/94/61 56/93/56 62/99/62
f 62/99/62 56/93/56 78/100/78
f 63/76/63 62/99/62 66/102/66
vt 0.4914990 0.4904463
f 70/105/70 389/677/389 71/863/71
vt 0.5671274 0.5222552
f 69/107/69 73/114/73 68/864/68
f 69/107/69 75/109/75 73/114/73
vt 0.5639780 0.4905227
f 71/865/71 74/113/74 70/108/70
f 71/863/71 72/135/72 90/131/90
vt 0.4836082 0.4836090
f 90/131/90 91/866/91 71/863/71
f 71/865/71 91/133/91 74/113/74
f 49/124/49 27/116/27 67/103/67
f 49/124/49 80/123/80 81/857/81
vt 0.4531207 0.5051744
f 79/119/79 83/118/83 82/867/82
f 82/867/82 83/118/83 359/710/359
vt 0.5528599 0.4573748
f 83/868/83 80/123/80 89/127/89
vt 0.5527792 0.4644569
f 84/869/84 87/132/87 89/127/89
f 84/125/84 85/126/85 87/132/87
f 85/126/85 92/137/92 87/132/87
f 92/137/92 85/126/85 64/101/64
f 88/136/88 86/129/86 89/128/89
f 87/132/87 92/137/92 91/133/91
f 65/75/65 67/103/67 4/8/4
f 389/677/389 70/105/70 408/104/408
f 389/677/389 72/135/72 71/863/71
f 359/710/359 83/118/83 86/129/86
f 88/136/88 72/135/72 381/663/381
f 96/154/96 95/244/95 97/246/97
f 103/157/103 51/89/51 100/148/100
vt 0.5189292 0.5282602
f 94/870/94 100/148/100 93/142/93
f 98/152/98 96/154/96 97/246/97
vt 0.5209264 0.5212239
f 100/871/100 94/870/94 101/155/101
f 94/870/94 96/154/96 99/158/99
f 103/157/103 100/871/100 101/155/101
vt 0.5464984 0.4802924
f 107/163/107 109/872/109 104/165/104
vt 0.5295757 0.4861761
f 101/161/101 99/873/99 105/162/105
f 102/153/102 124/222/124 106/160/106
vt 0.5409551 0.5323455
f 105/159/105 106/160/106 107/874/107
vt 0.5424273 0.4763937
vt 0.5455573 0.4740338
f 104/875/104 109/872/109 108/876/108
f 107/874/107 106/160/106 109/213/109
vt 0.5432239 0.5168285
f 110/180/110 419/224/419 111/877/111
vt 0.5497363 0.5116662
vt 0.5502779 0.5097578
f 413/878/413 114/879/114 115/173/115
f 110/180/110 111/877/111 113/181/113
vt 0.5480549 0.5073847
f 113/181/113 112/880/112 118/179/118
vt 0.5367578 0.5004775
f 116/182/116 113/181/113 119/881/119
f 118/179/118 117/175/117 120/190/120
f 116/182/116 119/881/119 121/279/121
vt 0.5438820 0.5549247
f 119/184/119 118/882/118 122/186/122
vt 0.5273635 0.5595257
f 121/883/121 119/184/119 123/187/123
vt 0.5475471 0.5508648
f 122/186/122 120/884/120 124/222/124
f 118/882/118 120/884/120 122/186/122
f 117/175/117 137/188/137 120/190/120
f 122/186/122 102/153/102 98/152/98
f 76/115/76 126/192/126 125/191/125
vt 0.5506432 0.4790005
f 108/876/108 109/872/109 130/885/130
vt 0.5584825 0.5347791
f 127/886/127 126/192/126 133/205/133
vt 0.5359910 0.4906026
f 131/228/131 128/887/128 415/704/415
vt 0.5398040 0.4943345
f 128/887/128 132/888/132 415/704/415
vt 0.5639944 0.4848833
vt 0.5672799 0.4935510
vt 0.5681790 0.4899982
f 129/889/129 132/890/132 128/891/128
vt 0.5418593 0.4831235
f 129/209/129 127/198/127 133/892/133
vt 0.5468546 0.4924851
f 135/893/135 132/211/132 133/210/133
f 134/217/134 132/211/132 135/893/135
vt 0.5585755 0.4870855
f 135/220/135 133/894/133 137/188/137
f 109/213/109 106/160/106 137/223/137
vt 0.5661508 0.5090332
vt 0.5649406 0.5016778
f 418/895/418 134/896/134 114/177/114
f 135/220/135 137/188/137 117/175/117
f 124/222/124 102/153/102 122/186/122
vt 0.5177617 0.5536909
f 97/246/97 170/897/170 98/152/98
f 51/89/51 103/157/103 53/88/53
f 53/88/53 104/156/104 55/92/55
f 55/92/55 108/139/108 77/95/77
vt 0.5588879 0.5143378
f 413/172/413 414/898/414 114/174/114
vt 0.4929617 0.5396001
f 141/232/141 143/899/143 140/229/140
f 141/232/141 142/299/142 147/234/147
vt 0.5315217 0.4768760
vt 0.5388265 0.4778980
f 140/900/140 143/240/143 145/901/145
f 145/236/145 149/243/149 144/230/144
vt 0.5577111 0.4757363
f 146/241/146 143/240/143 147/902/147
vt 0.4963074 0.5548235
f 146/903/146 147/234/147 152/277/152
f 149/243/149 150/248/150 170/897/170
f 146/903/146 152/277/152 151/303/151
f 157/259/157 181/255/181 158/258/158
f 182/254/182 154/253/154 158/258/158
f 158/258/158 154/253/154 155/261/155
vt 0.4716586 0.5695192
f 157/904/157 161/306/161 156/305/156
vt 0.4752072 0.5716641
vt 0.4793877 0.5722423
vt 0.4809843 0.5693546
f 157/905/157 158/906/158 160/907/160
vt 0.4772697 0.5677165
f 157/904/157 160/908/160 161/306/161
vt 0.4807500 0.5711829
f 160/907/160 158/909/158 162/265/162
f 155/261/155 159/260/159 164/271/164
f 155/261/155 164/271/164 163/263/163
f 160/908/160 165/300/165 161/306/161
vt 0.4898546 0.4805207
vt 0.4934255 0.4800654
f 162/910/162 163/263/163 152/911/152
vt 0.4900576 0.5671783
f 152/277/152 166/301/166 162/912/162
f 121/883/121 170/897/170 171/282/171
f 168/226/168 169/278/169 172/284/172
f 170/897/170 150/248/150 171/282/171
f 164/271/164 159/260/159 178/290/178
f 172/284/172 174/287/174 173/285/173
vt 0.5107841 0.5683917
f 171/282/171 150/248/150 176/913/176
f 173/285/173 174/287/174 175/291/175
f 174/287/174 176/289/176 178/290/178
f 177/311/177 175/291/175 179/298/179
f 179/298/179 175/291/175 178/290/178
f 179/298/179 178/290/178 159/260/159
f 93/142/93 139/141/139 144/230/144
f 191/231/191 194/233/194 140/229/140
f 141/232/141 197/327/197 142/299/142
vt 0.5425643 0.4906156
vt 0.5471157 0.4925615
vt 0.5414018 0.4917133
f 149/914/149 170/915/170 97/916/97
vt 0.4578261 0.4785377
f 153/256/153 156/262/156 183/917/183
vt 0.4612525 0.4753913
vt 0.4690326 0.4741001
vt 0.4638960 0.4719506
f 183/918/183 161/919/161 184/920/184
f 138/225/138 110/180/110 168/226/168
vt 0.5618887 0.5023097
vt 0.5635742 0.5021971
vt 0.5636437 0.5037652
f 121/921/121 169/922/169 116/923/116
f 123/187/123 170/897/170 121/883/121
f 123/187/123 98/152/98 170/897/170
f 188/316/188 190/421/190 189/320/189
f 191/231/191 186/317/186 192/326/192
f 186/317/186 187/319/187 192/326/192
f 192/326/192 194/233/194 191/231/191
f 187/319/187 196/323/196 192/326/192
f 195/324/195 188/316/188 214/321/214
f 214/321/214 213/348/213 195/324/195
f 196/323/196 199/325/199 223/330/223
f 193/322/193 195/324/195 228/328/228
f 228/328/228 195/324/195 232/371/232
f 195/324/195 215/347/215 232/371/232
vt 0.4845858 0.5107430
vt 0.4834169 0.5030872
f 201/924/201 491/374/491 200/925/200
f 202/334/202 200/925/200 491/374/491
f 236/373/236 204/332/204 203/331/203
f 202/334/202 209/338/209 200/925/200
f 202/334/202 206/336/206 209/338/209
f 203/331/203 205/333/205 207/335/207
f 208/337/208 200/925/200 209/338/209
vt 0.4354767 0.4978464
vt 0.4324405 0.5021310
f 209/926/209 206/927/206 211/345/211
f 205/333/205 204/332/204 233/343/233
f 183/307/183 218/351/218 216/350/216
vt 0.4402619 0.4906120
f 211/345/211 214/321/214 210/928/210
vt 0.4391185 0.5293454
f 212/346/212 229/929/229 215/347/215
f 260/418/260 210/928/210 189/320/189
f 210/928/210 214/321/214 189/320/189
f 229/929/229 232/371/232 215/347/215
f 142/299/142 197/327/197 198/329/198
vt 0.4547772 0.4726254
vt 0.4588021 0.4739569
f 184/920/184 219/930/219 218/931/218
f 184/309/184 217/349/217 219/361/219
f 219/361/219 217/349/217 221/363/221
f 221/363/221 217/349/217 223/330/223
vt 0.4546425 0.4673766
vt 0.4554448 0.4662665
vt 0.4532787 0.4666783
f 221/932/221 223/933/223 225/934/225
vt 0.4423456 0.4873891
vt 0.4414573 0.4826125
vt 0.4393685 0.4880323
f 220/935/220 222/936/222 224/937/224
vt 0.5521997 0.4921676
vt 0.5528681 0.4824511
f 224/938/224 222/939/222 227/366/227
f 225/364/225 223/330/223 228/328/228
f 224/938/224 227/366/227 230/372/230
f 191/231/191 139/141/139 185/318/185
f 225/364/225 232/371/232 229/929/229
vt 0.4334749 0.5332207
f 226/362/226 229/929/229 233/940/233
f 230/372/230 231/367/231 204/332/204
f 231/367/231 233/343/233 204/332/204
f 185/318/185 234/382/234 186/317/186
f 245/315/245 190/421/190 188/316/188
f 141/232/141 194/233/194 197/327/197
f 489/375/489 203/331/203 202/334/202
f 153/256/153 183/917/183 216/377/216
f 184/309/184 165/300/165 217/349/217
f 47/71/47 237/389/237 11/21/11
f 238/387/238 47/71/47 254/54/254
f 237/389/237 241/388/241 239/381/239
vt 0.4807519 0.4687005
vt 0.4814689 0.4667516
vt 0.4772570 0.4664983
f 237/941/237 47/942/47 238/943/238
f 239/381/239 241/388/241 240/386/240
f 186/317/186 240/386/240 242/314/242
f 241/388/241 243/392/243 240/386/240
vt 0.4604999 0.4674709
f 244/391/244 257/390/257 256/944/256
f 246/393/246 243/392/243 244/391/244
f 245/315/245 246/393/246 190/421/190
f 246/393/246 244/391/244 271/411/271
vt 0.4546592 0.4414298
vt 0.4560613 0.4453328
f 248/395/248 249/945/249 251/946/251
f 326/396/326 250/402/250 249/397/249
vt 0.4457482 0.4771499
vt 0.4465853 0.4729256
f 248/398/248 251/947/251 252/948/252
vt 0.4489285 0.4775640
f 269/400/269 270/949/270 249/406/249
vt 0.4604613 0.4734923
f 253/407/253 249/406/249 270/950/270
vt 0.4570543 0.4550908
f 257/390/257 252/399/252 253/951/253
f 253/951/253 270/410/270 256/412/256
f 257/390/257 253/951/253 256/944/256
f 258/413/258 208/337/208 259/416/259
vt 0.4746564 0.4858183
f 263/414/263 259/416/259 264/952/264
f 190/421/190 246/393/246 261/419/261
vt 0.4406560 0.4932917
vt 0.4409914 0.4901375
vt 0.4449230 0.4942504
f 263/953/263 268/954/268 265/955/265
f 263/414/263 264/952/264 268/425/268
vt 0.4417515 0.4677647
f 268/956/268 264/420/264 261/419/261
vt 0.4448899 0.4677776
f 267/957/267 261/423/261 271/411/271
f 265/422/265 268/425/268 269/400/269
f 265/422/265 269/400/269 250/402/250
f 255/409/255 238/387/238 254/54/254
f 270/410/270 267/957/267 271/411/271
f 1/4/1 234/382/234 185/318/185
f 200/925/200 208/337/208 258/413/258
vt 0.4343379 0.4822022
vt 0.4369715 0.4833108
f 208/958/208 210/928/210 259/959/259
f 259/959/259 210/928/210 260/418/260
f 189/320/189 190/421/190 260/418/260
vt 0.4417725 0.4662208
vt 0.4454182 0.4619514
f 262/475/262 280/960/280 266/961/266
vt 0.4388540 0.5025166
vt 0.4467651 0.4982820
f 280/962/280 265/955/265 266/963/266
vt 0.4433538 0.5148421
f 277/440/277 278/964/278 279/441/279
vt 0.4427765 0.4728906
vt 0.4397701 0.4749179
vt 0.4396526 0.4729072
f 279/965/279 278/966/278 280/967/280
f 276/453/276 277/588/277 283/451/283
vt 0.4844797 0.5430517
vt 0.4881801 0.5414581
vt 0.4893548 0.5447247
f 272/968/272 284/969/284 438/970/438
vt 0.4862941 0.4686344
f 272/584/272 349/432/349 284/971/284
vt 0.4688780 0.5224921
vt 0.4734347 0.5277621
vt 0.4726924 0.5240285
f 285/972/285 275/973/275 276/974/276
vt 0.4807205 0.4641718
f 349/432/349 289/975/289 284/971/284
vt 0.4881603 0.4584856
f 284/971/284 289/975/289 295/976/295
vt 0.4699243 0.5213634
vt 0.4709344 0.5262917
f 285/443/285 292/977/292 290/978/290
f 283/442/283 293/471/293 285/443/285
f 284/971/284 295/976/295 288/458/288
vt 0.4572086 0.5125069
f 285/443/285 293/471/293 296/979/296
f 288/458/288 295/976/295 297/479/297
vt 0.4832792 0.4546291
f 289/975/289 290/465/290 295/980/295
f 292/481/292 285/443/285 296/979/296
vt 0.5089643 0.4619719
f 294/981/294 287/459/287 298/483/298
vt 0.4597179 0.5039234
vt 0.4600299 0.4985579
vt 0.4552354 0.5004186
f 291/982/291 266/983/266 299/984/299
f 301/488/301 295/482/295 292/481/292
vt 0.5157468 0.4623468
f 298/483/298 303/985/303 294/981/294
vt 0.4993932 0.5436647
vt 0.4964921 0.5422017
f 298/986/298 297/987/297 300/497/300
vt 0.4898147 0.5378927
f 297/988/297 304/493/304 300/497/300
vt 0.4879154 0.4456877
f 297/479/297 295/980/295 304/989/304
f 296/486/296 302/485/302 305/495/305
f 300/497/300 304/493/304 308/498/308
f 302/485/302 307/501/307 305/495/305
f 304/493/304 301/492/301 309/506/309
vt 0.4460975 0.5113984
f 301/488/301 296/487/296 306/990/306
vt 0.4840736 0.4449778
vt 0.4828259 0.4453635
vt 0.4859926 0.4405183
f 304/991/304 309/992/309 312/993/312
f 303/502/303 319/537/319 318/503/318
vt 0.5091297 0.5271553
vt 0.5078051 0.5347593
f 315/994/315 303/517/303 298/995/298
f 298/499/298 308/498/308 313/531/313
vt 0.4900806 0.5209076
f 314/512/314 304/511/304 312/996/312
f 313/531/313 308/498/308 314/512/314
f 309/522/309 306/513/306 321/520/321
vt 0.4603854 0.4426943
f 305/495/305 307/997/307 316/523/316
f 309/522/309 322/521/322 312/993/312
vt 0.4684406 0.5043522
f 316/998/316 325/534/325 321/536/321
vt 0.4941437 0.5174707
vt 0.4912999 0.5128564
vt 0.4968811 0.5136535
f 314/999/314 322/1000/322 329/1001/329
vt 0.4787636 0.4297984
f 321/520/321 324/1002/324 322/521/322
vt 0.4691164 0.4999744
vt 0.4640707 0.4989199
f 325/1003/325 316/1004/316 328/548/328
f 323/538/323 319/537/319 335/541/335
f 329/555/329 320/553/320 314/532/314
vt 0.4308575 0.5063809
vt 0.4327718 0.5013660
f 330/546/330 324/1005/324 325/1006/325
f 328/539/328 317/528/317 326/396/326
vt 0.5054832 0.5142146
vt 0.5040362 0.5195143
f 332/1007/332 320/1008/320 329/1001/329
f 322/521/322 324/1002/324 333/554/333
vt 0.4742550 0.5021602
vt 0.4744316 0.4993444
vt 0.4773455 0.5024245
f 325/1009/325 327/1010/327 330/1011/330
vt 0.4990961 0.4222773
f 336/1012/336 329/555/329 338/562/338
vt 0.4267953 0.4962989
f 330/546/330 327/1013/327 337/575/337
vt 0.5048441 0.4206975
f 332/560/332 336/1014/336 343/573/343
vt 0.4221525 0.4923418
f 337/575/337 327/1013/327 340/1015/340
f 334/549/334 341/571/341 340/85/340
f 331/552/331 344/574/344 339/563/339
f 331/572/331 332/560/332 343/573/343
vt 0.5123119 0.5096610
f 343/1016/343 336/578/336 346/593/346
f 337/568/337 348/69/348 338/569/338
vt 0.5262987 0.5091872
f 343/1016/343 16/594/16 344/1017/344
f 348/69/348 337/568/337 345/84/345
f 346/593/346 336/578/336 48/30/48
vt 0.4724133 0.4257545
f 342/394/342 30/83/30 341/1018/341
vt 0.4884995 0.4769241
f 438/1019/438 442/585/442 272/584/272
vt 0.4565828 0.4797828
f 472/1020/472 276/453/276 467/587/467
vt 0.4427714 0.4762375
f 350/814/350 278/1021/278 277/588/277
vt 0.4393200 0.4717043
vt 0.4418449 0.4690358
f 280/1022/280 262/1023/262 279/965/279
f 299/984/299 266/983/266 265/422/265
f 310/429/310 299/984/299 265/422/265
f 317/591/317 250/402/250 326/396/326
vt 0.4312413 0.4775871
f 248/398/248 342/1024/342 334/592/334
vt 0.4418652 0.5126610
f 79/119/79 339/1025/339 15/854/15
f 286/455/286 294/981/294 303/985/303
f 351/582/351 281/454/281 352/456/352
vt 0.4642026 0.5319654
vt 0.4729562 0.5369734
f 303/708/303 311/1026/311 353/1027/353
vt 0.4620733 0.5297626
vt 0.4682269 0.5277464
f 318/1028/318 355/1029/355 311/1026/311
vt 0.4558953 0.5201336
vt 0.4577183 0.5158679
vt 0.4611978 0.5204756
f 323/1030/323 356/1031/356 354/1032/354
f 351/582/351 352/456/352 360/617/360
f 353/1027/353 311/1026/311 361/620/361
f 311/1026/311 355/1029/355 361/620/361
f 355/603/355 354/602/354 364/631/364
f 356/604/356 362/628/362 354/602/354
f 354/602/354 362/628/362 364/631/364
f 356/604/356 368/626/368 362/628/362
vt 0.4875594 0.5391775
f 358/598/358 366/634/366 365/1033/365
f 361/620/361 366/634/366 353/1027/353
f 356/604/356 359/609/359 368/626/368
vt 0.5172207 0.4985438
f 363/615/363 367/1034/367 420/616/420
f 364/631/364 362/628/362 369/627/369
f 363/615/363 360/623/360 367/629/367
vt 0.5340965 0.5223255
vt 0.5395411 0.5220859
vt 0.5368154 0.5261744
f 364/1035/364 376/1036/376 361/1037/361
f 371/633/371 374/659/374 367/629/367
f 371/644/371 365/636/365 372/635/372
vt 0.4941619 0.5288928
f 366/634/366 361/620/361 373/1038/373
vt 0.4685292 0.5119605
vt 0.4788172 0.5112937
f 368/1039/368 88/136/88 370/1040/370
f 371/633/371 375/655/375 374/659/374
f 373/638/373 376/630/376 378/648/378
vt 0.5586357 0.4774455
vt 0.5603024 0.4850267
f 88/1041/88 379/1042/379 370/632/370
f 88/136/88 381/663/381 379/653/379
f 374/659/374 375/655/375 382/657/382
f 370/1040/370 379/653/379 377/652/377
f 375/655/375 372/642/372 383/656/383
f 378/648/378 376/630/376 386/661/386
f 384/647/384 378/648/378 388/676/388
f 374/659/374 382/657/382 387/660/387
vt 0.5029060 0.5310332
f 372/635/372 384/1043/384 383/669/383
f 383/669/383 384/1043/384 388/667/388
f 388/676/388 378/648/378 391/662/391
f 386/650/386 385/651/385 392/671/392
f 381/663/381 72/135/72 389/664/389
vt 0.5321356 0.5423215
vt 0.5321121 0.5443679
vt 0.5282659 0.5444414
f 397/1044/397 393/1045/393 387/1046/387
f 394/666/394 382/657/382 383/656/383
f 382/657/382 394/666/394 387/660/387
f 385/654/385 379/653/379 396/678/396
vt 0.5485322 0.5094831
vt 0.5486957 0.5193822
f 388/1047/388 395/675/395 390/1048/390
vt 0.5280018 0.5321851
vt 0.5271056 0.5382608
f 390/668/390 399/1049/399 394/1050/394
vt 0.5354947 0.5383008
f 387/660/387 398/1051/398 397/824/397
f 403/695/403 395/675/395 391/662/391
f 399/691/399 390/1048/390 405/689/405
f 394/666/394 398/1051/398 387/660/387
vt 0.5438406 0.5357015
f 394/666/394 399/691/399 402/1052/402
f 403/695/403 391/662/391 400/687/400
vt 0.5069953 0.5072826
f 401/1053/401 389/677/389 406/688/406
vt 0.5329521 0.5454918
f 397/824/397 398/1051/398 404/1054/404
f 398/1051/398 394/666/394 402/1052/402
f 400/686/400 401/1053/401 406/688/406
f 405/689/405 395/675/395 409/696/409
f 400/686/400 407/697/407 403/701/403
f 403/701/403 407/697/407 410/699/410
f 406/688/406 408/104/408 411/227/411
f 407/697/407 415/704/415 410/699/410
vt 0.5325588 0.5536225
f 412/693/412 404/1055/404 398/694/398
vt 0.5516431 0.5470197
f 413/1056/413 402/690/402 414/698/414
vt 0.5373288 0.5266506
vt 0.5365610 0.5241978
f 412/1057/412 419/1058/419 404/714/404
vt 0.5471535 0.5524626
f 417/1059/417 402/690/402 413/1056/413
vt 0.5641687 0.5140035
f 409/1060/409 114/177/114 414/898/414
f 410/699/410 136/219/136 418/218/418
f 415/704/415 136/219/136 410/699/410
vt 0.5363867 0.5593061
f 412/693/412 111/705/111 419/1061/419
f 416/702/416 131/228/131 415/704/415
vt 0.5468320 0.5559406
f 111/705/111 417/1059/417 112/1062/112
vt 0.4464513 0.5071330
f 339/1025/339 79/1063/79 357/612/357
vt 0.5713731 0.5155740
f 411/1064/411 69/107/69 68/864/68
f 138/225/138 404/714/404 419/224/419
f 426/729/426 397/824/397 404/1054/404
f 422/723/422 367/1034/367 380/658/380
f 420/616/420 367/1034/367 422/723/422
vt 0.5165663 0.5296038
f 426/713/426 138/225/138 430/1065/430
f 420/616/420 422/723/422 421/719/421
f 424/718/424 435/733/435 423/721/423
f 424/718/424 425/724/425 428/732/428
f 393/727/393 426/729/426 429/728/429
vt 0.5124948 0.5238274
f 430/1065/430 138/225/138 436/1066/436
f 421/719/421 422/723/422 434/731/434
vt 0.5151138 0.5564572
f 426/729/426 430/1067/430 433/730/433
f 421/719/421 434/731/434 427/720/427
f 423/721/423 435/733/435 431/722/431
f 428/732/428 425/724/425 432/726/432
f 433/730/433 441/734/441 429/728/429
f 431/722/431 435/733/435 443/738/443
f 435/733/435 428/732/428 437/737/437
f 428/732/428 432/726/432 437/737/437
vt 0.5090764 0.5343395
f 430/1065/430 436/310/436 433/1068/433
f 438/1019/438 427/720/427 442/585/442
vt 0.5038223 0.5367932
f 441/1069/441 433/1068/433 436/310/436
f 437/737/437 444/740/444 443/738/443
vt 0.5024366 0.5519038
f 441/1070/441 446/741/446 432/726/432
f 442/585/442 434/731/434 447/742/447
f 437/737/437 446/741/446 445/739/445
f 452/749/452 443/738/443 444/740/444
f 446/741/446 441/1070/441 448/746/448
vt 0.5035215 0.5305613
f 436/310/436 448/743/448 441/1071/441
f 439/736/439 451/766/451 447/742/447
f 444/740/444 445/739/445 452/749/452
f 451/766/451 439/736/439 440/735/440
vt 0.4933549 0.5238319
vt 0.4883933 0.5281810
f 453/1072/453 455/1073/455 448/743/448
vt 0.4995930 0.5239319
vt 0.4947183 0.5226180
f 448/743/448 177/1074/177 453/1075/453
vt 0.5019792 0.5430188
f 447/755/447 451/1076/451 458/756/458
vt 0.4823469 0.5445964
f 452/1077/452 445/739/445 457/760/457
f 445/739/445 450/745/450 457/760/457
f 455/747/455 453/758/453 459/757/459
f 456/753/456 454/748/454 461/771/461
f 454/748/454 452/749/452 461/771/461
f 452/749/452 462/761/462 461/771/461
f 457/760/457 450/745/450 463/765/463
vt 0.4832401 0.5345497
vt 0.4806775 0.5302577
f 450/1078/450 455/1079/455 463/764/463
vt 0.4970315 0.5350459
f 458/756/458 464/1080/464 274/435/274
vt 0.4726579 0.5660164
f 466/1081/466 470/775/470 459/757/459
f 459/757/459 460/759/460 466/1081/466
vt 0.4868185 0.5307670
f 274/435/274 472/1082/472 467/436/467
vt 0.4588930 0.4999670
f 274/430/274 464/1083/464 471/776/471
f 464/1080/464 458/756/458 465/769/465
vt 0.5190321 0.5375030
vt 0.5186766 0.5363756
f 456/1084/456 468/1085/468 465/769/465
f 462/761/462 463/765/463 469/770/469
vt 0.5090318 0.5251362
vt 0.5203626 0.5312741
f 473/1086/473 465/769/465 468/1087/468
vt 0.5284874 0.5348904
vt 0.5345380 0.5332354
vt 0.5311806 0.5328915
f 461/1088/461 469/1089/469 468/1090/468
vt 0.5004010 0.5307176
f 465/769/465 473/1086/473 464/1091/464
f 468/778/468 469/770/469 475/789/475
vt 0.4603209 0.5245566
vt 0.4576117 0.5239417
vt 0.4545522 0.5256960
f 470/1092/470 476/1093/476 469/1094/469
vt 0.5207872 0.5254719
f 468/1087/468 482/1095/482 473/1086/473
f 478/791/478 466/779/466 474/304/474
f 472/777/472 480/785/480 277/588/277
f 471/776/471 473/787/473 481/798/481
vt 0.4494764 0.5217600
vt 0.4447342 0.5212150
f 468/1096/468 475/789/475 482/1097/482
vt 0.4553665 0.5220347
vt 0.4521139 0.5223599
f 469/1094/469 476/1098/476 477/1099/477
f 471/776/471 481/798/481 480/785/480
f 477/788/477 476/781/476 486/810/486
f 482/1097/482 485/801/485 473/787/473
vt 0.4541049 0.5177926
vt 0.4531459 0.5146846
vt 0.4520701 0.5169523
f 476/1100/476 483/1101/483 486/1102/486
f 350/814/350 480/785/480 481/798/481
vt 0.5135365 0.5195642
vt 0.5228786 0.5192186
f 485/1103/485 482/1104/482 493/825/493
f 483/799/483 488/808/488 486/810/486
f 181/255/181 180/257/180 479/800/479
f 485/801/485 489/815/489 484/797/484
vt 0.4391204 0.5121223
f 485/801/485 493/1105/493 489/815/489
f 479/800/479 180/257/180 488/816/488
vt 0.4833382 0.5177617
vt 0.4838891 0.5140362
f 278/590/278 350/1106/350 201/1107/201
f 482/1104/482 487/804/487 493/825/493
vt 0.5485360 0.5136295
vt 0.5425925 0.5072406
f 486/1108/486 490/1109/490 487/804/487
vt 0.4329968 0.5289078
vt 0.4371470 0.5239171
f 487/818/487 236/1110/236 493/1111/493
vt 0.4455118 0.5000541
f 488/816/488 235/379/235 492/1112/492
f 393/727/393 425/724/425 424/718/424
f 138/225/138 168/226/168 436/1066/436
f 436/310/436 173/285/173 177/311/177
f 203/331/203 489/375/489 493/825/493
f 490/813/490 492/380/492 224/938/224
vt 0.4346551 0.5016022
vt 0.4373117 0.5027827
vt 0.4377699 0.4987676
f 230/1113/230 490/1114/490 224/1115/224
vt 0.4346430 0.5448060
f 490/819/490 230/1116/230 236/820/236
vt 0.4330865 0.5057657
vt 0.4348533 0.5044133
f 201/826/201 200/1117/200 258/1118/258
vt 0.4754270 0.4790906
f 349/1119/349 442/585/442 449/744/449
# 982 faces, 1119 coords texture

# End of File
